<?xml version="1.0" encoding="UTF-8"?>
<svg width="57px" height="58px" viewBox="0 0 57 58" version="1.1" xmlns="http://www.w3.org/2000/svg" xmlns:xlink="http://www.w3.org/1999/xlink">
    <title>icon-calendar</title>
    <g id="Page-1" stroke="none" stroke-width="1" fill="none" fill-rule="evenodd">
        <g id="Features" transform="translate(-1427.000000, -962.000000)" fill="#000000" fill-rule="nonzero">
            <g id="Group-8" transform="translate(103.000000, 910.000000)">
                <g id="icon-calendar" transform="translate(1324.000000, 52.000000)">
                    <path d="M12.2019635,0 C10.8673738,0 9.76157083,1.09505208 9.76157083,2.41666667 L9.76157083,4.83333333 L2.44039271,4.83333333 C1.80169679,4.83333333 1.15346748,5.06461558 0.695893843,5.52246154 C0.233552903,5.97558654 0,6.61751362 0,7.25 L0,55.5833333 C0,56.2158209 0.233552903,56.857748 0.695893843,57.3155928 C1.15346748,57.7687178 1.80169679,58 2.44039271,58 L53.6886396,58 C54.3273367,58 54.975566,57.7687178 55.4379057,57.3155928 C55.8954794,56.857748 56.1290323,56.2158209 56.1290323,55.5833333 L56.1290323,7.25 C56.1290323,6.61751362 55.8954794,5.97558654 55.4379057,5.52246154 C54.975566,5.06461558 54.3273367,4.83333333 53.6886396,4.83333333 L46.3674614,4.83333333 L46.3674614,2.41666667 C46.3674614,1.09505208 45.2616585,0 43.9270687,0 L41.486676,0 C40.1520863,0 39.0462833,1.09505208 39.0462833,2.41666667 L39.0462833,4.83333333 L17.0827489,4.83333333 L17.0827489,2.41666667 C17.0827489,1.09505208 15.976946,0 14.6423562,0 L12.2019635,0 Z M12.2019635,2.41666667 L14.6423562,2.41666667 L14.6423562,9.66666667 L12.2019635,9.66666667 L12.2019635,2.41666667 Z M41.486676,2.41666667 L43.9270687,2.41666667 L43.9270687,9.66666667 L41.486676,9.66666667 L41.486676,2.41666667 Z M2.44039271,7.25 L9.76157083,7.25 L9.76157083,9.66666667 C9.76157083,10.9882812 10.8673738,12.0833333 12.2019635,12.0833333 L14.6423562,12.0833333 C15.976946,12.0833333 17.0827489,10.9882812 17.0827489,9.66666667 L17.0827489,7.25 L39.0462833,7.25 L39.0462833,9.66666667 C39.0462833,10.9882812 40.1520863,12.0833333 41.486676,12.0833333 L43.9270687,12.0833333 C45.2616585,12.0833333 46.3674614,10.9882812 46.3674614,9.66666667 L46.3674614,7.25 L53.6886396,7.25 L53.6886396,15.7083333 L2.44039271,15.7083333 L2.44039271,7.25 Z M2.44039271,18.125 L53.6886396,18.125 L53.6886396,55.5833333 L2.44039271,55.5833333 L2.44039271,18.125 Z M9.76157083,22.9583333 L9.76157083,50.75 L46.3674614,50.75 L46.3674614,22.9583333 L9.76157083,22.9583333 Z M12.2019635,25.375 L18.3029453,25.375 L18.3029453,31.4166667 L12.2019635,31.4166667 L12.2019635,25.375 Z M20.743338,25.375 L26.8443198,25.375 L26.8443198,31.4166667 L20.743338,31.4166667 L20.743338,25.375 Z M29.2847125,25.375 L35.3856942,25.375 L35.3856942,31.4166667 L29.2847125,31.4166667 L29.2847125,25.375 Z M37.826087,25.375 L43.9270687,25.375 L43.9270687,31.4166667 L37.826087,31.4166667 L37.826087,25.375 Z M12.2019635,33.8333333 L18.3029453,33.8333333 L18.3029453,39.875 L12.2019635,39.875 L12.2019635,33.8333333 Z M20.743338,33.8333333 L26.8443198,33.8333333 L26.8443198,39.875 L20.743338,39.875 L20.743338,33.8333333 Z M29.2847125,33.8333333 L35.3856942,33.8333333 L35.3856942,39.875 L29.2847125,39.875 L29.2847125,33.8333333 Z M37.826087,33.8333333 L43.9270687,33.8333333 L43.9270687,39.875 L37.826087,39.875 L37.826087,33.8333333 Z M12.2019635,42.2916667 L18.3029453,42.2916667 L18.3029453,48.3333333 L12.2019635,48.3333333 L12.2019635,42.2916667 Z M20.743338,42.2916667 L26.8443198,42.2916667 L26.8443198,48.3333333 L20.743338,48.3333333 L20.743338,42.2916667 Z M29.2847125,42.2916667 L35.3856942,42.2916667 L35.3856942,48.3333333 L29.2847125,48.3333333 L29.2847125,42.2916667 Z M37.826087,42.2916667 L43.9270687,42.2916667 L43.9270687,48.3333333 L37.826087,48.3333333 L37.826087,42.2916667 Z" id="Shape"></path>
                </g>
            </g>
        </g>
    </g>
</svg>