<?xml version="1.0" encoding="UTF-8"?>
<svg width="84px" height="62px" viewBox="0 0 84 62" version="1.1" xmlns="http://www.w3.org/2000/svg" xmlns:xlink="http://www.w3.org/1999/xlink">
    <title>icon-off-time</title>
    <g id="Page-1" stroke="none" stroke-width="1" fill="none" fill-rule="evenodd">
        <g id="Features" transform="translate(-1170.000000, -1198.000000)">
            <g id="icon-off-time" transform="translate(1170.000000, 1198.000000)">
                <path d="M0,0 L0,53.3333333 L83.3333333,53.3333333 L83.3333333,0 L0,0 Z M3.33333333,3.33333333 L80,3.33333333 L80,50 L3.33333333,50 L3.33333333,3.33333333 Z M32.34375,15.78125 C32.272135,15.7942717 32.2005217,15.8138017 32.1354167,15.8333333 C31.5104167,15.94401 31.009115,16.39974 30.8333333,17.0052083 C30.6575517,17.6171883 30.8398433,18.26823 31.3020833,18.6979167 L39.2708333,26.6666667 L31.3020833,34.6354167 C30.6380217,35.29948 30.6380217,36.3671883 31.3020833,37.03125 C31.9661467,37.6953133 33.033855,37.6953133 33.6979167,37.03125 L41.6666667,29.0625 L49.6354167,37.03125 C50.29948,37.6953133 51.3671883,37.6953133 52.03125,37.03125 C52.6953133,36.3671883 52.6953133,35.29948 52.03125,34.6354167 L44.0625,26.6666667 L52.03125,18.6979167 C52.571615,18.196615 52.7148433,17.4023433 52.3893233,16.7447917 C52.0703133,16.08073 51.3476567,15.7161467 50.625,15.8333333 C50.2539067,15.8723967 49.9023433,16.0416667 49.6354167,16.3020833 L41.6666667,24.2708333 L33.6979167,16.3020833 C33.352865,15.93099 32.8515633,15.7421883 32.34375,15.78125 Z M18.0208333,56.6666667 C17.102865,56.7513017 16.4257817,57.571615 16.5104167,58.4895833 C16.5950517,59.4075517 17.415365,60.084635 18.3333333,60 L65,60 C65.5989583,60.00651 66.158855,59.69401 66.4648433,59.1731767 C66.7643233,58.6523433 66.7643233,58.0143233 66.4648433,57.49349 C66.158855,56.9726567 65.5989583,56.6601567 65,56.6666667 L18.3333333,56.6666667 C18.28125,56.6666667 18.2291667,56.6666667 18.1770833,56.6666667 C18.125,56.6666667 18.0729167,56.6666667 18.0208333,56.6666667 Z" id="Shape" fill="#000000" fill-rule="nonzero"></path>
                <ellipse id="Oval" fill="#FFFFFF" cx="65" cy="50.5" rx="12" ry="11.5"></ellipse>
                <path d="M62.6086957,36 L62.6086957,37.6956522 L63.7391304,37.6956522 L63.7391304,38.3160665 C57.7197438,38.8868119 53,43.9632472 53,50.1304348 C53,56.6791198 58.3208802,62 64.8695652,62 C71.4182502,62 76.7391304,56.6791198 76.7391304,50.1304348 C76.7391304,43.9632472 72.0193866,38.8868119 66,38.3160665 L66,37.6956522 L67.1304348,37.6956522 L67.1304348,36 L62.6086957,36 Z M73.4814028,37.7784477 L72.3476564,38.9121943 L74.9562669,41.520805 L76.0900133,40.3870585 L73.4814028,37.7784477 Z M64.8695652,39.3913043 C70.807318,39.3913043 75.6086957,44.192682 75.6086957,50.1304348 C75.6086957,56.0681876 70.807318,60.8695652 64.8695652,60.8695652 C58.9318124,60.8695652 54.1304348,56.0681876 54.1304348,50.1304348 C54.1304348,44.192682 58.9318124,39.3913043 64.8695652,39.3913043 Z M59.2118714,43.9075236 C58.9818714,43.9075236 58.7748403,44.0469942 58.6882931,44.2600895 C58.601746,44.4731847 58.6529412,44.7174717 58.8177651,44.8778871 L63.778872,49.8389946 C63.7529887,49.9339959 63.7396284,50.0319718 63.7391304,50.1304348 C63.7391304,50.7547567 64.2452433,51.2608696 64.8695652,51.2608696 C64.9683492,51.2608278 65.0667017,51.2478379 65.1621093,51.2222319 L66.1655912,52.2257132 C66.3073571,52.373371 66.5178725,52.4328516 66.7159485,52.3812151 C66.9140244,52.3295786 67.0687091,52.174894 67.1203455,51.976818 C67.171982,51.7787421 67.1125014,51.5682266 66.9648436,51.4264607 L65.9602584,50.421875 C65.9861417,50.3268737 65.999502,50.2288977 66,50.1304348 C66,49.5061129 65.4938871,49 64.8695652,49 C64.7707812,49.0000418 64.6724288,49.0130317 64.5770211,49.0386377 L59.6170175,44.0786347 C59.5106035,43.9692464 59.3644811,43.9075236 59.2118714,43.9075236 Z" id="Shape" fill="#000000" fill-rule="nonzero"></path>
            </g>
        </g>
    </g>
</svg>