<?xml version="1.0" encoding="UTF-8"?>
<svg width="60px" height="60px" viewBox="0 0 60 60" version="1.1" xmlns="http://www.w3.org/2000/svg" xmlns:xlink="http://www.w3.org/1999/xlink">
    <title>icon-role</title>
    <g id="Page-1" stroke="none" stroke-width="1" fill="none" fill-rule="evenodd">
        <g id="Features" transform="translate(-1725.000000, -1196.000000)" fill="#000000" fill-rule="nonzero">
            <g id="icon-role" transform="translate(1725.000000, 1196.000000)">
                <path d="M26.6539226,0 C21.9514634,0.104720426 18.5106383,1.5458783 16.4361702,4.27859106 C13.97274,7.50997404 13.3992689,12.8507311 14.945146,19.4032583 C14.4165562,20.0764634 13.9478055,21.1635638 14.0674864,22.6396277 C14.4464757,25.4022613 15.4936838,26.5392294 16.3513966,27.0029923 C16.7553191,29.1971413 18.0219421,31.6904923 19.1489362,32.8773268 L19.1489362,37.4251991 C18.4109043,39.1755319 15.8427523,40.1978055 12.8856383,41.3696809 C7.90392255,43.3444149 1.70545277,45.7978723 1.27659574,53.5472081 L1.20678255,54.893617 L30.6382979,54.893617 C30.6382979,54.848737 30.6333115,54.7988694 30.6333115,54.7539894 C30.6133647,54.7190821 30.5984043,54.6742021 30.5784574,54.6392949 C29.007646,52.1110379 28.0851064,49.1389634 28.0851064,45.9574468 C28.0851064,44.0126336 28.4441489,42.1525928 29.0625,40.4172204 C29.0674864,40.4072477 29.0674864,40.3922872 29.0674864,40.3823145 L29.01762,40.3174864 L29.1123677,40.26762 C29.1323145,40.2177523 29.1522613,40.167886 29.1722081,40.1180183 C29.2918889,39.803857 29.4115698,39.4946809 29.5511974,39.1904923 C29.5861034,39.1107051 29.625997,39.0359043 29.6609043,38.956117 C29.91024,38.4375 30.1795213,37.9338434 30.473737,37.4401596 C30.5684847,37.2805851 30.6632311,37.125997 30.7629651,36.9714102 C30.9025928,36.7519953 31.0521945,36.5375668 31.2017949,36.3281247 C31.2616353,36.2483374 31.3065166,36.1685502 31.366357,36.0937506 L26.8384315,38.6120349 L21.7021277,35.7845745 L21.7021277,32.2988694 L21.7220745,31.5708115 L21.0787902,31.2017949 C20.6150272,30.8676868 19.0043221,28.3344421 18.7749332,25.9258647 L18.759974,24.7789226 L17.5980715,24.7789226 C17.4185502,24.7091094 16.8450804,24.1007311 16.6107051,22.3603723 C16.5209438,21.2882311 17.0644953,20.8444149 17.0644953,20.8444149 L17.8125,20.3457447 L17.5930851,19.4730715 C16.0472081,13.3643617 16.4162234,8.51728723 18.4707447,5.8194817 C20.0515289,3.74002723 22.8241353,2.63796511 26.6838434,2.55319149 C29.0974072,2.55319149 30.8327796,3.16156979 31.4511306,4.21875064 L31.7603055,4.75232681 L32.3736702,4.8371017 C34.0741353,5.0764634 34.9418221,5.82446809 35.7147613,7.10605021 C37.5648268,10.1628996 37.2357051,16.2566489 36.1286566,19.3583783 L35.724734,20.4055851 L36.7370349,20.9142294 C36.8517294,20.9940166 37.1559179,21.4378328 37.081117,22.3503996 C36.9115698,24.2403587 36.3131655,24.7440166 36.1835106,24.7689498 L35.0764634,24.7689498 L34.9218753,25.8610379 C34.5528587,28.4291885 32.9670881,30.8676868 32.5581779,31.1918221 L31.9148936,31.5558511 L31.9148936,35.2011306 L34.832114,32.2789226 L35.0864362,32.0246017 C35.9192157,30.7130987 36.9414894,28.7882311 37.3005319,27.0478723 C38.2180851,26.6140289 39.3600396,25.4870349 39.6243357,22.5748009 C39.7440166,21.1386306 39.3500668,20.0814498 38.8065166,19.3982719 C39.8886306,15.9175532 40.1928191,9.57945447 37.8989362,5.78457447 C36.8118357,3.98437532 35.4903587,2.84242085 33.2962098,2.40359106 C32.0644953,0.84774 29.7456779,0 26.6539226,0 Z M42.1276596,31.9148936 L41.3646945,35.999003 C40.9807187,36.1286566 40.4670881,36.2533251 40.0880987,36.507646 L36.6373009,34.0841094 L32.8075136,37.9138966 L35.106383,41.105386 C34.9767294,41.6140289 34.7224072,42.0029923 34.5927523,42.5116353 L30.6382979,43.1499332 L30.6382979,48.5106383 L34.5927523,49.1489362 C34.7224072,49.5329119 34.8520609,50.0415562 35.106383,50.4255319 L32.8075136,53.8713434 L36.6373009,57.7011306 L40.0880987,55.4072477 C40.5967417,55.6615698 40.9807187,55.786237 41.4893617,55.9158906 L42.1276596,60 L47.3587098,60 L48.1266626,56.0455455 C48.5106383,55.9158906 48.894614,55.786237 49.4032583,55.5319149 L52.8540562,57.8307843 L56.6838434,54.000997 L54.2553191,50.679854 C54.5096413,50.1712098 54.6392949,49.6575804 54.7689498,49.2736034 L58.7234043,48.5106383 L58.7234043,43.1499332 L54.6392949,42.5116353 C54.5096413,42.1276596 54.384974,41.6190166 54.1306519,41.2350396 L56.4245349,37.7842417 L52.7244013,34.0841094 L49.4032583,36.507646 C49.0192826,36.2533251 48.5106383,36.1286566 48.1266626,35.999003 L47.4883647,31.9148936 L42.1276596,31.9148936 Z M44.2968753,34.4680851 L45.3191489,34.4680851 L45.8327796,37.9138966 L46.5957447,38.1732051 C47.3636974,38.4275272 48.1266626,38.6818481 48.7649604,39.0608374 L49.5329119,39.5744681 L52.4650928,37.4052523 L53.1033906,38.0435502 L51.0638298,40.9757311 L51.4478055,41.6140289 C51.8317826,42.3819817 52.0861034,43.1499332 52.3404255,43.917886 L52.5947477,44.6808511 L56.1702128,45.1944817 L56.1702128,46.2117689 L52.7244013,46.9797204 L52.4650928,47.7476732 C52.2107719,48.5106383 51.9564498,49.2736034 51.5774604,49.9119013 L51.0638298,50.679854 L53.2330455,53.6170213 L52.4650928,54.3799864 L49.5329119,52.3404255 L48.894614,52.7244013 C48.1266626,53.1083783 47.3636974,53.3626991 46.5957447,53.6170213 L45.8327796,53.8713434 L45.1944817,57.4468085 L44.1672204,57.4468085 L43.6585774,54.000997 L42.8906247,53.7416885 C42.1276596,53.4873677 41.3646945,53.2330455 40.7263966,52.8540562 L39.9584438,52.3404255 L36.8966094,54.3799864 L36.1286566,53.6170213 L38.1732051,50.679854 L37.7842417,50.0415562 C37.4052523,49.2736034 37.1509315,48.3859711 36.8966094,47.7476732 L36.6373009,46.9797204 L33.1914894,46.3414226 L33.1914894,45.3191489 L36.7669545,44.6808511 L36.8966094,43.7882311 C37.0212766,43.1499332 37.2755987,42.3819817 37.6595745,41.7436838 L38.1732051,41.105386 L36.1286566,38.1732051 L36.8966094,37.4052523 L39.8287902,39.4498009 L40.4670881,39.1904923 C41.3597081,38.8065166 42.1276596,38.4275272 42.8906247,38.1732051 L43.6585774,38.0435502 L44.2968753,34.4680851 Z M21.4128996,38.5472081 L21.417886,38.5521945 L24.5944149,40.3274604 L21.6871672,43.9378328 L19.3035243,41.0455455 C20.2160911,40.35738 20.954123,39.5545213 21.4128996,38.5472081 Z M44.6808511,40.8510638 C41.8783251,40.8510638 39.5744681,43.1549209 39.5744681,45.9574468 C39.5744681,48.759974 41.8783251,51.0638298 44.6808511,51.0638298 C47.4434847,51.0638298 49.787234,48.8248009 49.787234,45.9574468 C49.787234,43.1549209 47.4833783,40.8510638 44.6808511,40.8510638 Z M17.0744681,42.3520609 L20.7197477,46.7702796 C20.9591094,47.0644953 21.3281247,47.2390289 21.7121017,47.2340426 C22.0960774,47.2340426 22.45512,47.0545213 22.6994681,46.7553191 L25.2027932,43.643617 L26.1702128,44.4265289 C26.1702128,44.4265289 23.6269953,48.2164226 22.9787234,52.3404255 L3.98437532,52.3404255 C4.92187532,47.2689498 9.44481447,45.4787234 13.8231383,43.7433511 C14.95512,43.2945485 16.0571809,42.8507311 17.0744681,42.3520609 Z M44.6808511,43.4042553 C46.0920881,43.4042553 47.2340426,44.5462098 47.2340426,45.9574468 C47.2340426,47.4933511 46.1319817,48.5106383 44.6808511,48.5106383 C43.269614,48.5106383 42.1276596,47.3686838 42.1276596,45.9574468 C42.1276596,44.5462098 43.269614,43.4042553 44.6808511,43.4042553 Z" id="Shape"></path>
            </g>
        </g>
    </g>
</svg>