<?xml version="1.0" encoding="UTF-8"?>
<svg width="73px" height="68px" viewBox="0 0 73 68" version="1.1" xmlns="http://www.w3.org/2000/svg" xmlns:xlink="http://www.w3.org/1999/xlink">
    <title>icon-top-url</title>
    <g id="Page-1" stroke="none" stroke-width="1" fill="none" fill-rule="evenodd">
        <g id="Features" transform="translate(-388.000000, -1198.000000)" fill="#000000" fill-rule="nonzero">
            <g id="icon-top-url" transform="translate(388.000000, 1198.000000)">
                <path d="M5.4453125,0 C3.23730433,0 1.41666667,1.82063767 1.41666667,4.02864583 L1.41666667,16.734375 C1.40559896,16.8229167 1.40559896,16.9114583 1.41666667,17 L1.41666667,56.6666667 C1.41666667,57.4469398 2.05306025,58.0834181 2.83333333,58.0834181 L28.3333333,58.0834181 C28.8424479,58.0888668 29.3183601,57.8232418 29.5784502,57.3805335 C29.8330082,56.9378252 29.8330082,56.3955082 29.5784502,55.9527998 C29.3183601,55.5100915 28.8424479,55.2444665 28.3333333,55.25 L4.25,55.25 L4.25,18.4166667 L69.4166667,18.4166667 L69.4166667,55.25 L43.9166667,55.25 C43.4075521,55.2444665 42.9316413,55.5100915 42.6715498,55.9527998 C42.4169918,56.3955082 42.4169918,56.9378252 42.6715498,57.3805335 C42.9316413,57.8232418 43.4075521,58.0888668 43.9166667,58.0834181 L70.8333333,58.0834181 C71.6136064,58.0834181 72.25,57.4469398 72.25,56.6666667 L72.25,17 C72.2610684,16.9114583 72.2610684,16.8229167 72.25,16.734375 L72.25,4.02864583 C72.25,1.82063767 70.4293623,0 68.2213542,0 L5.4453125,0 Z M5.4453125,2.83333333 L68.2213542,2.83333333 C68.9020186,2.83333333 69.4166667,3.34798142 69.4166667,4.02864583 L69.4166667,15.5833333 L4.25,15.5833333 L4.25,4.02864583 C4.25,3.34798142 4.76464808,2.83333333 5.4453125,2.83333333 Z M10.625,5.66666667 C8.67154983,5.66666667 7.08333333,7.25488317 7.08333333,9.20833333 C7.08333333,11.1617835 8.67154983,12.75 10.625,12.75 C12.5784502,12.75 14.1666667,11.1617835 14.1666667,9.20833333 C14.1666667,7.25488317 12.5784502,5.66666667 10.625,5.66666667 Z M19.125,5.66666667 C17.1715498,5.66666667 15.5833333,7.25488317 15.5833333,9.20833333 C15.5833333,11.1617835 17.1715498,12.75 19.125,12.75 C21.0784502,12.75 22.6666667,11.1617835 22.6666667,9.20833333 C22.6666667,7.25488317 21.0784502,5.66666667 19.125,5.66666667 Z M25.5,5.66666667 L25.5,12.75 L66.5833333,12.75 L66.5833333,5.66666667 L25.5,5.66666667 Z M28.3333333,8.5 L63.75,8.5 L63.75,9.91666667 L28.3333333,9.91666667 L28.3333333,8.5 Z M36.8333333,27.7578125 L35.8151042,28.7317708 L24.5260417,40.0208333 C23.9615892,40.5852872 23.9615892,41.4928393 24.5260417,42.0572917 C25.0904955,42.6217455 25.9980476,42.6217455 26.5625,42.0572917 L35.4166667,33.203125 L35.4166667,51 C35.4166667,56.6666667 33.8118497,60.0478519 31.34375,62.15625 C28.8756517,64.2646481 25.3505856,65.1666667 21.25,65.1666667 L15.5833333,65.1666667 C15.0742187,65.1611332 14.598308,65.4267582 14.3382165,65.8694665 C14.0836585,66.3121748 14.0836585,66.8544918 14.3382165,67.2972002 C14.598308,67.7399085 15.0742187,68.0055335 15.5833333,68.0000848 L21.25,68.0000848 C25.754558,68.0000848 30.0266934,67.0371101 33.203125,64.3255208 C36.379558,61.613933 38.25,57.2255856 38.25,51 L38.25,33.203125 L47.1041667,42.0572917 C47.6686205,42.6217455 48.5761726,42.6217455 49.140625,42.0572917 C49.7050788,41.4928393 49.7050788,40.5852872 49.140625,40.0208333 L37.8515625,28.7317708 L36.8333333,27.7578125 Z" id="Shape"></path>
            </g>
        </g>
    </g>
</svg>