<?xml version="1.0" encoding="UTF-8"?>
<svg width="60px" height="67px" viewBox="0 0 60 67" version="1.1" xmlns="http://www.w3.org/2000/svg" xmlns:xlink="http://www.w3.org/1999/xlink">
    <title>icon-his-report</title>
    <g id="Page-1" stroke="none" stroke-width="1" fill="none" fill-rule="evenodd">
        <g id="Features" transform="translate(-1597.000000, -1191.000000)">
            <g id="icon-his-report" transform="translate(1597.000000, 1191.000000)">
                <g id="icons8-graph_report" fill-rule="nonzero">
                    <path d="M30.7758621,5.68965517 L39.8275862,5.68965517 C42.6724138,5.68965517 45,8.01724138 45,10.862069 L45,53.2758621 C45,56.1206897 42.6724138,58.4482759 39.8275862,58.4482759 L6.72413793,58.4482759 C3.87931034,58.4482759 1.55172414,56.1206897 1.55172414,53.2758621 L1.55172414,10.862069 C1.55172414,8.01724138 3.87931034,5.68965517 6.72413793,5.68965517 L10.0862069,5.68965517" id="Path" fill="#FFFFFF"></path>
                    <path d="M48.1034483,28.9655172 C47.2241379,28.9655172 46.5517241,28.2931034 46.5517241,27.4137931 L46.5517241,22.2413793 C46.5517241,21.362069 47.2241379,20.6896552 48.1034483,20.6896552 C48.9827586,20.6896552 49.6551724,21.362069 49.6551724,22.2413793 L49.6551724,27.4137931 C49.6551724,28.2931034 48.9827586,28.9655172 48.1034483,28.9655172 Z" id="Path" fill="#000000"></path>
                    <path d="M32.5862069,49.6551724 C32.1724138,49.6551724 31.7586207,49.5 31.5,49.1896552 L17.4827586,35.1724138 L13.2931034,43.137931 C12.8793103,43.9137931 11.9482759,44.1724138 11.1724138,43.8103448 C10.3965517,43.3965517 10.137931,42.4655172 10.5,41.6896552 L15.6724138,31.862069 C15.8793103,31.4482759 16.3448276,31.137931 16.8103448,31.0344828 C17.2758621,30.9827586 17.7931034,31.137931 18.1551724,31.4482759 L32.2758621,45.5689655 L44.1206897,25.862069 C43.5,25.9137931 42.8793103,25.6034483 42.5689655,25.0344828 C42.2068966,24.2586207 42.5172414,23.3275862 43.2413793,22.9655172 L47.3793103,20.8965517 C48,20.5862069 48.7241379,20.7413793 49.1896552,21.2068966 C49.6551724,21.7241379 49.7586207,22.4482759 49.3965517,23.0689655 L33.8793103,48.9310345 C33.6206897,49.3448276 33.2068966,49.6034483 32.7413793,49.6551724 C32.6896552,49.6551724 32.637931,49.6551724 32.5862069,49.6551724 Z M8.79310345,49.6551724 C8.37931034,49.6551724 7.96551724,49.5 7.70689655,49.1896552 C7.39655172,48.8793103 7.24137931,48.5172414 7.24137931,48.1034483 C7.24137931,47.6896552 7.39655172,47.2758621 7.70689655,47.0172414 C8.27586207,46.4482759 9.31034483,46.4482759 9.87931034,47.0172414 C10.1896552,47.3275862 10.3448276,47.6896552 10.3448276,48.1034483 C10.3448276,48.5172414 10.1896552,48.9310345 9.87931034,49.1896552 C9.62068966,49.5 9.20689655,49.6551724 8.79310345,49.6551724 Z" id="Shape" fill="#000000"></path>
                    <path d="M42.4137931,60 L6.72413793,60 C3,60 0,57 0,53.2758621 L0,10.862069 C0,7.13793103 3,4.13793103 6.72413793,4.13793103 L10.0862069,4.13793103 C10.9655172,4.13793103 11.637931,4.81034483 11.637931,5.68965517 C11.637931,6.56896552 10.9655172,7.24137931 10.0862069,7.24137931 L6.72413793,7.24137931 C4.70689655,7.24137931 3.10344828,8.84482759 3.10344828,10.862069 L3.10344828,53.2758621 C3.10344828,55.2931034 4.70689655,56.8965517 6.72413793,56.8965517 L42.4137931,56.8965517 C42.9827586,56.8965517 43.4482759,56.4310345 43.4482759,55.862069 L43.9655172,40.2931034 C44.0172414,39.4137931 44.7413793,38.7413793 45.5689655,38.7931034 C46.4482759,38.8448276 47.1206897,39.5172414 47.0689655,40.3965517 L46.5517241,55.9137931 C46.5517241,58.137931 44.6896552,60 42.4137931,60 Z" id="Path" fill="#000000"></path>
                    <path d="M27.4137931,9.05172414 L19.137931,9.05172414 C17.1206897,9.05172414 15.5172414,7.44827586 15.5172414,5.43103448 L15.5172414,5.43103448 C15.5172414,3.4137931 17.1206897,1.81034483 19.137931,1.81034483 L27.4137931,1.81034483 C29.4310345,1.81034483 31.0344828,3.4137931 31.0344828,5.43103448 L31.0344828,5.43103448 C31.0344828,7.44827586 29.4310345,9.05172414 27.4137931,9.05172414 Z" id="Path" fill="#FFFFFF"></path>
                    <path d="M39.8275862,4.13793103 L32.4310345,4.13793103 C31.862069,1.9137931 29.8448276,0.25862069 27.4137931,0.25862069 L19.137931,0.25862069 C16.2931034,0.25862069 13.9655172,2.5862069 13.9655172,5.43103448 C13.9655172,8.27586207 16.2931034,10.6034483 19.137931,10.6034483 L27.4137931,10.6034483 C29.637931,10.6034483 31.5,9.20689655 32.2758621,7.24137931 L39.8275862,7.24137931 C41.8448276,7.24137931 43.4482759,8.84482759 43.4482759,10.862069 L43.4482759,14.4827586 C43.4482759,15.362069 44.1206897,16.0344828 45,16.0344828 C45.8793103,16.0344828 46.5517241,15.362069 46.5517241,14.4827586 L46.5517241,10.862069 C46.5517241,7.13793103 43.5517241,4.13793103 39.8275862,4.13793103 Z M27.4137931,7.5 L19.137931,7.5 C18,7.5 17.0689655,6.56896552 17.0689655,5.43103448 C17.0689655,4.29310345 18,3.36206897 19.137931,3.36206897 L27.4137931,3.36206897 C28.5517241,3.36206897 29.4827586,4.29310345 29.4827586,5.43103448 C29.4827586,6.56896552 28.5517241,7.5 27.4137931,7.5 Z" id="Shape" fill="#000000"></path>
                </g>
                <g id="Group-4" transform="translate(40.533333, 47.000000)">
                    <ellipse id="Oval" fill="#FFFFFF" cx="8.96666667" cy="10.5" rx="8.5" ry="8"></ellipse>
                    <path d="M7.75238095,0 L7.75238095,1.30434783 L8.60952381,1.30434783 L8.60952381,1.78158965 C4.04537352,2.22062452 0.466666667,6.12557478 0.466666667,10.8695652 C0.466666667,15.9070152 4.50118024,20 9.46666667,20 C14.4321531,20 18.4666667,15.9070152 18.4666667,10.8695652 C18.4666667,6.12557478 14.8879598,2.22062452 10.3238095,1.78158965 L10.3238095,1.30434783 L11.1809524,1.30434783 L11.1809524,0 L7.75238095,0 Z M15.9965215,1.3680367 L15.1368677,2.24014948 L17.1148251,4.24677304 L17.974479,3.37466035 L15.9965215,1.3680367 Z M9.46666667,2.60869565 C13.9689188,2.60869565 17.6095238,6.30206304 17.6095238,10.8695652 C17.6095238,15.4370674 13.9689188,19.1304348 9.46666667,19.1304348 C4.96441452,19.1304348 1.32380952,15.4370674 1.32380952,10.8695652 C1.32380952,6.30206304 4.96441452,2.60869565 9.46666667,2.60869565 Z M5.17676695,6.08271043 C5.00237135,6.08271043 4.84539171,6.18999553 4.77976805,6.35391497 C4.7141444,6.5178344 4.75296278,6.70574744 4.8779391,6.82914391 L8.63965752,10.6453804 C8.62003172,10.7184584 8.60990142,10.7938245 8.60952381,10.8695652 C8.60952381,11.3498128 8.99327974,11.7391304 9.46666667,11.7391304 C9.54156884,11.7390983 9.61614376,11.7291061 9.68848581,11.7094091 L10.4493677,12.4813178 C10.5568605,12.5949008 10.7164821,12.6406551 10.8666715,12.6009347 C11.016861,12.5612143 11.1341494,12.4422261 11.1733023,12.28986 C11.2124552,12.1374939 11.1673546,11.9755589 11.0553942,11.8665083 L10.2936758,11.09375 C10.3133016,11.020672 10.3234319,10.945306 10.3238095,10.8695652 C10.3238095,10.3893176 9.9400536,10 9.46666667,10 C9.39176449,10.0000322 9.31718958,10.0100244 9.24484752,10.0297213 L5.48396567,6.21433435 C5.40327809,6.13018956 5.29248203,6.08271043 5.17676695,6.08271043 Z" id="Shape" fill="#000000" fill-rule="nonzero"></path>
                </g>
            </g>
        </g>
    </g>
</svg>