<?xml version="1.0" encoding="UTF-8"?>
<svg width="66px" height="66px" viewBox="0 0 66 66" version="1.1" xmlns="http://www.w3.org/2000/svg" xmlns:xlink="http://www.w3.org/1999/xlink">
    <title>icon-power-reports</title>
    <g id="Page-1" stroke="none" stroke-width="1" fill="none" fill-rule="evenodd">
        <g id="Features" transform="translate(-186.000000, -1198.000000)" fill="#000000" fill-rule="nonzero">
            <g id="icon-power-reports" transform="translate(186.000000, 1198.000000)">
                <path d="M1.57142857,0 C0.680952381,0 0,0.680952381 0,1.57142857 L0,6.80952381 C0,7.7 0.680952381,8.38095238 1.57142857,8.38095238 C2.46190476,8.38095238 3.14285714,7.7 3.14285714,6.80952381 L3.14285714,1.57142857 C3.14285714,0.680952381 2.46190476,0 1.57142857,0 Z M47.1428571,1.57142857 C44.5238095,1.57142857 42.4285714,3.66666667 42.4285714,6.28571429 C42.4285714,7.07142857 42.6380952,7.80435281 42.952381,8.48530519 L34.3095238,17.8617 C33.7333333,17.5997952 33.1047619,17.4954429 32.4761905,17.4954429 C31.3238095,17.4954429 30.2757814,17.9142857 29.4376861,18.5952381 L22.9432662,14.7188428 C22.9956472,14.4045571 23.047619,14.143062 23.047619,13.8287762 C23.047619,11.2097286 20.952381,9.11449052 18.3333333,9.11449052 C15.7142857,9.11449052 13.6190476,11.2097286 13.6190476,13.8287762 C13.6190476,16.4478239 15.7142857,18.543062 18.3333333,18.543062 C19.4857143,18.543062 20.5337424,18.1242186 21.3718377,17.4432662 L27.8662576,21.3186385 C27.8138766,21.6329242 27.7619048,21.8954429 27.7619048,22.2097286 C27.7619048,24.8287762 29.8571429,26.9240143 32.4761905,26.9240143 C35.0952381,26.9240143 37.1904762,24.8287762 37.1904762,22.2097286 C37.1904762,21.4240143 36.9809524,20.6900671 36.6666667,20.0091147 L45.3095238,10.6337424 C45.8857143,10.8956472 46.5142857,11 47.1428571,11 C49.1857143,11 50.9142857,9.69047619 51.5952381,7.85714286 L64.4285714,7.85714286 C65.3190476,7.85714286 66,7.17619048 66,6.28571429 C66,5.3952381 65.3190476,4.71428571 64.4285714,4.71428571 L51.5952381,4.71428571 C50.9666667,2.88095238 49.1857143,1.57142857 47.1428571,1.57142857 Z M47.1428571,4.71428571 C48.0333333,4.71428571 48.7142857,5.3952381 48.7142857,6.28571429 C48.7142857,7.17619048 48.0333333,7.85714286 47.1428571,7.85714286 C46.252381,7.85714286 45.5714286,7.17619048 45.5714286,6.28571429 C45.5714286,5.3952381 46.252381,4.71428571 47.1428571,4.71428571 Z M18.3333333,12.205171 C19.2238095,12.205171 19.9047619,12.8861234 19.9047619,13.7765996 C19.9047619,14.6670758 19.2238095,15.3480281 18.3333333,15.3480281 C17.4428571,15.3480281 16.7619048,14.6670758 16.7619048,13.7765996 C16.7619048,12.8861234 17.4428571,12.205171 18.3333333,12.205171 Z M1.57142857,15.7142857 C0.680952381,15.7142857 0,16.3952381 0,17.2857143 L0,64.4285714 C0,65.3190476 0.680952381,66 1.57142857,66 L64.4285714,66 C65.3190476,66 66,65.3190476 66,64.4285714 C66,63.5380952 65.3190476,62.8571429 64.4285714,62.8571429 L3.14285714,62.8571429 L3.14285714,17.2857143 C3.14285714,16.3952381 2.46190476,15.7142857 1.57142857,15.7142857 Z M32.4761905,20.5861234 C33.3666667,20.5861234 34.047619,21.2670758 34.047619,22.157552 C34.047619,23.0480281 33.3666667,23.7289805 32.4761905,23.7289805 C31.5857143,23.7289805 30.9047619,23.0480281 30.9047619,22.157552 C30.9047619,21.2670758 31.5857143,20.5861234 32.4761905,20.5861234 Z M43.4761905,23.5714286 C42.5857143,23.5714286 41.9047619,24.252381 41.9047619,25.1428571 L41.9047619,56.5714286 C41.9047619,57.4619048 42.5857143,58.1428571 43.4761905,58.1428571 L50.8095238,58.1428571 C51.7,58.1428571 52.3809524,57.4619048 52.3809524,56.5714286 L52.3809524,25.1428571 C52.3809524,24.252381 51.7,23.5714286 50.8095238,23.5714286 L43.4761905,23.5714286 Z M45.047619,26.7142857 L49.2380952,26.7142857 L49.2380952,55 L45.047619,55 L45.047619,26.7142857 Z M14.6666667,31.4285714 C13.7761905,31.4285714 13.0952381,32.1095238 13.0952381,33 L13.0952381,56.5714286 C13.0952381,57.4619048 13.7761905,58.1428571 14.6666667,58.1428571 L22,58.1428571 C22.8904762,58.1428571 23.5714286,57.4619048 23.5714286,56.5714286 L23.5714286,33 C23.5714286,32.1095238 22.8904762,31.4285714 22,31.4285714 L14.6666667,31.4285714 Z M16.2380952,34.5714286 L20.4285714,34.5714286 L20.4285714,55 L16.2380952,55 L16.2380952,34.5714286 Z M28.8095238,39.2857143 C27.9190476,39.2857143 27.2380952,39.9666667 27.2380952,40.8571429 L27.2380952,56.5714286 C27.2380952,57.4619048 27.9190476,58.1428571 28.8095238,58.1428571 L36.1428571,58.1428571 C37.0333333,58.1428571 37.7142857,57.4619048 37.7142857,56.5714286 L37.7142857,40.8571429 C37.7142857,39.9666667 37.0333333,39.2857143 36.1428571,39.2857143 L28.8095238,39.2857143 Z M30.3809524,42.4285714 L34.5714286,42.4285714 L34.5714286,55 L30.3809524,55 L30.3809524,42.4285714 Z" id="Shape"></path>
            </g>
        </g>
    </g>
</svg>