<?xml version="1.0" encoding="UTF-8"?>
<svg width="66px" height="54px" viewBox="0 0 66 54" version="1.1" xmlns="http://www.w3.org/2000/svg" xmlns:xlink="http://www.w3.org/1999/xlink">
    <title>icon-realtime</title>
    <g id="Page-1" stroke="none" stroke-width="1" fill="none" fill-rule="evenodd">
        <g id="Features" transform="translate(-1179.000000, -962.000000)" fill-rule="nonzero">
            <g id="icon-realtime" transform="translate(1179.000000, 962.000000)">
                <path d="M4.08016304,0 C1.821501,0 0,1.87623426 0,4.10773026 L0,52.5789474 C0,53.3616362 0.644531609,54 1.43478261,54 L64.5652174,54 C65.3554684,54 66,53.3616362 66,52.5789474 L66,4.10773026 C66,1.87623426 64.178499,0 61.919837,0 L4.08016304,0 Z" id="Path" fill="#000000"></path>
                <path d="M4.08016304,2.84210526 L61.919837,2.84210526 C62.586787,2.84210526 63.1304348,3.375 63.1304348,4.10773026 L63.1304348,17.0526316 L2.86956522,17.0526316 L2.86956522,4.10773026 C2.86956522,3.375 3.41321296,2.84210526 4.08016304,2.84210526 Z" id="Path" fill="#FFFFFF"></path>
                <polygon id="Path" fill="#000000" points="24.3913043 5.68421053 24.3913043 14.2105263 58.826087 14.2105263 58.826087 5.68421053"></polygon>
                <path d="M8.60869565,7.10526316 C7.02258796,7.10526316 5.73913043,8.37643879 5.73913043,9.94736842 C5.73913043,11.5182981 7.02258796,12.7894737 8.60869565,12.7894737 C10.1948033,12.7894737 11.4782609,11.5182981 11.4782609,9.94736842 C11.4782609,8.37643879 10.1948033,7.10526316 8.60869565,7.10526316 Z" id="Path" fill="#000000"></path>
                <path d="M17.2173913,7.10526316 C15.6312836,7.10526316 14.3478261,8.37643879 14.3478261,9.94736842 C14.3478261,11.5182981 15.6312836,12.7894737 17.2173913,12.7894737 C18.803499,12.7894737 20.0869565,11.5182981 20.0869565,9.94736842 C20.0869565,8.37643879 18.803499,7.10526316 17.2173913,7.10526316 Z" id="Path" fill="#000000"></path>
                <polygon id="Path" fill="#FBF9FF" points="27.2608696 8.52631579 55.9565217 8.52631579 55.9565217 11.3684211 27.2608696 11.3684211"></polygon>
                <polygon id="Path" fill="#FFFFFF" points="2.86956522 19.8947368 63.1304348 19.8947368 63.1304348 51.1578947 2.86956522 51.1578947"></polygon>
                <g id="icons8-eye" transform="translate(9.000000, 28.000000)" fill="#000000">
                    <path d="M13.8461538,0 C6.1545975,0 0.144230769,7.12139423 0.144230769,7.12139423 C-0.0450721154,7.33774038 -0.0450721154,7.66225962 0.144230769,7.87860577 C0.144230769,7.87860577 6.1545975,15 13.8461538,15 C21.5377102,15 27.5480769,7.87860577 27.5480769,7.87860577 C27.7373798,7.66225962 27.7373798,7.33774038 27.5480769,7.12139423 C27.5480769,7.12139423 21.5377102,0 13.8461538,0 Z M13.8461538,1.15384615 C15.3628304,1.15384615 16.811899,1.4670975 18.1550481,1.94711538 C19.0564904,2.96574519 19.6153846,4.29762635 19.6153846,5.76923077 C19.6153846,8.96259 17.0395131,11.5384615 13.8461538,11.5384615 C10.6527946,11.5384615 8.07692308,8.96259 8.07692308,5.76923077 C8.07692308,4.29762635 8.61778846,2.96574519 9.51923077,1.94711538 C10.8668873,1.46484404 12.3249698,1.15384615 13.8461538,1.15384615 Z M7.60817308,2.79447115 C7.17548077,3.69591346 6.92307692,4.70552885 6.92307692,5.76923077 C6.92307692,9.58683923 10.028546,12.6923077 13.8461538,12.6923077 C17.6637623,12.6923077 20.7692308,9.58683923 20.7692308,5.76923077 C20.7692308,4.71003635 20.5280948,3.69591346 20.1021635,2.79447115 C23.3608777,4.45087154 25.7046277,6.853215 26.3040865,7.5 C25.3665865,8.51412288 20.1765323,13.8461538 13.8461538,13.8461538 C7.51577538,13.8461538 2.32572115,8.51412288 1.38822115,7.5 C1.98768058,6.85096154 4.34269846,4.45087154 7.60817308,2.79447115 Z M13.8461538,2.88461538 C12.2528544,2.88461538 10.9615385,4.17593135 10.9615385,5.76923077 C10.9615385,7.36253019 12.2528544,8.65384615 13.8461538,8.65384615 C15.4394533,8.65384615 16.7307692,7.36253019 16.7307692,5.76923077 C16.7307692,4.17593135 15.4394533,2.88461538 13.8461538,2.88461538 Z" id="Shape"></path>
                </g>
                <polygon id="Path" fill="#000000" points="43.0434783 24.1578947 43.0434783 46.8947368 58.826087 46.8947368 58.826087 24.1578947"></polygon>
                <polygon id="Path" fill="#FBF9FF" points="45.9130435 27 55.9565217 27 55.9565217 44.0526316 45.9130435 44.0526316"></polygon>
            </g>
        </g>
    </g>
</svg>