<?xml version="1.0" encoding="UTF-8"?>
<svg width="71px" height="63px" viewBox="0 0 71 63" version="1.1" xmlns="http://www.w3.org/2000/svg" xmlns:xlink="http://www.w3.org/1999/xlink">
    <title>icon-auto-time</title>
    <g id="Page-1" stroke="none" stroke-width="1" fill="none" fill-rule="evenodd">
        <g id="Features" transform="translate(-1426.000000, -1197.000000)">
            <g id="icon-auto-time" transform="translate(1426.000000, 1197.000000)">
                <path d="M1.46511628,0 C0.656372093,0 0,0.654906977 0,1.46511628 L0,51.2790698 C0,52.0892791 0.656372093,52.744186 1.46511628,52.744186 L36.0927967,52.744186 C35.7865874,51.799186 35.5670485,50.8175581 35.4117462,49.8139535 L2.93023256,49.8139535 L2.93023256,2.93023256 L64.4651163,2.93023256 L64.4651163,30.8504275 C65.5170698,31.524381 66.4986977,32.2967478 67.3953488,33.1597013 L67.3953488,1.46511628 C67.3953488,0.654906977 66.7389767,0 65.9302326,0 L1.46511628,0 Z" id="Path" fill="#000000" fill-rule="nonzero"></path>
                <g id="Group-4" transform="translate(18.000000, 8.000000)">
                    <ellipse id="Oval" fill="#FFFFFF" cx="17" cy="18.7" rx="13.6" ry="13.0333333"></ellipse>
                    <path d="M12.5652174,0 L12.5652174,2.2173913 L14.0434783,2.2173913 L14.0434783,3.02870241 C6.1719727,3.77506169 -1.07706436e-12,10.4134771 -1.07706436e-12,18.4782609 C-1.07706436e-12,27.0419259 6.95807413,34 15.5217391,34 C24.0854041,34 31.0434783,27.0419259 31.0434783,18.4782609 C31.0434783,10.4134771 24.8715056,3.77506169 17,3.02870241 L17,2.2173913 L18.4782609,2.2173913 L18.4782609,0 L12.5652174,0 Z M26.7833729,2.32566238 L25.3007814,3.80825411 L28.7120413,7.21951417 L30.1946328,5.73692259 L26.7833729,2.32566238 Z M15.5217391,4.43478261 C23.2864928,4.43478261 29.5652174,10.7135072 29.5652174,18.4782609 C29.5652174,26.2430146 23.2864928,32.5217391 15.5217391,32.5217391 C7.75698543,32.5217391 1.47826087,26.2430146 1.47826087,18.4782609 C1.47826087,10.7135072 7.75698543,4.43478261 15.5217391,4.43478261 Z M8.12321643,10.3406077 C7.82244721,10.3406077 7.5517142,10.5229924 7.43853717,10.8016554 C7.32536014,11.0803185 7.39230779,11.3997707 7.60784665,11.6095447 L14.095448,18.0971467 C14.0616006,18.2213793 14.0441295,18.3495016 14.0434783,18.4782609 C14.0434783,19.2946818 14.7053182,19.9565217 15.5217391,19.9565217 C15.6509182,19.9564671 15.779533,19.9394803 15.9042968,19.9059955 L17.2165423,21.2182403 C17.4019285,21.4113313 17.6772179,21.4891136 17.9362403,21.421589 C18.1952627,21.3540644 18.3975426,21.1517844 18.4650673,20.892762 C18.5325919,20.6337396 18.4548096,20.3584502 18.2617186,20.173064 L16.9480303,18.859375 C16.9818777,18.7351425 16.9993488,18.6070201 17,18.4782609 C17,17.6618399 16.3381601,17 15.5217391,17 C15.39256,17.0000547 15.2639453,17.0170414 15.1391815,17.0505262 L8.65302291,10.5643684 C8.51386607,10.4213223 8.32278303,10.3406077 8.12321643,10.3406077 Z" id="Shape" fill="#000000" fill-rule="nonzero"></path>
                </g>
                <path d="M51.2790698,30.7674419 L50.4005729,35.4546697 C49.961038,35.6011813 49.3749915,35.7482643 48.9354566,36.0412876 L44.9779255,33.2569953 L40.5825767,37.6523441 L43.2209302,41.3151348 C43.0744186,41.9011813 42.7808225,42.3430047 42.6343109,42.9290512 L38.0930233,43.6616094 L38.0930233,49.8139535 L42.6343109,50.5465116 C42.7808225,50.9860465 42.927907,51.572093 43.2209302,52.0116279 L40.5825767,55.9662976 L44.9779255,60.3616464 L48.9354566,57.7261543 C49.5215031,58.0191775 49.9604651,58.1662605 50.5465116,58.3127722 L51.2790698,63 L57.2854737,63 L58.163972,58.4587124 C58.6035069,58.3122008 59.0430418,58.1651163 59.6290883,57.872093 L63.5866194,60.5104466 L67.9819682,56.1150977 L65.1976744,52.3035069 C65.4906977,51.7174604 65.6377822,51.1319853 65.7842938,50.6924504 L70.3255814,49.8139535 L70.3255814,43.6616094 L65.6383536,42.9290512 C65.4918419,42.4895163 65.3447589,41.9034698 65.0517357,41.463935 L67.6872278,37.5064039 L63.4406791,33.2569953 L59.6290883,36.0412876 C59.1895534,35.7482643 58.6035069,35.6011813 58.163972,35.4546697 L57.4314139,30.7674419 L51.2790698,30.7674419 Z" id="Path" fill="#000000" fill-rule="nonzero"></path>
                <path d="M53.7686232,33.6976744 L54.9418605,33.6976744 L55.5284798,37.6523441 L56.4069767,37.9470845 C57.2860465,38.2401077 58.163972,38.5319853 58.8965302,38.9715202 L59.7778884,39.5581395 L63.1459388,37.0685861 L63.8784969,37.8011443 L61.5348837,41.1691946 L61.9755629,41.9017527 C62.4150977,42.7808225 62.7069767,43.661038 63,44.5401077 L63.291879,45.4186047 L67.3953488,46.005224 L67.3953488,47.1755999 L63.4406791,48.0569582 L63.1459388,48.9354566 C62.8529155,49.8145263 62.561038,50.6924504 62.1215031,51.4250085 L61.5348837,52.3035069 L64.0244371,55.6744186 L63.1459388,56.5529155 L59.7778884,54.2093023 L59.0453303,54.6499815 C58.1662605,55.0895163 57.2860465,55.3813953 56.4069767,55.6744186 L55.5284798,55.9662976 L54.7959217,60.0697674 L53.622683,60.0697674 L53.036065,56.1150977 L52.1575667,55.8203574 C51.2784969,55.5273341 50.4005729,55.2354566 49.6680147,54.7959217 L48.7895163,54.2093023 L45.2726659,56.5529155 L44.3941675,55.6744186 L46.7377822,52.3035069 L46.2971016,51.5709488 C45.8575667,50.691879 45.5656891,49.6680147 45.2726659,48.9354566 L44.9779255,48.0569582 L41.0232558,47.3244001 L41.0232558,46.1511628 L45.1267257,45.4186047 L45.2726659,44.3941675 C45.4191775,43.6616094 45.7116279,42.7802511 46.1511628,42.047693 L46.7377822,41.3151348 L44.3941675,37.9470845 L45.2726659,37.0685861 L48.6407162,39.4122008 L49.3732743,39.1174604 C50.3988557,38.6779255 51.2784969,38.2401077 52.1575667,37.9470845 L53.036065,37.8011443 L53.7686232,33.6976744 Z" id="Path" fill="#FFFFFF" fill-rule="nonzero"></path>
                <path d="M54.2093023,40.877317 C50.9860465,40.877317 48.3488372,43.5145263 48.3488372,46.7377822 C48.3488372,49.961038 50.9860465,52.5982473 54.2093023,52.5982473 C57.4325581,52.5982473 60.0697674,50.1075496 60.0697674,46.7377822 C60.0697674,43.5145263 57.4325581,40.877317 54.2093023,40.877317 Z" id="Path" fill="#000000" fill-rule="nonzero"></path>
                <path d="M54.2093023,43.9534884 C55.8209302,43.9534884 57.1395349,45.1255814 57.1395349,46.8837209 C57.1395349,48.4953488 55.8209302,49.8139535 54.2093023,49.8139535 C52.5976744,49.8139535 51.2790698,48.4953488 51.2790698,46.8837209 C51.2790698,45.272093 52.5976744,43.9534884 54.2093023,43.9534884 Z" id="Path" fill="#FFFFFF" fill-rule="nonzero"></path>
            </g>
        </g>
    </g>
</svg>