<?xml version="1.0" encoding="UTF-8"?>
<svg width="73px" height="68px" viewBox="0 0 73 68" version="1.1" xmlns="http://www.w3.org/2000/svg" xmlns:xlink="http://www.w3.org/1999/xlink">
    <title>icon-desk-app</title>
    <g id="Page-1" stroke="none" stroke-width="1" fill="none" fill-rule="evenodd">
        <g id="Features" transform="translate(-182.000000, -1357.000000)" fill="#000000" fill-rule="nonzero">
            <g id="icon-desk-app" transform="translate(182.000000, 1357.000000)">
                <path d="M3.02222222,0 C1.36,0 0,1.36 0,3.02222222 L0,46.8444444 C0,48.5066667 1.36,49.8666667 3.02222222,49.8666667 L25.6888889,49.8666667 L25.6888889,54.4 L21.1555556,54.4 C18.6622222,54.4 16.6222222,56.44 16.6222222,58.9333333 L16.6222222,61.9555556 L41.7060758,61.9555556 C41.1469647,61.0035556 40.6933956,59.9911111 40.330729,58.9333333 L19.6444444,58.9333333 C19.6444444,58.1022222 20.3244444,57.4222222 21.1555556,57.4222222 L39.8644092,57.4222222 C39.6075203,56.4551111 39.4385841,55.4426667 39.3479159,54.4 L28.7111111,54.4 L28.7111111,49.8666667 L39.5456599,49.8666667 C39.7118821,48.824 39.9680623,47.8115556 40.330729,46.8444444 L3.02222222,46.8444444 L3.02222222,40.8 L43.898958,40.8 C44.9416246,39.6515556 46.102702,38.624 47.4022575,37.7777778 L3.02222222,37.7777778 L3.02222222,3.02222222 L66.4888889,3.02222222 L66.4888889,37.1727425 C66.8213333,37.3691869 67.1396111,37.5662222 67.4569444,37.7777778 C67.6533889,37.8986667 67.8186667,38.0195556 68,38.1555556 C68.5288889,38.5333333 69.0275556,38.9274024 69.5111111,39.3656246 L69.5111111,3.02222222 C69.5111111,1.36 68.1511111,0 66.4888889,0 L3.02222222,0 Z M57.4222222,37.7777778 C49.0944798,37.7777778 42.3111111,44.5611525 42.3111111,52.8888889 C42.3111111,61.2166252 49.0944798,68 57.4222222,68 C65.7499646,68 72.5333333,61.2166252 72.5333333,52.8888889 C72.5333333,44.5611525 65.7499646,37.7777778 57.4222222,37.7777778 Z M57.4222222,40.8 C64.1166348,40.8 69.5111111,46.1944808 69.5111111,52.8888889 C69.5111111,59.583297 64.1166348,64.9777778 57.4222222,64.9777778 C50.7278096,64.9777778 45.3333333,59.583297 45.3333333,52.8888889 C45.3333333,46.1944808 50.7278096,40.8 57.4222222,40.8 Z" id="Shape"></path>
                <g id="Group-5" transform="translate(48.123077, 42.892308)">
                    <path d="M8.74519231,0.00259024114 C8.69453545,0.00837651806 8.64567692,0.0236932565 8.59807692,0.0495855642 C8.40872308,0.152108641 8.32744948,0.38505781 8.41009563,0.586965503 C9.02104948,2.04739627 11.1610231,7.10049929 12.9625,10.4743454 L14.6461538,9.5630471 C12.9336,6.19757018 9.96705083,1.50967319 9.13954314,0.19465781 C9.05245083,0.0557808873 8.89716289,-0.0147696358 8.74519231,0.00259024114 Z" id="Path"></path>
                    <path d="M8.44483212,3.14718119 C8.01118462,3.09319024 7.56758295,3.29635646 7.3353368,3.69886415 L7.33124948,3.70703775 L9.27235551,4.82674876 L9.27644283,4.82061935 C9.58505822,4.28498858 9.40032942,3.59882569 8.8657448,3.2902103 C8.73157557,3.21279492 8.58938025,3.16517923 8.44483212,3.14718119 Z" id="Path"></path>
                    <polygon id="Path" points="7.16778794 3.98492236 6.15841372 5.7298735 8.09951975 6.8516287 9.10889397 5.10667652"></polygon>
                    <polygon id="Path" points="6.02764449 5.96280698 1.9125 13.0917732 3.85360603 14.2114842 7.96875052 7.08456113"></polygon>
                    <polygon id="Path" points="0 8.36977787 0 11.5082394 2.22920634 11.5082394 4.0375 8.36977787"></polygon>
                    <path d="M7.82572142,8.36977787 L6.01538462,11.5082394 L13.1300478,11.5082394 L12.5844953,10.6704993 C12.2078799,9.95911467 11.8109953,9.17531633 11.4239184,8.36977787 L7.82572142,8.36977787 Z" id="Path"></path>
                    <path d="M14.4888217,8.36977787 C14.6771294,8.72547018 14.8649475,9.07094575 15.0323321,9.40571498 L15.8905047,11.5082394 L18.8307692,11.5082394 L18.8307692,8.36977787 L14.4888217,8.36977787 Z" id="Path"></path>
                    <polygon id="Path" points="14.7646632 9.78985012 13.0830525 10.7011485 14.3396632 12.6790331 15.6718753 11.9577592"></polygon>
                    <path d="M15.7576923,12.2887685 L14.5623799,12.9364842 L15.8537261,16.1076381 C16.0807415,16.6641919 16.729291,16.9009177 17.2513217,16.6184561 C17.7743986,16.3359946 17.9455107,15.6555856 17.6191107,15.1534317 L15.7576923,12.2887685 Z" id="Path"></path>
                    <polygon id="Path" points="1.76742775 13.3410518 1.04615385 16.6470611 1.20552911 16.7390086 3.71057692 14.4607638"></polygon>
                </g>
            </g>
        </g>
    </g>
</svg>