<?xml version="1.0" encoding="UTF-8"?>
<svg width="39px" height="67px" viewBox="0 0 39 67" version="1.1" xmlns="http://www.w3.org/2000/svg" xmlns:xlink="http://www.w3.org/1999/xlink">
    <title>icon-sealth</title>
    <g id="Page-1" stroke="none" stroke-width="1" fill="none" fill-rule="evenodd">
        <g id="Features" transform="translate(-1686.000000, -962.000000)" fill="#000000" fill-rule="nonzero">
            <g id="icon-sealth" transform="translate(1686.000000, 962.000000)">
                <path d="M18.6521739,0 C14.7065217,0 11.4782609,3.22826087 11.4782609,7.17391304 C11.4782609,11.1195652 14.7065217,14.3478261 18.6521739,14.3478261 C22.5978261,14.3478261 25.826087,11.1195652 25.826087,7.17391304 C25.826087,3.22826087 22.5978261,0 18.6521739,0 Z M18.6521739,2.86956522 C21.0453468,2.86956522 22.9565217,4.78074013 22.9565217,7.17391304 C22.9565217,9.56708596 21.0453468,11.4782609 18.6521739,11.4782609 C16.259001,11.4782609 14.3478261,9.56708596 14.3478261,7.17391304 C14.3478261,4.78074013 16.259001,2.86956522 18.6521739,2.86956522 Z M34.3451087,5.69429348 C34.2834575,5.70550343 34.2218078,5.72231622 34.1657609,5.73913043 C33.745414,5.81759583 33.3867184,6.08101187 33.1793478,6.45652174 L29.9959239,12.0163043 L29.4578804,11.7024457 C29.1720445,11.5343078 28.841373,11.4726566 28.5163043,11.5230978 C27.9222154,11.6239817 27.4570316,12.0835598 27.3505435,12.6720445 C27.2384511,13.2661349 27.5074728,13.8602238 28.0230978,14.1684783 L28.5611413,14.482337 L27.5747283,16.2309783 C27.249661,16.1244901 26.9245924,16.0628404 26.5883152,16.0067935 C26.3585262,15.8610741 26.0951087,15.7826087 25.826087,15.7826087 L11.4782609,15.7826087 C11.4334239,15.7826087 11.388587,15.7826087 11.34375,15.7826087 C11.1531937,15.8050272 10.9738458,15.8666783 10.8057065,15.9619565 C10.7888923,15.9787707 10.7776838,15.9899793 10.7608696,16.0067935 C9.41576087,16.2309783 8.08746639,16.819463 7.17391304,17.9796196 C7.14028604,18.0244565 7.11226187,18.0692935 7.08423913,18.1141304 L2.24184783,26.1399457 C1.74303704,26.9638251 1.38994565,27.8773784 1.25543478,28.830163 L0.0448369565,37.5285326 C-0.235393304,39.473336 1.14894665,41.2836284 3.09375,41.5638587 C5.03855335,41.8440904 6.84884583,40.459749 7.12907609,38.5149457 L8.11548913,31.6997283 L10.6263587,27.7092391 L10.8505435,31.5203804 L10.8505435,31.6100543 L7.21875,61.1576087 C6.89368278,63.7861749 9.05706522,66.1401151 11.7024457,66 C13.6864817,65.8935119 15.3846803,64.419498 15.7377717,62.4578804 C15.7377717,62.4298577 15.7377717,62.3962293 15.7377717,62.3682065 L17.8899457,44.4782609 L19.4144022,44.4782609 L21.5665761,62.3682065 C21.5665761,62.3962293 21.5665761,62.4298577 21.5665761,62.4578804 C21.9196675,64.419498 23.6122619,65.8935119 25.6019022,66 C28.2472826,66.1401151 30.4106665,63.7861749 30.0855978,61.1576087 L26.4538043,31.6100543 L26.4538043,31.5203804 L26.6779891,27.7092391 L29.1888587,31.6997283 L30.1752717,38.5149457 C30.4555034,40.459749 32.2657945,41.8440904 34.2105978,41.5638587 C36.1554012,41.2836284 37.5341369,39.473336 37.2595109,37.5285326 L36.048913,28.830163 C35.9144022,27.8773784 35.5613108,26.9638251 35.0625,26.1399457 L30.2201087,18.1141304 C30.192086,18.0692935 30.1640632,18.0244565 30.1304348,17.9796196 C30.0912021,17.9291783 30.0351566,17.8955499 29.9959239,17.8451087 L31.0720109,15.9619565 L31.6100543,16.2758152 C32.0528197,16.6008839 32.6413043,16.6457208 33.1289066,16.3935119 C33.6165089,16.1357001 33.9135533,15.6256793 33.8967391,15.0764273 C33.8799249,14.5215697 33.5492534,14.0339674 33.044837,13.8097826 L32.5067935,13.4959239 L35.6902174,7.89130435 C35.9816576,7.43172626 35.9872619,6.84324013 35.7014273,6.37245209 C35.4155914,5.90726974 34.8887564,5.64385226 34.3451087,5.69429348 Z M17.2173913,5.73913043 C16.4271403,5.73913043 15.7826087,6.38366204 15.7826087,7.17391304 C15.7826087,7.96416404 16.4271403,8.60869565 17.2173913,8.60869565 L20.0869565,8.60869565 C20.8772075,8.60869565 21.5217391,7.96416404 21.5217391,7.17391304 C21.5217391,6.38366204 20.8772075,5.73913043 20.0869565,5.73913043 L17.2173913,5.73913043 Z M11.5679348,18.6521739 L25.736413,18.6521739 C26.5210598,18.6914066 27.2664738,19.0557065 27.798913,19.6834239 L32.5964674,27.6195652 C32.8935119,28.1127717 33.0952782,28.6620252 33.1793478,29.2336957 L34.4347826,37.9320652 C34.4908295,38.3412021 34.2162021,38.683085 33.8070652,38.7391304 C33.3979283,38.8007816 33.0616512,38.5205499 33,38.111413 L31.96875,30.982337 C31.9519358,30.7749664 31.890286,30.5788043 31.7894022,30.3994565 L26.7228261,22.3288043 C26.3921532,21.8019708 25.7588315,21.5497619 25.1535326,21.7066912 C24.553838,21.8580163 24.1166783,22.3792456 24.0774457,23.0013587 L23.5842391,31.6100543 C23.5786349,31.682914 23.5786349,31.7613794 23.5842391,31.8342391 L23.8980978,34.4347826 L13.40625,34.4347826 L13.7201087,31.8342391 C13.725713,31.7613794 13.725713,31.682914 13.7201087,31.6100543 L13.2269022,23.0013587 C13.1876695,22.3792456 12.7505099,21.8580163 12.1508152,21.7066912 C11.5455163,21.5497619 10.9121947,21.8019708 10.5815217,22.3288043 L5.51494565,30.3994565 C5.41406322,30.5788043 5.35241204,30.7749664 5.33559783,30.982337 L4.30434783,38.111413 C4.24269665,38.5205499 3.90641948,38.8007816 3.49728261,38.7391304 C3.08814574,38.6774793 2.80791404,38.3412021 2.86956522,37.9320652 L4.125,29.2336957 C4.20906965,28.6620252 4.41083596,28.1127717 4.70788043,27.6195652 L9.50543478,19.6834239 C10.037874,19.0557065 10.783288,18.6914066 11.5679348,18.6521739 Z M13.0475543,37.3043478 L24.2567935,37.3043478 L27.2608696,61.5163043 C27.372962,62.4298577 26.6555707,63.180876 25.736413,63.1304348 C25.0862772,63.0968078 24.5818621,62.6372283 24.4361413,62.0095109 L22.1494565,42.8641304 C22.0597826,42.1411349 21.4432752,41.6030914 20.7146739,41.6086957 L16.5896739,41.6086957 C15.8610741,41.6030914 15.2445652,42.1411349 15.1548913,42.8641304 L12.8682065,62.0095109 C12.7224871,62.6372283 12.2180707,63.0968078 11.5679348,63.1304348 C10.6487772,63.180876 9.93138587,62.4298577 10.0434783,61.5163043 L13.0475543,37.3043478 Z" id="Shape"></path>
            </g>
        </g>
    </g>
</svg>