<?xml version="1.0" encoding="UTF-8"?>
<svg width="59px" height="66px" viewBox="0 0 59 66" version="1.1" xmlns="http://www.w3.org/2000/svg" xmlns:xlink="http://www.w3.org/1999/xlink">
    <title>icon-private-sec</title>
    <g id="Page-1" stroke="none" stroke-width="1" fill="none" fill-rule="evenodd">
        <g id="Features" transform="translate(-918.000000, -1197.000000)" fill="#000000" fill-rule="nonzero">
            <g id="icon-private-sec" transform="translate(918.000000, 1197.000000)">
                <path d="M29.04,0 C25.801875,0 23.0690632,1.78921908 19.01625,3.8775 C14.9634382,5.96578092 9.52359408,8.48718816 1.03125,10.35375 L0,10.60125 L0,11.6325 C0,31.8553132 7.08984408,45.3698441 14.19,53.74875 C21.2901559,62.1276559 28.50375,65.46375 28.50375,65.46375 L29.08125,65.7525 L29.65875,65.46375 C29.65875,65.46375 58.08,50.77875 58.08,11.6325 L58.08,10.60125 L57.04875,10.35375 C48.5564059,8.48718816 43.1165632,5.96578092 39.06375,3.8775 C35.0109382,1.78921908 32.278125,0 29.04,0 Z M29.04,2.64 C31.2107809,2.64 33.7270309,4.09921908 37.8675,6.22875 C41.8017191,8.25 47.334375,10.7301559 55.3575,12.6225 C54.8728132,48.4171882 30.6951559,61.8440632 28.99875,62.74125 C28.1789059,62.3442191 22.4657809,59.4876559 16.17,52.0575 C9.53390592,44.2251559 2.96484408,31.6284382 2.7225,12.6225 C10.745625,10.7301559 16.2782809,8.25 20.2125,6.22875 C24.3529691,4.09921908 26.8692191,2.64 29.04,2.64 Z M29.04,15.84 C21.0375,15.84 14.52,22.3575 14.52,30.36 C14.52,38.3625 21.0375,44.88 29.04,44.88 C37.0425,44.88 43.56,38.3625 43.56,30.36 C43.56,22.3575 37.0425,15.84 29.04,15.84 Z M29.04,18.48 C35.6142191,18.48 40.92,23.7857809 40.92,30.36 C40.92,33.8817191 39.3834382,37.0167191 36.96,39.1875 C34.9335941,38.053125 32.3451559,37.6973441 31.7625,36.135 C31.68,35.248125 31.72125,34.6345309 31.72125,33.825 C32.1234382,33.6135941 32.835,32.278125 32.95875,31.14375 C33.2732809,31.1179691 33.763125,30.834375 33.9075,29.6175 C33.9848441,28.9626559 33.6857809,28.5810941 33.495,28.4625 C34.010625,26.915625 35.0676559,22.15125 31.515,21.65625 C31.1489059,21.0117191 30.215625,20.66625 28.99875,20.66625 C24.13125,20.7539059 23.5176559,24.3529691 24.585,28.4625 C24.3942191,28.5810941 24.0951559,28.9214059 24.1725,29.57625 C24.316875,30.793125 24.8067191,31.1179691 25.12125,31.14375 C25.245,32.278125 25.9978132,33.6135941 26.4,33.825 C26.4,34.6345309 26.44125,35.248125 26.35875,36.135 C25.7760941,37.7025 23.1567191,38.0840632 21.12,39.22875 C18.68625,37.0579691 17.16,33.8920309 17.16,30.36 C17.16,23.7857809 22.4657809,18.48 29.04,18.48 Z" id="Shape"></path>
            </g>
        </g>
    </g>
</svg>