<?xml version="1.0" encoding="UTF-8"?>
<svg width="83px" height="67px" viewBox="0 0 83 67" version="1.1" xmlns="http://www.w3.org/2000/svg" xmlns:xlink="http://www.w3.org/1999/xlink">
    <title>icon-live-att</title>
    <g id="Page-1" stroke="none" stroke-width="1" fill="none" fill-rule="evenodd">
        <g id="Features" transform="translate(-670.000000, -1197.000000)" fill-rule="nonzero">
            <g id="icon-live-att" transform="translate(670.000000, 1197.000000)">
                <polygon id="Path" fill="#FFFFFF" points="21.4123711 37.2989691 57.3298969 37.2989691 71.1443299 64.9278351 7.59793814 64.9278351"></polygon>
                <path d="M67.7597938,67 L64.2371134,67 C63.0628866,67 62.1649485,66.1020619 62.1649485,64.9278351 C62.1649485,63.7536082 63.0628866,62.8556701 64.2371134,62.8556701 L67.7597938,62.8556701 L64.3752577,56.1556701 C63.8917526,55.1195876 64.3061856,53.8762887 65.2731959,53.3927835 C66.3092784,52.9092784 67.5525773,53.3237113 68.0360825,54.2907216 L71.4206186,60.9907216 C72.042268,62.3030928 71.9731959,63.8226804 71.2134021,64.9969072 C70.5226804,66.2402062 69.2103093,67 67.7597938,67 Z M10.7061856,60.2309278 C10.3608247,60.2309278 10.0845361,60.1618557 9.73917526,60.0237113 C8.70309278,59.471134 8.28865979,58.2278351 8.84123711,57.2608247 L10.3608247,54.2907216 C10.9134021,53.2546392 12.156701,52.8402062 13.1237113,53.3927835 C14.1597938,53.9453608 14.5742268,55.1886598 14.0216495,56.1556701 L12.5020619,59.1257732 C12.2257732,59.8164948 11.4659794,60.2309278 10.7061856,60.2309278 Z" id="Shape" fill="#202020"></path>
                <path d="M16.2319588,64.9278351 L2.41752577,64.9278351 C2.41752577,61.128866 5.5257732,58.0206186 9.32474227,58.0206186 C13.1237113,58.0206186 16.2319588,61.128866 16.2319588,64.9278351 Z" id="Path" fill="#FFFFFF"></path>
                <path d="M2.41752577,67 C1.24329897,67 0.345360825,66.1020619 0.345360825,64.9278351 C0.345360825,59.9546392 4.35154639,55.9484536 9.32474227,55.9484536 C9.94639175,55.9484536 10.5680412,56.0175258 11.1206186,56.1556701 C12.2257732,56.3628866 12.985567,57.4680412 12.7092784,58.5731959 C12.5020619,59.6783505 11.3969072,60.4381443 10.2917526,60.1618557 C9.94639175,60.0927835 9.67010309,60.0927835 9.32474227,60.0927835 C6.63092784,60.0927835 4.48969072,62.2340206 4.48969072,64.9278351 C4.48969072,66.1020619 3.59175258,67 2.41752577,67 Z M53.4618557,39.371134 L19.8927835,39.371134 C18.7185567,39.371134 17.8206186,38.4731959 17.8206186,37.2989691 C17.8206186,36.1247423 18.7185567,35.2268041 19.8927835,35.2268041 L53.4618557,35.2268041 C54.6360825,35.2268041 55.5340206,36.1247423 55.5340206,37.2989691 C55.5340206,38.4731959 54.5670103,39.371134 53.4618557,39.371134 Z" id="Shape" fill="#202020"></path>
                <path d="M39.371134,2.07216495 C31.7416334,2.07216495 25.556701,8.25709727 25.556701,15.8865979 C25.556701,23.5160986 31.7416334,29.7010309 39.371134,29.7010309 C47.0006347,29.7010309 53.185567,23.5160986 53.185567,15.8865979 C53.185567,8.25709727 47.0006347,2.07216495 39.371134,2.07216495 Z" id="Path" fill="#FFFFFF"></path>
                <path d="M39.371134,31.7731959 C30.5989691,31.7731959 23.4845361,24.6587629 23.4845361,15.8865979 C23.4845361,7.11443299 30.5989691,0 39.371134,0 C48.143299,0 55.257732,7.11443299 55.257732,15.8865979 C55.257732,24.6587629 48.143299,31.7731959 39.371134,31.7731959 Z M39.371134,4.1443299 C32.8783505,4.1443299 27.628866,9.39381443 27.628866,15.8865979 C27.628866,22.3793814 32.8783505,27.628866 39.371134,27.628866 C45.8639175,27.628866 51.1134021,22.3793814 51.1134021,15.8865979 C51.1134021,9.39381443 45.8639175,4.1443299 39.371134,4.1443299 Z" id="Shape" fill="#202020"></path>
                <polygon id="Path" fill="#000000" points="2.5 6 7.5 13.5 5.32907052e-15 13.5 15 26 10.908203 18.5 17.5 18.5 10 6"></polygon>
                <polygon id="Path" fill="#000000" points="70 6 62.5 18.5 69.0917975 18.5 65 26 80 13.5 72.5 13.5 77.5 6"></polygon>
                <path d="M20.7216495,64.9278351 L16.3010309,39.7164948 C16.0938144,38.4731959 17.0608247,37.2989691 18.3731959,37.2989691 L60.4381443,37.2989691 C61.7505155,37.2989691 62.7175258,38.4731959 62.5103093,39.7164948 L58.0206186,64.9278351 L20.7216495,64.9278351 Z" id="Path" fill="#FBF9FF"></path>
                <path d="M39.371134,47.6597938 C37.4637589,47.6597938 35.9175258,49.2060269 35.9175258,51.1134021 C35.9175258,53.0207772 37.4637589,54.5670103 39.371134,54.5670103 C41.2785092,54.5670103 42.8247423,53.0207772 42.8247423,51.1134021 C42.8247423,49.2060269 41.2785092,47.6597938 39.371134,47.6597938 Z" id="Path" fill="#6D7278"></path>
                <path d="M20.7216495,67 C19.7546392,67 18.856701,66.3092784 18.6494845,65.2731959 L14.2979381,40.0618557 C14.0907216,38.8185567 14.4360825,37.6443299 15.1958763,36.6773196 C15.9556701,35.7103093 17.1298969,35.2268041 18.3731959,35.2268041 L60.4381443,35.2268041 C61.6814433,35.2268041 62.8556701,35.7793814 63.6154639,36.6773196 C64.3752577,37.6443299 64.7206186,38.8185567 64.5134021,40.0618557 L60.0927835,65.2731959 C59.885567,66.3783505 58.8494845,67.1381443 57.6752577,66.9309278 C56.5701031,66.7237113 55.8103093,65.6876289 56.0175258,64.5134021 L60.3690722,39.371134 L18.3731959,39.371134 L22.7938144,64.5824742 C23.0010309,65.6876289 22.2412371,66.7927835 21.1360825,67 C20.928866,67 20.8597938,67 20.7216495,67 Z" id="Path" fill="#202020"></path>
                <path d="M64.2371134,67 L14.1597938,67 C12.985567,67 12.0876289,66.1020619 12.0876289,64.9278351 C12.0876289,63.7536082 12.985567,62.8556701 14.1597938,62.8556701 L64.2371134,62.8556701 C65.4113402,62.8556701 66.3092784,63.7536082 66.3092784,64.9278351 C66.3092784,66.1020619 65.4113402,67 64.2371134,67 Z M80.814433,67 C80.2618557,67 79.7092784,66.7927835 79.3639175,66.3783505 C79.2948454,66.3092784 79.156701,66.171134 79.0876289,66.0329897 C79.0185567,65.8948454 78.9494845,65.8257732 78.8804124,65.6876289 C78.8113402,65.5494845 78.8113402,65.4113402 78.742268,65.2731959 C78.742268,65.1350515 78.6731959,64.9969072 78.6731959,64.8587629 C78.6731959,64.3061856 78.8804124,63.7536082 79.2948454,63.4082474 C80.0546392,62.6484536 81.4360825,62.6484536 82.1958763,63.4082474 C82.6103093,63.8226804 82.8175258,64.3061856 82.8175258,64.8587629 C82.8175258,65.4113402 82.6103093,65.9639175 82.1958763,66.3092784 C81.9195876,66.7927835 81.3670103,67 80.814433,67 Z" id="Shape" fill="#202020"></path>
            </g>
        </g>
    </g>
</svg>