<?xml version="1.0" encoding="UTF-8"?>
<svg width="67px" height="68px" viewBox="0 0 67 68" version="1.1" xmlns="http://www.w3.org/2000/svg" xmlns:xlink="http://www.w3.org/1999/xlink">
    <title>icon-apps-used</title>
    <g id="Page-1" stroke="none" stroke-width="1" fill="none" fill-rule="evenodd">
        <g id="Features" transform="translate(-388.000000, -1357.000000)" fill="#000000" fill-rule="nonzero">
            <g id="icon-apps-used" transform="translate(388.000000, 1357.000000)">
                <path d="M34.0261604,-0.000296138353 C33.8403394,-0.00445546662 33.6567734,0.0414360113 33.4949104,0.132812448 C27.6562182,3.41739873 21.8185212,6.70045933 15.9797589,9.98508497 C15.1226096,10.4668032 14.2665576,10.9502121 13.4100379,11.4319364 C13.3953932,11.4401737 13.3804115,11.4478484 13.3657668,11.4560847 C13.3590228,11.459365 13.3523147,11.4627188 13.3456439,11.4661456 C13.1933373,11.5517998 13.0411368,11.6381361 12.8888498,11.7237213 C8.76745739,14.0418496 4.64644515,16.360323 0.525213042,18.6782668 C0.201345625,18.8609365 0.0010153731,19.2039265 0.0010153731,19.5757576 C0.0010153731,19.9475886 0.201345625,20.2905786 0.525213042,20.4732484 C4.2674523,22.5786314 8.00975091,24.6829955 11.7518939,26.7878788 C8.00966024,28.892927 4.26740388,30.9977526 0.525213042,33.1025092 C0.201345625,33.2851789 0.0010153731,33.6281689 0.0010153731,34 C0.0010153731,34.3718311 0.201345625,34.7148211 0.525213042,34.8974908 C4.2674523,37.0028738 8.00975091,39.1072379 11.7518939,41.2121212 C8.00966024,43.3171694 4.26740388,45.421995 0.525213042,47.5267516 C0.201345625,47.7094214 0.0010153731,48.0524114 0.0010153731,48.4242424 C0.0010153731,48.7960735 0.201345625,49.1390635 0.525213042,49.3217332 C5.65586394,52.2082374 10.786907,55.0922977 15.9173772,57.9786937 C15.9383335,57.9904793 15.9588025,58.0031181 15.9797589,58.014915 C21.8185212,61.2995407 27.6562182,64.5826013 33.4949104,67.8671878 C33.8127086,68.0462636 34.201503,68.0439673 34.5171637,67.8611502 C39.9910122,64.6833824 45.4657613,61.5036128 50.9396304,58.3248106 C50.9608407,58.3134686 50.9816474,58.3013874 51.0020122,58.2885893 C56.1534387,55.2966408 61.3050425,52.3066653 66.4565576,49.3156956 C66.7744849,49.1313963 66.970197,48.7917257 66.970197,48.4242424 C66.970197,48.0567591 66.7744849,47.7170885 66.4565576,47.5327892 C62.8277387,45.4262852 59.1989753,43.3189755 55.5699575,41.2121212 C59.1988074,39.1051577 62.8277026,36.9983673 66.4565576,34.8914532 C66.7744849,34.7071539 66.970197,34.3674833 66.970197,34 C66.970197,33.6325167 66.7744849,33.2928461 66.4565576,33.1085468 C62.8277387,31.0020428 59.1989753,28.8947331 55.5699575,26.7878788 C59.1988074,24.6809153 62.8277026,22.5741248 66.4565576,20.4672108 C66.7744849,20.2829115 66.970197,19.9432409 66.970197,19.5757576 C66.970197,19.2082743 66.7744849,18.8686037 66.4565576,18.6843044 C62.3460926,16.2982081 58.2359233,13.9108125 54.1251182,11.524503 C54.1183533,11.5205755 54.1117604,11.5163564 54.1049954,11.5124288 C54.1009839,11.5103903 54.0969591,11.5083781 54.0929213,11.5063923 C54.0734145,11.495059 54.0540706,11.4835155 54.0345639,11.4721832 C54.0325564,11.4708343 54.0305442,11.4694925 54.0285273,11.4681578 C53.0401968,10.8939699 52.0519095,10.3213398 51.0643939,9.74763309 C51.0440292,9.73483459 51.0232225,9.72275307 51.0020122,9.71141073 C45.5074412,6.52161315 40.0117213,3.32966945 34.5171637,0.138849406 C34.3677253,0.0521331276 34.1988807,0.00438604575 34.0261604,-0.000296138353 Z M33.9919513,2.21756655 C39.2961408,5.29780067 44.6011773,8.37684376 49.905303,11.4560847 C49.9256678,11.4688828 49.9464745,11.480964 49.9676848,11.492306 C50.9560339,12.0665361 51.9442851,12.6391384 52.9318182,13.2128317 C52.9331559,13.2141769 52.9344974,13.2155183 52.9358425,13.2168561 C52.9568368,13.2303766 52.9783156,13.2431296 53.0002365,13.2550896 C56.6290565,15.3615936 60.2579455,17.4689033 63.8868366,19.5757576 C60.3054476,21.6551193 56.722473,23.7358729 53.1410985,25.8159332 C53.0352146,25.8558725 52.9366331,25.9129816 52.8493136,25.9849667 C51.9154201,26.5273718 50.9820872,27.0705115 50.0481772,27.6129259 C49.9335376,27.6640179 49.8291968,27.7356243 49.7402938,27.8242184 C49.3850056,28.1676314 49.3235171,28.7149128 49.5937426,29.128604 C49.8639682,29.5422952 50.3898244,29.7059195 50.8470639,29.5185847 C50.9451876,29.483728 51.0374608,29.4341989 51.1207392,29.3716851 C51.9197598,28.9076191 52.7183713,28.4431502 53.5174002,27.9791667 C56.973903,29.9857076 60.4302719,31.9931953 63.8868366,34 C60.2765961,36.0961134 56.6668088,38.1936641 53.0565817,40.2904832 C53.0219715,40.3080257 52.9883796,40.3275089 52.9559664,40.3488396 C51.986749,40.9117611 51.0174111,41.4742375 50.0481772,42.0371683 C49.9335376,42.0882603 49.8291968,42.1598667 49.7402938,42.2484608 C49.3850056,42.5918739 49.3235171,43.1391552 49.5937426,43.5528464 C49.8639682,43.9665376 50.3898244,44.1301619 50.8470639,43.9428271 C50.9451876,43.9079704 51.0374608,43.8584413 51.1207392,43.7959275 C51.9197598,43.3318615 52.7183713,42.8673927 53.5174002,42.4034091 C56.973903,44.40995 60.4302719,46.4174378 63.8868366,48.4242424 C59.2678768,51.1060202 54.6490984,53.7887459 50.0300665,56.4714727 C50.009275,56.4835478 49.9884763,56.4956085 49.9676848,56.507694 C44.642851,59.5999868 39.3168541,62.6911081 33.9919513,65.7824335 C28.3454219,62.6059752 22.6988327,59.4326264 17.0523198,56.2561548 C17.031955,56.2433566 17.0111484,56.2312755 16.9899381,56.2199335 C12.3702478,53.6208982 7.75070388,51.0230283 3.13115479,48.4242424 C6.7051977,46.4138719 10.2789088,44.4035168 13.8527457,42.3933472 C14.5254666,42.7717723 15.1983771,43.1498224 15.8710939,43.5282908 C15.9517739,43.5871004 16.0405727,43.6338722 16.1347062,43.6671396 C16.5737444,43.8389515 17.073392,43.690872 17.3479162,43.3075832 C17.6224404,42.9242943 17.6018094,42.403574 17.2978215,42.0432059 C17.190995,41.9118836 17.0534588,41.8089039 16.8973725,41.7433712 C16.0979439,41.2936151 15.2981187,40.8448202 14.4986983,40.3951228 C14.4170417,40.330838 14.3261298,40.2792763 14.2290484,40.2421878 C10.5297825,38.1612641 6.83034758,36.0810277 3.13115479,34 C6.7051977,31.9896295 10.2789088,29.9792744 13.8527457,27.9691047 C14.5254666,28.3475299 15.1983771,28.72558 15.8710939,29.1040484 C15.9517739,29.162858 16.0405727,29.2096298 16.1347062,29.2428972 C16.5737444,29.4147091 17.073392,29.2666296 17.3479162,28.8833408 C17.6224404,28.5000519 17.6018094,27.9793316 17.2978215,27.6189635 C17.190995,27.4876412 17.0534588,27.3846614 16.8973725,27.3191288 C16.0979439,26.8693727 15.2981187,26.4205778 14.4986983,25.9708804 C14.4170417,25.9065956 14.3261298,25.8550338 14.2290484,25.8179453 C10.5297825,23.7370217 6.83034758,21.6567853 3.13115479,19.5757576 C6.68873139,17.5746484 10.2450696,15.5719382 13.8024381,13.5710227 C13.8187661,13.5627333 13.8348703,13.55401 13.8507335,13.5448623 C13.864587,13.5370712 13.879139,13.5305195 13.8929924,13.5227273 C13.8950093,13.5213929 13.8970215,13.5200514 13.899029,13.5187029 C14.0514932,13.4330178 14.2033795,13.3467835 14.3558241,13.2611272 C15.2340039,12.7676903 16.1124197,12.2752446 16.9899381,11.7820787 C17.0035352,11.7743359 17.0169543,11.7662844 17.0301848,11.7579305 C22.6843116,8.57717485 28.337811,5.39830673 33.9919513,2.21756655 Z M19.9882816,29.2086881 L19.1632335,29.6212121 L19.0002365,30.530776 L19.6300896,31.2049002 L19.9882816,31.2692941 L20.8133287,30.8547589 L20.9763258,29.9472062 L20.3444605,29.273082 L19.9882816,29.2086881 Z M47.1886835,29.4340668 L46.3616242,29.8465909 L46.2006393,30.7561548 L46.8304924,31.430279 L47.1886835,31.4946729 L48.0137305,31.0801377 L48.1767286,30.172585 L47.5448623,29.4984608 L47.1886835,29.4340668 Z M23.4917138,31.1787408 L22.6646545,31.593276 L22.5036696,32.5008287 L23.1335227,33.1749529 L23.4917138,33.2393468 L24.3167608,32.8268228 L24.4797589,31.9172589 L23.8478926,31.2431347 L23.4917138,31.1787408 Z M43.8905062,31.3477744 L43.0654592,31.7623106 L42.9024621,32.6698623 L43.5343274,33.3439865 L43.8905062,33.4083804 L44.7155544,32.9958574 L44.8785514,32.0862925 L44.2486983,31.4121683 L43.8905062,31.3477744 Z M26.9931347,33.1487925 L26.1680876,33.5633287 L26.0050896,34.4708804 L26.6369559,35.1470168 L26.9931347,35.2093985 L27.820194,34.7968755 L27.9811788,33.8873106 L27.3513258,33.2131864 L26.9931347,33.1487925 Z M40.5943422,33.2614819 L39.7692941,33.6760181 L39.6062971,34.585582 L40.2361502,35.2597062 L40.5943422,35.3220879 L41.4193893,34.9095639 L41.5823864,34 L40.9505211,33.3258758 L40.5943422,33.2614819 Z M30.4965668,35.1208574 L29.6715198,35.5333804 L29.5085227,36.4429453 L30.140388,37.1170695 L30.4965668,37.1814635 L31.321615,36.7669272 L31.484612,35.8573623 L30.8547589,35.1832392 L30.4965668,35.1208574 Z M37.296165,35.1772016 L36.4711179,35.5897256 L36.3081199,36.4992895 L36.9399862,37.1734137 L37.296165,37.2378076 L38.1232243,36.8232714 L38.2842092,35.9157197 L37.6543561,35.2415955 L37.296165,35.1772016 Z M34,37.0909091 C33.6284357,37.0856542 33.2828253,37.2808715 33.0955096,37.6018084 C32.908194,37.9227453 32.908194,38.319679 33.0955096,38.6406159 C33.2828253,38.9615527 33.6284357,39.15677 34,39.1515152 C34.3715643,39.15677 34.7171747,38.9615527 34.9044904,38.6406159 C35.091806,38.319679 35.091806,37.9227453 34.9044904,37.6018084 C34.7171747,37.2808715 34.3715643,37.0856542 34,37.0909091 L34,37.0909091 Z M19.9882816,43.6329305 L19.1632335,44.0454545 L19.0002365,44.9550184 L19.6300896,45.6291426 L19.9882816,45.6935365 L20.8133287,45.2790013 L20.9763258,44.3714486 L20.3444605,43.6973244 L19.9882816,43.6329305 Z M47.1886835,43.8583093 L46.3616242,44.2708333 L46.2006393,45.1803972 L46.8304924,45.8545214 L47.1886835,45.9189153 L48.0137305,45.5043801 L48.1767286,44.5968274 L47.5448623,43.9227032 L47.1886835,43.8583093 Z M23.4917138,45.6029832 L22.6646545,46.0175184 L22.5036696,46.9250712 L23.1335227,47.5991953 L23.4917138,47.6635893 L24.3167608,47.2510652 L24.4797589,46.3415013 L23.8478926,45.6673772 L23.4917138,45.6029832 Z M43.8905062,45.7720168 L43.0654592,46.186553 L42.9024621,47.0941047 L43.5343274,47.7682289 L43.8905062,47.8326228 L44.7155544,47.4200998 L44.8785514,46.5105349 L44.2486983,45.8364107 L43.8905062,45.7720168 Z M26.9931347,47.5730349 L26.1680876,47.9875712 L26.0050896,48.8951228 L26.6369559,49.5712592 L26.9931347,49.633641 L27.820194,49.2211179 L27.9811788,48.311553 L27.3513258,47.6374288 L26.9931347,47.5730349 Z M40.5943422,47.6857243 L39.7692941,48.1002605 L39.6062971,49.0098244 L40.2361502,49.6839486 L40.5943422,49.7463304 L41.4193893,49.3338063 L41.5823864,48.4242424 L40.9505211,47.7501182 L40.5943422,47.6857243 Z M30.4965668,49.5450998 L29.6715198,49.9576228 L29.5085227,50.8671878 L30.140388,51.5413119 L30.4965668,51.6057059 L31.321615,51.1911696 L31.484612,50.2816047 L30.8547589,49.6074816 L30.4965668,49.5450998 Z M37.296165,49.601444 L36.4711179,50.0139681 L36.3081199,50.9235319 L36.9399862,51.5976561 L37.296165,51.6620501 L38.1232243,51.2475138 L38.2842092,50.3399621 L37.6543561,49.6658379 L37.296165,49.601444 Z M34,51.5151515 C33.6284357,51.5098967 33.2828253,51.7051139 33.0955096,52.0260508 C32.908194,52.3469877 32.908194,52.7439214 33.0955096,53.0648583 C33.2828253,53.3857951 33.6284357,53.5810124 34,53.5757576 C34.3715643,53.5810124 34.7171747,53.3857951 34.9044904,53.0648583 C35.091806,52.7439214 35.091806,52.3469877 34.9044904,52.0260508 C34.7171747,51.7051139 34.3715643,51.5098967 34,51.5151515 Z" id="Shape"></path>
                <g id="Group-5" transform="translate(24.000000, 8.000000)">
                    <path d="M8.74519231,0.00259024114 C8.69453545,0.00837651806 8.64567692,0.0236932565 8.59807692,0.0495855642 C8.40872308,0.152108641 8.32744948,0.38505781 8.41009563,0.586965503 C9.02104948,2.04739627 11.1610231,7.10049929 12.9625,10.4743454 L14.6461538,9.5630471 C12.9336,6.19757018 9.96705083,1.50967319 9.13954314,0.19465781 C9.05245083,0.0557808873 8.89716289,-0.0147696358 8.74519231,0.00259024114 Z" id="Path"></path>
                    <path d="M8.44483212,3.14718119 C8.01118462,3.09319024 7.56758295,3.29635646 7.3353368,3.69886415 L7.33124948,3.70703775 L9.27235551,4.82674876 L9.27644283,4.82061935 C9.58505822,4.28498858 9.40032942,3.59882569 8.8657448,3.2902103 C8.73157557,3.21279492 8.58938025,3.16517923 8.44483212,3.14718119 Z" id="Path"></path>
                    <polygon id="Path" points="7.16778794 3.98492236 6.15841372 5.7298735 8.09951975 6.8516287 9.10889397 5.10667652"></polygon>
                    <polygon id="Path" points="6.02764449 5.96280698 1.9125 13.0917732 3.85360603 14.2114842 7.96875052 7.08456113"></polygon>
                    <polygon id="Path" points="0 8.36977787 0 11.5082394 2.22920634 11.5082394 4.0375 8.36977787"></polygon>
                    <path d="M7.82572142,8.36977787 L6.01538462,11.5082394 L13.1300478,11.5082394 L12.5844953,10.6704993 C12.2078799,9.95911467 11.8109953,9.17531633 11.4239184,8.36977787 L7.82572142,8.36977787 Z" id="Path"></path>
                    <path d="M14.4888217,8.36977787 C14.6771294,8.72547018 14.8649475,9.07094575 15.0323321,9.40571498 L15.8905047,11.5082394 L18.8307692,11.5082394 L18.8307692,8.36977787 L14.4888217,8.36977787 Z" id="Path"></path>
                    <polygon id="Path" points="14.7646632 9.78985012 13.0830525 10.7011485 14.3396632 12.6790331 15.6718753 11.9577592"></polygon>
                    <path d="M15.7576923,12.2887685 L14.5623799,12.9364842 L15.8537261,16.1076381 C16.0807415,16.6641919 16.729291,16.9009177 17.2513217,16.6184561 C17.7743986,16.3359946 17.9455107,15.6555856 17.6191107,15.1534317 L15.7576923,12.2887685 Z" id="Path"></path>
                    <polygon id="Path" points="1.76742775 13.3410518 1.04615385 16.6470611 1.20552911 16.7390086 3.71057692 14.4607638"></polygon>
                </g>
            </g>
        </g>
    </g>
</svg>