<?xml version="1.0" encoding="UTF-8"?>
<svg width="14px" height="17px" viewBox="0 0 14 17" version="1.1" xmlns="http://www.w3.org/2000/svg" xmlns:xlink="http://www.w3.org/1999/xlink">
    <title>icon-date</title>
    <g id="Page-1" stroke="none" stroke-width="1" fill="none" fill-rule="evenodd">
        <g id="Blog-design-1" transform="translate(-352.000000, -785.000000)" fill="#6236FF" fill-rule="nonzero">
            <g id="Group-8" transform="translate(0.000000, 132.000000)">
                <g id="Group-12" transform="translate(152.000000, 65.000000)">
                    <g id="Group-9" transform="translate(29.000000, 460.974359)">
                        <g id="Group-7" transform="translate(171.000000, 112.275641)">
                            <g id="icons8-calendar" transform="translate(0.000000, 15.239316)">
                                <path d="M2.91666667,0 C2.59765625,0 2.33333333,0.301316829 2.33333333,0.664975071 L2.33333333,1.32995014 L0.583333333,1.32995014 C0.430664208,1.32995014 0.275716292,1.39359025 0.166341292,1.51957211 C0.05582675,1.64425493 0,1.82088894 0,1.99492521 L0,15.2944266 C0,15.4684632 0.05582675,15.6450973 0.166341292,15.7710788 C0.275716292,15.8957616 0.430664208,15.9594017 0.583333333,15.9594017 L12.8333333,15.9594017 C12.9860027,15.9594017 13.1409507,15.8957616 13.2514649,15.7710788 C13.3608399,15.6450973 13.4166667,15.4684632 13.4166667,15.2944266 L13.4166667,1.99492521 C13.4166667,1.82088894 13.3608399,1.64425493 13.2514649,1.51957211 C13.1409507,1.39359025 12.9860027,1.32995014 12.8333333,1.32995014 L11.0833333,1.32995014 L11.0833333,0.664975071 C11.0833333,0.301316829 10.8190104,0 10.5,0 L9.91666667,0 C9.59765625,0 9.33333333,0.301316829 9.33333333,0.664975071 L9.33333333,1.32995014 L4.08333333,1.32995014 L4.08333333,0.664975071 C4.08333333,0.301316829 3.81901042,0 3.5,0 L2.91666667,0 Z M2.91666667,0.664975071 L3.5,0.664975071 L3.5,2.65990028 L2.91666667,2.65990028 L2.91666667,0.664975071 Z M9.91666667,0.664975071 L10.5,0.664975071 L10.5,2.65990028 L9.91666667,2.65990028 L9.91666667,0.664975071 Z M0.583333333,1.99492521 L2.33333333,1.99492521 L2.33333333,2.65990028 C2.33333333,3.02355853 2.59765625,3.32487536 2.91666667,3.32487536 L3.5,3.32487536 C3.81901042,3.32487536 4.08333333,3.02355853 4.08333333,2.65990028 L4.08333333,1.99492521 L9.33333333,1.99492521 L9.33333333,2.65990028 C9.33333333,3.02355853 9.59765625,3.32487536 9.91666667,3.32487536 L10.5,3.32487536 C10.8190104,3.32487536 11.0833333,3.02355853 11.0833333,2.65990028 L11.0833333,1.99492521 L12.8333333,1.99492521 L12.8333333,4.32233796 L0.583333333,4.32233796 L0.583333333,1.99492521 Z M0.583333333,4.98731303 L12.8333333,4.98731303 L12.8333333,15.2944266 L0.583333333,15.2944266 L0.583333333,4.98731303 Z M2.33333333,6.31726318 L2.33333333,13.9644765 L11.0833333,13.9644765 L11.0833333,6.31726318 L2.33333333,6.31726318 Z M2.91666667,6.98223825 L4.375,6.98223825 L4.375,8.64467593 L2.91666667,8.64467593 L2.91666667,6.98223825 Z M4.95833333,6.98223825 L6.41666667,6.98223825 L6.41666667,8.64467593 L4.95833333,8.64467593 L4.95833333,6.98223825 Z M7,6.98223825 L8.45833333,6.98223825 L8.45833333,8.64467593 L7,8.64467593 L7,6.98223825 Z M9.04166667,6.98223825 L10.5,6.98223825 L10.5,8.64467593 L9.04166667,8.64467593 L9.04166667,6.98223825 Z M2.91666667,9.309651 L4.375,9.309651 L4.375,10.9720887 L2.91666667,10.9720887 L2.91666667,9.309651 Z M4.95833333,9.309651 L6.41666667,9.309651 L6.41666667,10.9720887 L4.95833333,10.9720887 L4.95833333,9.309651 Z M7,9.309651 L8.45833333,9.309651 L8.45833333,10.9720887 L7,10.9720887 L7,9.309651 Z M9.04166667,9.309651 L10.5,9.309651 L10.5,10.9720887 L9.04166667,10.9720887 L9.04166667,9.309651 Z M2.91666667,11.6370637 L4.375,11.6370637 L4.375,13.2995014 L2.91666667,13.2995014 L2.91666667,11.6370637 Z M4.95833333,11.6370637 L6.41666667,11.6370637 L6.41666667,13.2995014 L4.95833333,13.2995014 L4.95833333,11.6370637 Z M7,11.6370637 L8.45833333,11.6370637 L8.45833333,13.2995014 L7,13.2995014 L7,11.6370637 Z M9.04166667,11.6370637 L10.5,11.6370637 L10.5,13.2995014 L9.04166667,13.2995014 L9.04166667,11.6370637 Z" id="icon-date"></path>
                            </g>
                        </g>
                    </g>
                </g>
            </g>
        </g>
    </g>
</svg>