<?xml version="1.0" encoding="UTF-8"?>
<svg width="12px" height="15px" viewBox="0 0 12 15" version="1.1" xmlns="http://www.w3.org/2000/svg" xmlns:xlink="http://www.w3.org/1999/xlink">
    <title>icon-use</title>
    <g id="Page-1" stroke="none" stroke-width="1" fill="none" fill-rule="evenodd">
        <g id="Blog-design-1" transform="translate(-184.000000, -786.000000)" fill="#6236FF" fill-rule="nonzero">
            <g id="Group-8" transform="translate(0.000000, 132.000000)">
                <g id="Group-12" transform="translate(152.000000, 65.000000)">
                    <g id="Group-9" transform="translate(29.000000, 460.974359)">
                        <g id="Group-7" transform="translate(3.000000, 112.275641)">
                            <g id="icons8-user" transform="translate(0.000000, 16.379274)">
                                <path d="M6,0 C4.53513707,0 3.33333333,1.3700049 3.33333333,3.03988604 C3.33333333,4.70976718 4.53513707,6.07977208 6,6.07977208 C7.46486267,6.07977208 8.66666667,4.70976718 8.66666667,3.03988604 C8.66666667,1.3700049 7.46486267,0 6,0 Z M6,1.51994302 C6.744276,1.51994302 7.33333333,2.19144313 7.33333333,3.03988604 C7.33333333,3.88832895 6.744276,4.55982906 6,4.55982906 C5.255724,4.55982906 4.66666667,3.88832895 4.66666667,3.03988604 C4.66666667,2.19144313 5.255724,1.51994302 6,1.51994302 Z M6,8.35968661 C4.836698,8.35968661 3.4581092,8.67111001 2.2994792,9.19238967 C1.72016413,9.4530295 1.19646407,9.76263202 0.777343733,10.1601663 C0.3582234,10.5576998 0,11.0951159 0,11.7795584 L0,13.6794872 L12,13.6794872 L12,12.9195157 L12,11.7795584 C12,11.0951159 11.6417767,10.5576998 11.222656,10.1601663 C10.803536,9.76263202 10.279836,9.4530295 9.70052067,9.19238967 C8.54189067,8.67111001 7.163302,8.35968661 6,8.35968661 Z M6,9.87962963 C6.942698,9.87962963 8.23070333,10.1638582 9.21223933,10.6054617 C9.703008,10.8262638 10.117974,11.0894777 10.369792,11.3283253 C10.621608,11.567173 10.6666667,11.7298684 10.6666667,11.7795584 L10.6666667,12.1595442 L1.33333333,12.1595442 L1.33333333,11.7795584 C1.33333333,11.7298684 1.37839113,11.567173 1.63020833,11.3283253 C1.88202553,11.0894777 2.29699213,10.8262638 2.7877604,10.6054617 C3.769297,10.1638582 5.057302,9.87962963 6,9.87962963 Z" id="icon-use"></path>
                            </g>
                        </g>
                    </g>
                </g>
            </g>
        </g>
    </g>
</svg>