<?xml version="1.0" encoding="UTF-8"?>
<svg width="16px" height="16px" viewBox="0 0 16 16" version="1.1" xmlns="http://www.w3.org/2000/svg" xmlns:xlink="http://www.w3.org/1999/xlink">
    <title>icon-tags</title>
    <g id="Page-1" stroke="none" stroke-width="1" fill="none" fill-rule="evenodd">
        <g id="Blog-design-1" transform="translate(-811.000000, -787.000000)" fill="#6236FF" fill-rule="nonzero">
            <g id="Group-8" transform="translate(0.000000, 132.000000)">
                <g id="Group-12" transform="translate(152.000000, 65.000000)">
                    <g id="Group-9" transform="translate(29.000000, 460.974359)">
                        <g id="Group-6" transform="translate(630.000000, 112.275641)">
                            <path d="M8.03283167,16.7506035 C7.9282756,16.7519612 7.82371954,16.7587509 7.71780534,16.7723294 C7.50461952,16.7994869 7.2724233,16.8687384 7.0877527,17.0547668 L0.265803394,23.8767161 C-0.0886011312,24.2311206 -0.0886011312,24.8150058 0.265803394,25.1694103 L2.24286514,27.157335 C2.2591596,27.1736295 2.27816998,27.1885662 2.29718002,27.200787 C2.30261151,27.2062184 2.31347448,27.2062184 2.31890597,27.2116499 C2.32297967,27.2157236 2.32569525,27.2184392 2.32976895,27.2225129 C2.33927414,27.2320181 2.34198971,27.2455966 2.3514949,27.2551018 L7.56572367,32.4693306 C7.9201282,32.8237351 8.50401336,32.8237351 8.85841789,32.4693306 L15.6803672,25.6473813 C15.86368,25.4640685 15.9356471,25.2291567 15.9628046,25.0173287 C15.989962,24.8055006 15.9845305,24.5963885 15.9845305,24.398139 L15.9845305,24.3546871 C15.9845305,24.3220982 15.9845305,24.2745725 15.9845305,24.2134684 C15.9845305,24.1740902 15.9845305,24.1007649 15.9845305,24.0505237 C15.9845305,23.9473255 15.9845305,23.8536324 15.9845305,23.7137715 C15.9845305,23.2982628 15.9845305,22.7374614 15.9845305,22.1820918 C15.9845305,21.0713526 15.9845305,19.9592553 15.9845305,19.9334556 C15.9845305,19.3305604 15.4889073,18.836295 14.8873699,18.836295 L13.898839,18.836295 L13.898839,17.8477641 C13.898839,17.2448689 13.4045736,16.7506035 12.8016784,16.7506035 L8.33699501,16.7506035 C8.24058601,16.7506035 8.13738773,16.7492457 8.03283167,16.7506035 Z M8.04369464,17.445834 C8.13195624,17.445834 8.23379673,17.445834 8.33699501,17.445834 L12.8016784,17.445834 C13.0284431,17.445834 13.2036085,17.6209994 13.2036085,17.8477641 L13.2036085,18.836295 L11.9000513,18.836295 C11.8864728,18.8213583 11.8715361,18.8077797 11.8565994,18.7928431 C11.6542766,18.5905202 11.3854177,18.4886797 11.117917,18.4886797 C10.8504163,18.4886797 10.5815575,18.5905202 10.3792346,18.7928431 C10.3642979,18.8077797 10.3493616,18.8213583 10.3357827,18.836295 C10.1660488,18.8349372 9.98545188,18.8349372 9.80349685,18.8580209 C9.59031102,18.8851784 9.35811481,18.9544299 9.17344421,19.1404583 L2.3514949,25.9624076 C2.29718002,26.0167225 2.24829662,26.0737533 2.21027621,26.1362152 L0.754637341,24.6805764 C0.665017958,24.590957 0.666375743,24.4538117 0.754637341,24.3655501 L7.57658665,17.5436008 C7.61324928,17.5069381 7.68250084,17.4743492 7.81557213,17.4566969 C7.88210778,17.4485499 7.95543304,17.445834 8.04369464,17.445834 Z M10.1293862,19.5315255 L14.8873699,19.5315255 C15.1141346,19.5315255 15.2893,19.7066909 15.2893,19.9334556 C15.2893,19.9551816 15.2893,21.0713526 15.2893,22.1820918 C15.2893,22.7374614 15.2893,23.2982628 15.2893,23.7137715 C15.2893,23.9215258 15.2893,24.0926179 15.2893,24.2134684 C15.2893,24.2745725 15.2893,24.3220982 15.2893,24.3546871 C15.2893,24.3709815 15.2893,24.379129 15.2893,24.387276 C15.2893,24.3954234 15.2893,24.398139 15.2893,24.398139 C15.2893,24.6086092 15.2960893,24.7987113 15.2784371,24.9304248 C15.2607848,25.0621383 15.2295537,25.1205269 15.1915332,25.1585474 L8.36958394,31.9804967 C8.27996456,32.0701164 8.14281922,32.0687583 8.05455762,31.9804967 L2.84032885,26.7662679 C2.75070947,26.6766485 2.75206725,26.5395032 2.84032885,26.4512416 L9.66227816,19.6292923 C9.69894079,19.5926296 9.76819235,19.5600407 9.90126364,19.5423884 C9.96779929,19.5342414 10.0411246,19.5315255 10.1293862,19.5315255 Z M13.2036085,20.5743712 C12.9361078,20.5743712 12.667249,20.6762117 12.4649261,20.8785346 C12.0602804,21.2831806 12.0602804,21.9512537 12.4649261,22.3558994 C12.8695722,22.7605454 13.5376452,22.7605454 13.9422909,22.3558994 C14.346937,21.9512537 14.346937,21.2831806 13.9422909,20.8785346 C13.7399681,20.6762117 13.4711092,20.5743712 13.2036085,20.5743712 Z M13.2036085,21.2696017 C13.2918701,21.2696017 13.3842054,21.298117 13.453457,21.3673685 C13.5919601,21.5058716 13.5919601,21.7285627 13.453457,21.8670654 C13.3149542,22.0055686 13.0922632,22.0055686 12.9537601,21.8670654 C12.8152573,21.7285627 12.8152573,21.5058716 12.9537601,21.3673685 C13.0230116,21.298117 13.1153469,21.2696017 13.2036085,21.2696017 Z" id="icon-tags"></path>
                        </g>
                    </g>
                </g>
            </g>
        </g>
    </g>
</svg>