<?xml version="1.0" encoding="utf-8"?>
<!-- Generator: Adobe Illustrator 24.2.0, SVG Export Plug-In . SVG Version: 6.00 Build 0)  -->
<svg version="1.1" id="Layer_1" xmlns="http://www.w3.org/2000/svg" xmlns:xlink="http://www.w3.org/1999/xlink" x="0px" y="0px"
	 viewBox="0 0 5392.6 3000" style="enable-background:new 0 0 5392.6 3000;" xml:space="preserve">
<style type="text/css">
	.st0{display:none;fill:#FFFFFF;}
	.st1{fill:#7E59FF;}
	.st2{fill:#5D646C;}
	.st3{opacity:0.4;}
	.st4{fill:#FFFFFF;}
	.st5{opacity:0.2;fill:#FFFFFF;enable-background:new    ;}
	.st6{fill:#933E31;}
	.st7{fill:#1C75BC;}
	.st8{fill:#9D4D36;}
	.st9{fill:#BBCEE1;}
	.st10{fill:#A7BCCE;}
	.st11{fill:#2A87C6;}
	.st12{fill:#E8EBF5;}
	.st13{fill:#0F4463;}
	.st14{fill:#0B3B56;}
	.st15{fill:#1F5E77;}
	.st16{fill:#07304B;}
	.st17{fill:url(#SVGID_1_);}
	.st18{fill:#FED4BD;}
	.st19{fill:#F4C5A2;}
	.st20{fill:#ED5561;}
	.st21{fill:#DE495A;}
	.st22{fill:#EDEDED;}
	.st23{fill:#10B4E0;}
	.st24{fill:#3FC1EF;}
	.st25{fill:#00A3C9;}
	.st26{fill:#0489B7;}
	.st27{fill:#109AD7;}
	.st28{fill:#F5D012;}
	.st29{fill:#EDF0F8;}
	.st30{fill:#50E85E;}
	.st31{fill:#F0CEC9;}
	.st32{fill:#FFFBF0;}
	.st33{fill:#F5DDD8;}
	.st34{fill:#DFBAB8;}
	.st35{fill:#AF021F;}
	.st36{fill:#E00721;}
	.st37{fill:#D8395A;}
	.st38{fill:#1958C4;}
	.st39{fill:url(#SVGID_2_);}
</style>
<rect x="-157" y="-265" class="st0" width="5778" height="3456"/>
<path class="st1" d="M1849.4,10.6c0,0-257.9,579,545.1,321.7c803-257.4,678.6,97.8,570.3,276.7c-117.4,194-274,312-260,503.9
	c18.3,251.7,387.2,260.9,696.5,420.9c746.9,386.4-96.9,64.6-381.4,249.4s-111,322.5,282.7,308.4c850.2-30.5,568.2,257.1,426.2,387.4
	s-117.6,428,551.6,226.7c669.1-201.3,417.6,284.7,417.6,284.7h704.7V10.6H1849.4z"/>
<path class="st2" d="M4613.2,10.6c0,0-961.4-50.1-1132.6,581.6c-186.5,688.4,410,1012,612.4,854c202.4-158,211.5-372.8-103.5-514.5
	S3706.2,353.3,4395,462.3s768.4,985.3,269.4,1195s-377.4,456.5,159.3,718.9c536.7,262.3,243.2,614.1,243.2,614.1h335.7V10.6H4613.2z
	"/>
<g class="st3">
	<g>
		<polygon class="st4" points="3593,879.1 3593,888.1 3630.7,909.9 3630.7,900.9 		"/>
		<polygon class="st4" points="3593,895.5 3593,904.5 3630.7,926.3 3630.7,917.3 		"/>
		<polygon class="st4" points="3593,911.9 3593,920.9 3630.7,942.7 3630.7,933.7 		"/>
		<polygon class="st4" points="3877.6,1101.5 3877.6,1092.5 3644.8,958.2 3644.8,967.2 		"/>
		<polygon class="st4" points="3593,928.3 3593,937.3 3630.7,959.1 3630.7,950.1 		"/>
		<polygon class="st4" points="3593,944.7 3593,953.7 3630.7,975.5 3630.7,966.5 		"/>
		<polygon class="st4" points="3877.6,1117.9 3877.6,1108.9 3644.8,974.7 3644.8,983.6 		"/>
		<polygon class="st4" points="3593,993.9 3593,1002.9 3630.7,1024.7 3630.7,1015.7 		"/>
		<polygon class="st4" points="3593,1010.3 3593,1019.3 3630.7,1041.1 3630.7,1032.1 		"/>
		<polygon class="st4" points="3593,1075.9 3593,1084.9 3630.7,1106.7 3630.7,1097.7 		"/>
		<polygon class="st4" points="3593,1092.3 3593,1101.3 3630.7,1123.1 3630.7,1114.1 		"/>
		<g>
			<polygon class="st4" points="3791.6,1206.9 3644.8,1122.2 3644.8,1131.2 3791.6,1215.9 			"/>
			<polygon class="st4" points="3799.4,1211.4 3799.4,1220.4 3877.6,1265.5 3877.6,1256.5 			"/>
		</g>
		<g>
			<polygon class="st4" points="3718.6,1148.4 3644.8,1105.8 3644.8,1114.8 3718.6,1157.4 			"/>
			<polygon class="st4" points="3726.3,1152.8 3726.3,1161.8 3877.6,1249.1 3877.6,1240.1 			"/>
		</g>
		<polygon class="st4" points="3857.7,1179.4 3857.7,1188.4 3877.6,1199.9 3877.6,1190.9 		"/>
		<polygon class="st4" points="3749.4,1100.6 3644.8,1040.2 3644.8,1049.2 3749.4,1109.5 		"/>
		<polygon class="st4" points="3706.6,944.7 3644.8,909 3644.8,918 3706.6,953.6 		"/>
		<g>
			<polygon class="st4" points="3807.7,1003 3714.3,949.1 3714.3,958.1 3807.7,1012 			"/>
		</g>
		<polygon class="st4" points="3753.3,988 3687.5,950.1 3687.5,959 3753.3,997 		"/>
		<g>
			<polygon class="st4" points="3822.3,1027.8 3761,992.5 3761,1001.5 3822.3,1036.8 			"/>
			<polygon class="st4" points="3830,1032.3 3830,1041.3 3877.6,1068.7 3877.6,1059.7 			"/>
		</g>
		<polygon class="st4" points="3657,948.9 3657,957.8 3706.6,986.4 3706.6,977.5 		"/>
		<polygon class="st4" points="3858.2,1064.9 3714.3,981.9 3714.3,990.9 3858.2,1073.9 		"/>
		<polygon class="st4" points="3775.8,1066.6 3681.8,1012.4 3681.8,1021.3 3775.8,1075.6 		"/>
		<polygon class="st4" points="3858.2,1114.1 3783.5,1071.1 3783.5,1080 3858.2,1123.1 		"/>
		<g>
			<polygon class="st4" points="3849.9,1158.6 3757.1,1105 3757.1,1114 3849.9,1167.5 			"/>
		</g>
		<polygon class="st4" points="3799.4,1145.8 3799.4,1154.8 3849.9,1183.9 3849.9,1174.9 		"/>
		<polygon class="st4" points="3663,1067.1 3644.8,1056.6 3644.8,1065.6 3663,1076.1 		"/>
		<g>
			<polygon class="st4" points="3697.1,1086.8 3697.1,1095.8 3791.6,1150.3 3791.6,1141.3 			"/>
			<polygon class="st4" points="3689.4,1082.3 3670.8,1071.6 3670.8,1080.6 3689.4,1091.3 			"/>
		</g>
		<polygon class="st4" points="3774.2,1147.6 3670.8,1088 3670.8,1097 3774.2,1156.6 		"/>
	</g>
</g>
<g class="st3">
	<polygon class="st4" points="3794,730.6 3637.7,640.1 3637.7,648 3794,738.6 	"/>
	<polygon class="st4" points="3637.7,663.6 3877.6,802.4 3877.6,794.4 3637.7,655.7 	"/>
	<polygon class="st4" points="3804.5,736.5 3804.5,744.5 3877.6,786.8 3877.6,778.8 	"/>
	<polygon class="st4" points="3794,761.1 3637.7,670.5 3637.7,678.5 3794,769 	"/>
	<polygon class="st4" points="3637.7,694.1 3877.6,832.9 3877.6,824.9 3637.7,686.2 	"/>
	<polygon class="st4" points="3804.5,774.9 3877.6,817.2 3877.6,809.3 3804.5,767 	"/>
	<polygon class="st4" points="3794,811.4 3637.7,720.8 3637.7,728.8 3794,819.4 	"/>
	<polygon class="st4" points="3637.7,744.4 3877.6,883.2 3877.6,875.2 3637.7,736.5 	"/>
	<polygon class="st4" points="3804.5,825.2 3877.6,867.6 3877.6,859.6 3804.5,817.3 	"/>
	<polygon class="st4" points="3794,841.9 3637.7,751.3 3637.7,759.3 3794,849.8 	"/>
	<polygon class="st4" points="3637.7,774.9 3877.6,913.7 3877.6,905.7 3637.7,766.9 	"/>
	<polygon class="st4" points="3804.5,855.7 3877.6,898 3877.6,890.1 3804.5,847.8 	"/>
	<polygon class="st4" points="3794,892.2 3637.7,801.6 3637.7,809.6 3794,900.2 	"/>
	<polygon class="st4" points="3637.7,825.2 3877.6,964 3877.6,956 3637.7,817.3 	"/>
	<polygon class="st4" points="3804.5,906 3877.6,948.4 3877.6,940.4 3804.5,898.1 	"/>
	<polygon class="st4" points="3794,922.7 3637.7,832.1 3637.7,840.1 3794,930.6 	"/>
	<polygon class="st4" points="3637.7,855.7 3877.6,994.5 3877.6,986.5 3637.7,847.7 	"/>
	<polygon class="st4" points="3804.5,936.5 3877.6,978.8 3877.6,970.9 3804.5,928.6 	"/>
</g>
<path class="st5" d="M3372.1,844.5l-116.8-67.4c-5.7-3.3-12.8,0.8-12.8,7.4v139.8c0,6.8,3.6,13.1,9.5,16.5l116.8,67.5
	c5.8,3.4,13.1-0.8,13.1-7.6V861.5C3382,854.5,3378.2,848,3372.1,844.5z"/>
<g class="st3">
	<g>
		<polygon class="st4" points="2958.6,969.6 2958.6,978.5 2996.4,1000.3 2996.4,991.3 		"/>
		<polygon class="st4" points="2958.6,986 2958.6,994.9 2996.4,1016.7 2996.4,1007.7 		"/>
		<polygon class="st4" points="2958.6,1002.4 2958.6,1011.3 2996.4,1033.1 2996.4,1024.1 		"/>
		<polygon class="st4" points="3243.2,1191.9 3243.2,1182.9 3010.5,1048.7 3010.5,1057.7 		"/>
		<polygon class="st4" points="2958.6,1018.8 2958.6,1027.7 2996.4,1049.5 2996.4,1040.5 		"/>
		<polygon class="st4" points="2958.6,1035.2 2958.6,1044.1 2996.4,1065.9 2996.4,1056.9 		"/>
		<polygon class="st4" points="3243.2,1208.3 3243.2,1199.3 3010.5,1065.1 3010.5,1074.1 		"/>
		<polygon class="st4" points="2958.6,1084.4 2958.6,1093.3 2996.4,1115.1 2996.4,1106.1 		"/>
		<polygon class="st4" points="2958.6,1100.8 2958.6,1109.7 2996.4,1131.5 2996.4,1122.5 		"/>
		<polygon class="st4" points="2958.6,1166.3 2958.6,1175.3 2996.4,1197.1 2996.4,1188.1 		"/>
		<polygon class="st4" points="2958.6,1182.8 2958.6,1191.7 2996.4,1213.5 2996.4,1204.5 		"/>
		<g>
			<polygon class="st4" points="3157.3,1297.3 3010.5,1212.7 3010.5,1221.6 3157.3,1306.3 			"/>
			<polygon class="st4" points="3165.1,1301.8 3165.1,1310.8 3243.2,1355.9 3243.2,1346.9 			"/>
		</g>
		<g>
			<polygon class="st4" points="3084.3,1238.8 3010.5,1196.3 3010.5,1205.2 3084.3,1247.8 			"/>
			<polygon class="st4" points="3092,1243.3 3092,1252.2 3243.2,1339.5 3243.2,1330.5 			"/>
		</g>
		<polygon class="st4" points="3223.3,1269.8 3223.3,1278.8 3243.2,1290.3 3243.2,1281.3 		"/>
		<polygon class="st4" points="3115.1,1191 3010.5,1130.7 3010.5,1139.6 3115.1,1200 		"/>
		<polygon class="st4" points="3072.2,1035.1 3010.5,999.5 3010.5,1008.5 3072.2,1044.1 		"/>
		<g>
			<polygon class="st4" points="3173.4,1093.4 3080,1039.5 3080,1048.5 3173.4,1102.4 			"/>
		</g>
		<polygon class="st4" points="3118.9,1078.4 3053.2,1040.5 3053.2,1049.5 3118.9,1087.4 		"/>
		<g>
			<polygon class="st4" points="3188,1118.2 3126.7,1082.9 3126.7,1091.9 3188,1127.2 			"/>
			<polygon class="st4" points="3195.7,1122.7 3195.7,1131.7 3243.2,1159.1 3243.2,1150.1 			"/>
		</g>
		<polygon class="st4" points="3022.7,1039.3 3022.7,1048.3 3072.2,1076.9 3072.2,1067.9 		"/>
		<polygon class="st4" points="3223.8,1155.3 3080,1072.3 3080,1081.3 3223.8,1164.3 		"/>
		<polygon class="st4" points="3141.5,1157 3047.4,1102.8 3047.4,1111.8 3141.5,1166 		"/>
		<polygon class="st4" points="3223.8,1204.5 3149.2,1161.5 3149.2,1170.5 3223.8,1213.5 		"/>
		<g>
			<polygon class="st4" points="3215.6,1249 3122.8,1195.4 3122.8,1204.4 3215.6,1257.9 			"/>
		</g>
		<polygon class="st4" points="3165.1,1236.2 3165.1,1245.2 3215.6,1274.3 3215.6,1265.4 		"/>
		<polygon class="st4" points="3028.7,1157.6 3010.5,1147.1 3010.5,1156 3028.7,1166.5 		"/>
		<g>
			<polygon class="st4" points="3062.8,1177.2 3062.8,1186.2 3157.3,1240.7 3157.3,1231.8 			"/>
			<polygon class="st4" points="3055.1,1172.8 3036.4,1162 3036.4,1171 3055.1,1181.7 			"/>
		</g>
		<polygon class="st4" points="3139.8,1238.1 3036.4,1178.4 3036.4,1187.4 3139.8,1247 		"/>
	</g>
</g>
<path class="st5" d="M4083.2,1086.3l-116.8-67.4c-5.7-3.3-12.8,0.8-12.8,7.4v139.8c0,6.8,3.6,13.1,9.5,16.5l116.8,67.5
	c5.8,3.4,13.1-0.8,13.1-7.6v-139.2C4093,1096.3,4089.3,1089.8,4083.2,1086.3z"/>
<path class="st5" d="M4242.7,816l-116.8-67.4c-5.7-3.3-12.8,0.8-12.8,7.4v139.8c0,6.8,3.6,13.1,9.5,16.5l116.8,67.5
	c5.8,3.4,13.1-0.8,13.1-7.6V833C4252.5,826,4248.8,819.5,4242.7,816z"/>
<path class="st5" d="M4603.4,1547.1l-116.8-67.4c-5.7-3.3-12.8,0.8-12.8,7.4v139.8c0,6.8,3.6,13.1,9.5,16.5l116.8,67.5
	c5.8,3.4,13.1-0.8,13.1-7.6v-139.2C4613.2,1557.1,4609.5,1550.6,4603.4,1547.1z"/>
<path class="st5" d="M3586.6,1203.1l-116.8-67.4c-5.7-3.3-12.8,0.8-12.8,7.4v139.8c0,6.8,3.6,13.1,9.5,16.5l116.8,67.5
	c5.9,3.4,13.1-0.8,13.1-7.6v-139.2C3596.5,1213.1,3592.7,1206.6,3586.6,1203.1z"/>
<path class="st6" d="M3146.9,2352.2c-31,0.3-20.8-23.3-20.8-23.3c-46-14-68.6-6.2-68.6-6.2c-11.5,40.6-6.9,65.2-7.3,74.9
	c-0.2,4.8,3.4,7.8,7.9,9.5c24.8,9.2,47.3,15.3,93.4,10.8c33.9-3.3,69.9-34.7,61.7-67C3208,2330.9,3178.3,2351.9,3146.9,2352.2z"/>
<path class="st7" d="M3133.6,2060.6c-9.1-11.8-24.7-21.9-50.5-15.1l-277.3,53.5l10.4,71.2c0,0,42.5,56,116.8,34.8s122.6-56,122.6-56
	l-9.4,196.5c0,0,43.5,13.5,82.2-9.9c6.5-3.9,12.6-193.4,14.5-242.1C3143.6,2080.2,3141.8,2071.3,3133.6,2060.6z"/>
<path class="st8" d="M3280,2409c-32.2,0.3-21.6-24.2-21.6-24.2c-47.8-14.6-71.2-6.5-71.3-6.4c-11.9,42.2-7.1,67.7-7.6,77.8
	c-0.2,5,3.5,8.1,8.2,9.8c25.7,9.6,49.1,15.9,96.9,11.3c35.2-3.4,72.5-36.1,64-69.6C3343.4,2386.9,3312.6,2408.7,3280,2409z"/>
<g>
	<polygon class="st9" points="2964.9,2330.9 2726.9,2193.3 2726.9,2226.8 2964.9,2364 	"/>
	<polygon class="st4" points="2943.2,2069 2726.9,2193.3 2964.9,2330.9 3181.5,2206.4 	"/>
	<polygon class="st10" points="3181.5,2206.4 2964.9,2330.9 2964.9,2364 3181.5,2238.7 	"/>
</g>
<path class="st11" d="M3266.2,2106.3c-9.5-12.3-25.6-22.8-52.4-15.7l-287.9,55.5l10.8,73.9c0,0,44.1,58.1,121.3,36.1
	c77.2-22.1,127.3-58.1,127.3-58.1l-9.7,204c0,0,45.2,14,85.4-10.3c6.7-4.1,13-200.8,15.1-251.3
	C3276.5,2126.6,3274.7,2117.4,3266.2,2106.3z"/>
<g>
	<path class="st12" d="M2751.7,1689.9l491.6-285.4c20.8-12.1,46.5-12.1,67.4-0.1l774.4,448c19.7,11.4,19.8,39.9,0.1,51.3l-480.6,279
		c-24.8,14.4-55.3,14.4-80.1,0.1l-772.6-447C2734.1,1725.7,2734.1,1700.1,2751.7,1689.9z"/>
	<path class="st10" d="M2751.8,1735.9l772.6,447c24.8,14.3,55.3,14.3,80.1-0.1l480.6-279c9.8-5.7,14.7-15.6,14.7-25.5v36.7
		c0,0.1,0,0.2,0,0.3v0.5l-0.1,0c-0.2,9.8-5,19.4-14.7,25l-480.6,279c-24.8,14.4-55.3,14.4-80.1,0.1l-772.6-447
		c-8.9-5.1-13.3-14.2-13.3-23.2l0,0V1713C2738.6,1721.9,2743,1730.8,2751.8,1735.9z"/>
	<path class="st9" d="M2751.8,1735.9l772.6,447c11.4,6.6,23.9,9.9,36.6,10.5v37c-12.7-0.5-25.2-3.9-36.6-10.5l-772.6-447
		c-8.9-5.1-13.3-14.2-13.3-23.2l0,0V1713C2738.6,1721.9,2743,1730.8,2751.8,1735.9z"/>
</g>
<g>
	<g>
		<g>
			<path class="st13" d="M3115,1793.1l83.4-48.3c3.9-2.3,8.8-2.3,12.7,0l257.6,149c3.7,2.1,3.7,7.5,0,9.7l-81.4,47.1
				c-4.7,2.7-10.4,2.7-15.1,0L3115,1801.7C3111.6,1799.8,3111.6,1795,3115,1793.1z"/>
			<path class="st14" d="M3115,1801.7l257.3,148.8c4.7,2.7,10.4,2.7,15.1,0l81.4-47.1c1.9-1.1,2.8-2.9,2.8-4.8v9.8c0,0,0,0,0,0.1
				v0.1h0c0,1.8-0.9,3.7-2.8,4.7l-81.4,47.1c-4.7,2.7-10.4,2.7-15.1,0L3115,1811.6c-1.7-1-2.5-2.7-2.5-4.4l0,0v-9.8
				C3112.5,1799.1,3113.3,1800.8,3115,1801.7z"/>
		</g>
		<g>
			<polygon class="st15" points="3197.4,1758.3 3207.9,1752.3 3219.8,1759.1 3209.3,1765.2 			"/>
			<polygon class="st15" points="3212.2,1766.9 3222.7,1760.8 3234.6,1767.7 3224.1,1773.7 			"/>
			<polygon class="st15" points="3227.1,1775.4 3237.5,1769.3 3249.4,1776.2 3239,1782.2 			"/>
			<polygon class="st15" points="3241.9,1783.9 3252.3,1777.8 3264.2,1784.7 3253.8,1790.7 			"/>
			<polygon class="st15" points="3256.7,1792.4 3267.1,1786.4 3279,1793.2 3268.6,1799.3 			"/>
			<polygon class="st15" points="3271.5,1801 3281.9,1794.9 3293.8,1801.7 3283.4,1807.8 			"/>
			<polygon class="st15" points="3286.3,1809.5 3296.7,1803.4 3308.6,1810.3 3298.2,1816.3 			"/>
			<polygon class="st15" points="3301.1,1818 3311.6,1811.9 3323.4,1818.8 3313,1824.8 			"/>
			<polygon class="st15" points="3315.9,1826.5 3326.4,1820.5 3338.2,1827.3 3327.8,1833.4 			"/>
			<polygon class="st15" points="3330.7,1835.1 3341.2,1829 3353,1835.8 3342.6,1841.9 			"/>
			<polygon class="st15" points="3345.5,1843.6 3356,1837.5 3367.8,1844.4 3357.4,1850.4 			"/>
			<polygon class="st15" points="3360.3,1852.1 3370.8,1846 3382.6,1852.9 3372.2,1858.9 			"/>
			<polygon class="st15" points="3385.6,1854.6 3397.5,1861.4 3387.1,1867.5 3375.1,1860.6 			"/>
			<polygon class="st15" points="3195.8,1773 3183.9,1766.2 3194.4,1760.1 3206.2,1766.9 			"/>
			<polygon class="st15" points="3221.1,1775.5 3210.6,1781.5 3198.7,1774.7 3209.2,1768.6 			"/>
			<polygon class="st15" points="3235.9,1784 3225.4,1790 3213.5,1783.2 3224,1777.2 			"/>
			<polygon class="st15" points="3250.7,1792.5 3240.2,1798.6 3228.4,1791.7 3238.8,1785.7 			"/>
			<polygon class="st15" points="3265.5,1801.1 3255.1,1807.1 3243.2,1800.3 3253.6,1794.2 			"/>
			<polygon class="st15" points="3280.3,1809.6 3269.9,1815.6 3258,1808.8 3268.4,1802.7 			"/>
			<polygon class="st15" points="3295.1,1818.1 3284.7,1824.1 3272.8,1817.3 3283.2,1811.2 			"/>
			<polygon class="st15" points="3309.9,1826.6 3299.5,1832.7 3287.6,1825.8 3298,1819.8 			"/>
			<polygon class="st15" points="3324.7,1835.2 3314.3,1841.2 3302.4,1834.4 3312.8,1828.3 			"/>
			<polygon class="st15" points="3339.5,1843.7 3329.1,1849.7 3317.2,1842.9 3327.6,1836.8 			"/>
			<polygon class="st15" points="3354.3,1852.2 3343.9,1858.2 3332,1851.4 3342.5,1845.3 			"/>
			<polygon class="st15" points="3369.1,1860.7 3358.7,1866.8 3346.8,1859.9 3357.3,1853.9 			"/>
			<polygon class="st15" points="3372.1,1862.4 3383.9,1869.2 3373.5,1875.3 3361.6,1868.5 			"/>
			<polygon class="st15" points="3182.3,1780.8 3170.4,1774 3180.9,1767.9 3192.7,1774.8 			"/>
			<polygon class="st15" points="3207.5,1783.3 3197.1,1789.3 3185.2,1782.5 3195.7,1776.5 			"/>
			<polygon class="st15" points="3200,1791.1 3210.5,1785 3222.3,1791.8 3211.9,1797.9 			"/>
			<polygon class="st15" points="3237.1,1800.4 3226.7,1806.4 3214.8,1799.6 3225.3,1793.5 			"/>
			<polygon class="st15" points="3252,1808.9 3241.5,1814.9 3229.6,1808.1 3240.1,1802 			"/>
			<polygon class="st15" points="3266.8,1817.4 3256.4,1823.4 3244.4,1816.6 3254.9,1810.6 			"/>
			<polygon class="st15" points="3281.6,1825.9 3271.2,1832 3259.3,1825.1 3269.7,1819.1 			"/>
			<polygon class="st15" points="3296.4,1834.4 3286,1840.5 3274.1,1833.7 3284.5,1827.6 			"/>
			<polygon class="st15" points="3311.2,1843 3300.8,1849 3288.9,1842.2 3299.3,1836.1 			"/>
			<polygon class="st15" points="3326,1851.5 3315.6,1857.5 3303.7,1850.7 3314.1,1844.7 			"/>
			<polygon class="st15" points="3340.8,1860 3330.4,1866.1 3318.5,1859.2 3328.9,1853.2 			"/>
			<polygon class="st15" points="3333.3,1867.8 3343.8,1861.7 3355.6,1868.6 3345.2,1874.6 			"/>
			<polygon class="st15" points="3358.6,1870.2 3370.4,1877.1 3360,1883.1 3348.1,1876.3 			"/>
			<polygon class="st15" points="3168.8,1788.7 3156.9,1781.8 3167.3,1775.8 3179.2,1782.6 			"/>
			<polygon class="st15" points="3171.7,1790.3 3182.1,1784.3 3194,1791.1 3183.6,1797.2 			"/>
			<polygon class="st15" points="3186.5,1798.9 3196.9,1792.8 3208.8,1799.7 3198.4,1805.7 			"/>
			<polygon class="st15" points="3201.3,1807.4 3211.8,1801.3 3223.6,1808.2 3213.2,1814.2 			"/>
			<polygon class="st15" points="3216.1,1815.9 3226.6,1809.9 3238.4,1816.7 3228,1822.8 			"/>
			<polygon class="st15" points="3230.9,1824.4 3241.4,1818.4 3253.2,1825.2 3242.8,1831.3 			"/>
			<polygon class="st15" points="3245.7,1833 3256.2,1826.9 3268.1,1833.8 3257.6,1839.8 			"/>
			<polygon class="st15" points="3260.6,1841.5 3271,1835.4 3282.9,1842.3 3272.4,1848.3 			"/>
			<polygon class="st15" points="3275.4,1850 3285.8,1844 3297.7,1850.8 3287.3,1856.8 			"/>
			<polygon class="st15" points="3290.2,1858.5 3300.6,1852.5 3312.5,1859.3 3302.1,1865.4 			"/>
			<polygon class="st15" points="3305,1867.1 3315.4,1861 3327.3,1867.8 3316.9,1873.9 			"/>
			<polygon class="st15" points="3319.8,1875.6 3330.2,1869.5 3342.1,1876.4 3331.7,1882.4 			"/>
			<polygon class="st15" points="3345,1878.1 3356.9,1884.9 3346.5,1890.9 3334.6,1884.1 			"/>
			<polygon class="st15" points="3155.3,1796.5 3143.4,1789.7 3153.8,1783.6 3165.7,1790.4 			"/>
			<polygon class="st15" points="3158.2,1798.2 3168.6,1792.1 3180.5,1799 3170.1,1805 			"/>
			<polygon class="st15" points="3173,1806.7 3183.4,1800.6 3195.3,1807.5 3184.9,1813.5 			"/>
			<polygon class="st15" points="3187.8,1815.2 3198.2,1809.2 3210.1,1816 3199.7,1822.1 			"/>
			<polygon class="st15" points="3202.6,1823.8 3213.1,1817.7 3224.9,1824.5 3214.5,1830.6 			"/>
			<polygon class="st15" points="3217.4,1832.3 3227.9,1826.2 3239.7,1833.1 3229.3,1839.1 			"/>
			<polygon class="st15" points="3232.2,1840.8 3242.7,1834.7 3254.5,1841.6 3244.1,1847.6 			"/>
			<polygon class="st15" points="3247,1849.3 3257.5,1843.3 3269.4,1850.1 3258.9,1856.2 			"/>
			<polygon class="st15" points="3261.8,1857.8 3272.3,1851.8 3284.2,1858.6 3273.7,1864.7 			"/>
			<polygon class="st15" points="3276.6,1866.4 3287.1,1860.3 3299,1867.2 3288.6,1873.2 			"/>
			<polygon class="st15" points="3291.5,1874.9 3301.9,1868.8 3313.8,1875.7 3303.4,1881.7 			"/>
			<polygon class="st15" points="3306.3,1883.4 3316.7,1877.4 3328.6,1884.2 3318.2,1890.2 			"/>
			<polygon class="st15" points="3331.5,1885.9 3343.4,1892.7 3333,1898.8 3321.1,1891.9 			"/>
			<polygon class="st15" points="3140.3,1791.4 3152.2,1798.3 3141.8,1804.3 3129.9,1797.5 			"/>
			<polygon class="st15" points="3167,1806.8 3156.6,1812.8 3144.7,1806 3155.1,1799.9 			"/>
			<polygon class="st15" points="3181.8,1815.3 3171.4,1821.4 3159.5,1814.5 3169.9,1808.5 			"/>
			<polygon class="st15" points="3196.6,1823.8 3186.2,1829.9 3174.3,1823.1 3184.7,1817 			"/>
			<polygon class="st15" points="3211.4,1832.4 3201,1838.4 3189.1,1831.6 3199.5,1825.5 			"/>
			<polygon class="st15" points="3226.2,1840.9 3215.8,1846.9 3203.9,1840.1 3214.3,1834.1 			"/>
			<polygon class="st15" points="3229.1,1842.6 3244,1851.1 3244,1851.1 3246.9,1852.8 3258.8,1859.6 3258.8,1859.6 3264.8,1863.1 
				3273.6,1868.2 3273.6,1868.1 3282.9,1873.5 3300.3,1883.5 3289.9,1889.6 3271.7,1879.1 3263.1,1874.2 3263.1,1874.2 3254.1,1869 
				3248.3,1865.7 3248.3,1865.7 3236.6,1858.9 3233.5,1857.2 3233.5,1857.2 3218.7,1848.6 			"/>
			<polygon class="st15" points="3315.1,1892 3304.6,1898.1 3292.8,1891.2 3303.2,1885.2 			"/>
			<polygon class="st15" points="3329.9,1900.6 3319.5,1906.6 3307.6,1899.8 3318,1893.7 			"/>
		</g>
		<g>
			<polygon class="st15" points="3404.8,1877.7 3415.2,1871.6 3427.1,1878.4 3416.7,1884.5 			"/>
			<polygon class="st15" points="3419.6,1886.2 3430,1880.1 3441.9,1887 3431.5,1893 			"/>
			<polygon class="st15" points="3434.4,1894.7 3444.8,1888.7 3456.7,1895.5 3446.3,1901.5 			"/>
			<polygon class="st15" points="3413.6,1886.3 3403.1,1892.3 3391.2,1885.5 3401.7,1879.4 			"/>
			<polygon class="st15" points="3428.4,1894.8 3417.9,1900.8 3406.1,1894 3416.5,1888 			"/>
			<polygon class="st15" points="3443.2,1903.3 3432.8,1909.4 3420.9,1902.5 3431.3,1896.5 			"/>
			<polygon class="st15" points="3400,1894.1 3389.6,1900.2 3377.7,1893.3 3388.2,1887.3 			"/>
			<polygon class="st15" points="3414.9,1902.6 3404.4,1908.7 3392.5,1901.8 3403,1895.8 			"/>
			<polygon class="st15" points="3429.7,1911.2 3419.2,1917.2 3407.3,1910.4 3417.8,1904.3 			"/>
			<polygon class="st15" points="3364.2,1901.2 3374.6,1895.1 3386.5,1901.9 3376.1,1908 			"/>
			<polygon class="st15" points="3379,1909.7 3389.5,1903.6 3401.3,1910.5 3390.9,1916.5 			"/>
			<polygon class="st15" points="3393.8,1918.2 3404.3,1912.1 3416.1,1919 3405.7,1925 			"/>
			<polygon class="st15" points="3350.7,1909 3361.1,1902.9 3373,1909.8 3362.6,1915.8 			"/>
			<polygon class="st15" points="3365.5,1917.5 3375.9,1911.4 3387.8,1918.3 3377.4,1924.3 			"/>
			<polygon class="st15" points="3380.3,1926 3390.8,1920 3402.6,1926.8 3392.2,1932.9 			"/>
			<polygon class="st15" points="3359.5,1917.6 3349.1,1923.6 3337.2,1916.8 3347.6,1910.8 			"/>
			<polygon class="st15" points="3374.3,1926.1 3363.9,1932.2 3352,1925.3 3362.4,1919.3 			"/>
		</g>
	</g>
	<g>
		<path class="st15" d="M3300.1,1713l82.1-47.6c3.5-2,7.8-2,11.2,0l194.7,112.4c3.3,1.9,3.3,6.7,0,8.6l-80.2,46.6
			c-4.1,2.4-9.2,2.4-13.4,0l-194.4-112.2C3297.1,1719,3297.1,1714.7,3300.1,1713z"/>
		<path class="st16" d="M3300.1,1720.7l194.4,112.2c4.1,2.4,9.2,2.4,13.4,0l80.2-46.6c1.6-0.9,2.4-2.6,2.5-4.3v9.9c0,0,0,0,0,0.1
			v0.1h0c0,1.6-0.8,3.2-2.4,4.2l-80.2,46.6c-4.1,2.4-9.2,2.4-13.4,0l-194.4-112.2c-1.5-0.9-2.2-2.4-2.2-3.9l0,0v-9.9
			C3297.9,1718.3,3298.6,1719.8,3300.1,1720.7z"/>
		<path class="st14" d="M3300.1,1720.7l194.4,112.2c1.9,1.1,4,1.7,6.1,1.8v10c-2.1-0.1-4.2-0.7-6.1-1.8l-194.4-112.2
			c-1.5-0.9-2.2-2.4-2.2-3.9l0,0v-9.9C3297.9,1718.3,3298.6,1719.8,3300.1,1720.7z"/>
	</g>
	<g>
		<polygon class="st13" points="3513,1720.5 3361.6,1632.9 3361.6,1707.9 3513,1795.4 		"/>
		<polygon class="st16" points="3382.7,1620.8 3361.6,1632.9 3513,1720.5 3534.1,1708.4 		"/>
		<polygon class="st16" points="3534.1,1708.4 3513,1720.5 3513,1795.4 3534.1,1783.1 		"/>
	</g>
	<g>
		<g>
			
				<linearGradient id="SVGID_1_" gradientUnits="userSpaceOnUse" x1="3378.8774" y1="1247.1967" x2="3523.6414" y2="1723.5154" gradientTransform="matrix(1 0 0 -1 0 2997.8896)">
				<stop  offset="0" style="stop-color:#1C75BC"/>
				<stop  offset="0.2787" style="stop-color:#2077BC"/>
				<stop  offset="0.5411" style="stop-color:#2B7EBC"/>
				<stop  offset="0.7962" style="stop-color:#3E88BC"/>
				<stop  offset="1" style="stop-color:#5394BC"/>
			</linearGradient>
			<polygon class="st17" points="3208.7,1251.3 3668.7,1518.1 3668.7,1856.7 3208.7,1588.8 			"/>
			<polygon class="st16" points="3668.7,1518.1 3684,1508.8 3684,1847.4 3668.7,1856.7 			"/>
			<polygon class="st15" points="3208.7,1251.3 3224.3,1242.2 3684,1508.8 3668.7,1518.1 			"/>
		</g>
		<path class="st14" d="M3208.7,1251.3v337.4l460,267.9l0-338.5L3208.7,1251.3z M3657.8,1837.7l-438.2-255.2v-312.3l438.2,254.2
			L3657.8,1837.7z"/>
	</g>
</g>
<path class="st18" d="M3038.3,1669.3c-4.8,48.3-40.4,84.4-79.7,80.5c-39.2-3.9-67.1-46.2-62.4-94.6c4.8-48.3,40.4-84.4,79.7-80.5
	C3015.2,1578.6,3043.1,1620.9,3038.3,1669.3z"/>
<path class="st19" d="M3096.9,1782c0,0,17.1,4.1,23,4.7c5.9,0.6,28.3,5.2,37.5,2.5s-8.1-8.9-12.3-12c-4.2-3.1-4-11.1,5.2-13.8
	c9.2-2.8,30.1-1.5,41.2-3.1c11.1-1.6-11-35.1-29-38.2s-33.4-1.2-49.4,6.7c-15.4,7.6-23.8,20.4-30.9,22.8L3096.9,1782z"/>
<path class="st20" d="M3098.9,1736.3l-116.6,29.2l-5.9,74.1l137.6-47.2C3116.9,1766.2,3098.9,1736.3,3098.9,1736.3z"/>
<path class="st20" d="M2811.3,1767.7c0,0-32.2,40.6,0,96.6c0,0,22.6,31.2,84.5,0.7L2811.3,1767.7z"/>
<path class="st21" d="M2906.9,1720.2c0,0,50.3-3.4,89.7,24.1c0,0,2.9,8.3,10.8,13.6c7.9,5.3,47,20.9,47,20.9s-17.2,229.5,2.6,341.3
	c0,0-85,66.4-217.7,0c0,0-19.4-281.8-27.9-352.5C2811.3,1767.7,2833.4,1740.3,2906.9,1720.2z"/>
<g>
	<polygon class="st9" points="2884.7,2099.1 2646.8,1961.5 2726.9,2193.6 2964.9,2330.9 	"/>
	<polygon class="st4" points="2673,1946.3 2646.8,1961.5 2884.7,2099.1 2911.3,2083.7 	"/>
	<polygon class="st10" points="2911.3,2083.7 2884.7,2099.1 2964.9,2330.9 2991.8,2315.4 	"/>
</g>
<path class="st19" d="M3253.7,1883.6c0,0,13-13.1,18-16.8c5-3.7,22.4-20.2,32.2-22.4s-6.9,14.8-9,20.1c-2,5.3,10-4.2,19.2-7.7
	c9.5-3.6,20-2.9,31.2,1.1c22.5,8,21.4,53.1,3,47.8c-30.3-8.8-43.9,15.3-62,20.3c-12.5,3.5-17.8,3.3-25.6,4.7L3253.7,1883.6z"/>
<path class="st20" d="M3054.4,1778.8l98.4,130.4l102.3-30.2c0,0,21.9,27.7,14.8,57l-136.5,53.1l-110.9-122.1
	C3022.5,1867.1,2985.3,1789.7,3054.4,1778.8z"/>
<path class="st8" d="M2999.6,1533.4c0,0,7.6,18.2-28.6,23.1c-36.1,4.9-81,22.9-92.8,61.1c-7.5,24.4,1.2,50.7,13.5,72
	c4.2,7.3,8.9,14.6,14.4,20.9c0,0,24.2,6.5,53.4-9.2c0,0,18-12,28.7-35c0,0,21.6,9,28.3-9c4.9-13.2,20.5-16.5,29-23.7
	C3045.4,1633.7,3094.4,1553.8,2999.6,1533.4z"/>
<g>
	<polygon class="st9" points="4350.4,2227.9 4192.7,2136.4 4192.7,2195.4 4350.4,2286.7 	"/>
	<polygon class="st4" points="4355.6,2042.7 4192.7,2136.4 4350.4,2227.9 4513.6,2134.1 	"/>
	<polygon class="st10" points="4513.6,2134.1 4350.4,2227.9 4350.4,2286.7 4513.6,2192.2 	"/>
</g>
<g>
	<polygon class="st9" points="4350.4,2131.4 4192.7,2039.9 4192.7,2098.9 4350.4,2190.1 	"/>
	<polygon class="st4" points="4355.6,1946.2 4192.7,2039.9 4350.4,2131.4 4513.6,2037.6 	"/>
	<polygon class="st10" points="4513.6,2037.6 4350.4,2131.4 4350.4,2190.1 4513.6,2095.7 	"/>
</g>
<g>
	<polygon class="st9" points="4083.7,2382.3 3926,2290.8 3926,2349.8 4083.7,2441.1 	"/>
	<polygon class="st4" points="4089,2197.1 3926,2290.8 4083.7,2382.3 4246.9,2288.5 	"/>
	<polygon class="st10" points="4246.9,2288.5 4083.7,2382.3 4083.7,2441.1 4246.9,2346.6 	"/>
</g>
<g>
	<polygon class="st9" points="4083.7,2285.8 3926,2194.3 3926,2253.3 4083.7,2344.6 	"/>
	<polygon class="st4" points="4089,2100.6 3926,2194.3 4083.7,2285.8 4246.9,2192 	"/>
	<polygon class="st10" points="4246.9,2192 4083.7,2285.8 4083.7,2344.6 4246.9,2250.1 	"/>
</g>
<g>
	<polygon class="st9" points="3817,2536.8 3659.3,2445.2 3659.3,2504.2 3817,2595.5 	"/>
	<polygon class="st4" points="3822.3,2351.6 3659.3,2445.2 3817,2536.8 3980.2,2442.9 	"/>
	<polygon class="st10" points="3980.2,2442.9 3817,2536.8 3817,2595.5 3980.2,2501.1 	"/>
</g>
<g>
	<polygon class="st9" points="3817,2440.2 3659.3,2348.7 3659.3,2407.7 3817,2499 	"/>
	<polygon class="st4" points="3822.3,2255.1 3659.3,2348.7 3817,2440.2 3980.2,2346.4 	"/>
	<polygon class="st10" points="3980.2,2346.4 3817,2440.2 3817,2499 3980.2,2404.6 	"/>
</g>
<g>
	<path class="st7" d="M3866.2,2382.4l-9.9-5.7c-7.1,2.8-15,4.7-23.2,5.6l0.1,8.1l-24.1,0l-0.1-8.1c-8.2-0.9-16.1-2.8-23.2-5.6
		l-9.8,5.7l-17.1-9.9l9.8-5.7c-4.9-4.1-8.1-8.7-9.7-13.4h-13.9l-0.1-13.9h13.9c1.6-4.7,4.8-9.3,9.6-13.4l-9.9-5.7l16.9-9.9l9.9,5.7
		c7.1-2.8,15-4.7,23.2-5.6l0-8.1h24.1l0,8.1c8.2,0.9,16.1,2.8,23.2,5.6l9.8-5.7l17.1,9.9l-9.8,5.7c4.9,4.1,8.1,8.7,9.7,13.4h14
		l0.1,13.9l-14,0c-1.5,4.7-4.7,9.3-9.5,13.4l9.9,5.7L3866.2,2382.4z M3798.6,2359.4c12.4,7.1,32.4,7.1,44.6,0
		c12.3-7.1,12.2-18.7-0.1-25.9c-12.4-7.1-32.4-7.1-44.6,0C3786.2,2340.7,3786.2,2352.2,3798.6,2359.4"/>
</g>
<g>
	<g>
		<g>
			<path class="st22" d="M4346.8,1514.1l-153.2-88.4c-4.7-2.7-10.1-2.6-15.3,0.6v0l-33.6,19.4l15.6,21.2l5.8,6.7v151.7
				c0,9,4.8,17.4,12.6,21.9l114.6,66.3l1.2,6.4l23.4,32.8l36-21.2c0.1,0,0.1-0.1,0.2-0.1l0.2-0.1v0c3.2-2,5.5-5.5,5.5-9.8v-184.7
				C4359.9,1527.4,4354.9,1518.8,4346.8,1514.1z"/>
			<path class="st4" d="M4311,1535.2l-155-89.4c-7.6-4.4-17,1.1-17,9.8v185.5c0,9,4.8,17.4,12.6,21.9l154.9,89.6
				c7.8,4.5,17.5-1.1,17.5-10.1v-184.7C4324.1,1548.5,4319.1,1539.8,4311,1535.2z"/>
		</g>
	</g>
	<g>
		<path class="st22" d="M4318.2,1752.6l-0.2,0.1l0,0C4318.1,1752.7,4318.2,1752.6,4318.2,1752.6z"/>
		<path class="st22" d="M4324.1,1742.5v-184.7c0-3.1-0.7-6.1-1.8-8.9l35.9-20.7c1,2.7,1.6,5.6,1.6,8.6v184.7c0,4.3-2.3,7.8-5.5,9.8
			v0l-0.2,0.1c-0.1,0-0.1,0.1-0.2,0.1l-35.7,21C4321.7,1750.6,4324.1,1747,4324.1,1742.5z"/>
	</g>
</g>
<g>
	<g>
		<g>
			<path class="st23" d="M4009.9,1147.8l-153.2-88.4c-4.7-2.7-10.1-2.6-15.3,0.6v0l-33.6,19.4l15.6,21.2l5.8,6.7v151.7
				c0,9,4.8,17.4,12.6,21.9l114.6,66.3l1.2,6.4l23.4,32.8l36-21.2c0.1,0,0.1-0.1,0.2-0.1l0.2-0.1v0c3.2-2,5.5-5.5,5.5-9.8v-184.7
				C4023,1161.1,4018,1152.5,4009.9,1147.8z"/>
			<path class="st24" d="M3974.1,1168.9l-155-89.4c-7.6-4.4-17,1.1-17,9.8v185.5c0,9,4.8,17.4,12.6,21.9l154.9,89.6
				c7.8,4.5,17.4-1.1,17.4-10.1v-184.7C3987.2,1182.2,3982.2,1173.6,3974.1,1168.9z"/>
		</g>
	</g>
	<g>
		<path class="st9" d="M3981.4,1386.3l-0.2,0.1l0,0C3981.2,1386.4,3981.3,1386.3,3981.4,1386.3z"/>
		<path class="st25" d="M3987.2,1376.2v-184.7c0-3.1-0.7-6.1-1.8-8.9l35.9-20.7c1,2.7,1.6,5.6,1.6,8.6v184.7c0,4.3-2.3,7.8-5.5,9.8
			v0l-0.2,0.1c-0.1,0-0.1,0.1-0.2,0.1l-35.7,21C3984.8,1384.3,3987.2,1380.7,3987.2,1376.2z"/>
	</g>
</g>
<g>
	<g>
		<g>
			<path class="st26" d="M3674.6,790.1l-153.2-88.4c-4.7-2.7-10.1-2.6-15.3,0.6v0l-33.6,19.4l15.6,21.2l5.8,6.7v151.7
				c0,9,4.8,17.4,12.6,21.9l114.6,66.3l1.2,6.4l23.4,32.8l36-21.2c0.1,0,0.1-0.1,0.2-0.1l0.2-0.1v0c3.2-2,5.5-5.5,5.5-9.8V812.7
				C3687.6,803.4,3682.6,794.8,3674.6,790.1z"/>
			<path class="st27" d="M3638.8,811.2l-155-89.4c-7.6-4.4-17,1.1-17,9.8v185.5c0,9,4.8,17.4,12.6,21.9l154.9,89.6
				c7.8,4.5,17.4-1.1,17.4-10.1V833.8C3651.8,824.4,3646.8,815.8,3638.8,811.2z"/>
		</g>
	</g>
	<g>
		<path class="st9" d="M3645.9,1028.6l-0.2,0.1l0,0C3645.8,1028.6,3645.9,1028.6,3645.9,1028.6z"/>
		<path class="st26" d="M3651.8,1018.5V833.8c0-3.1-0.7-6.1-1.8-8.9l35.9-20.7c1,2.7,1.6,5.6,1.6,8.6v184.7c0,4.3-2.3,7.8-5.5,9.8v0
			l-0.2,0.1c-0.1,0-0.1,0.1-0.2,0.1l-35.7,21C3649.4,1026.6,3651.8,1022.9,3651.8,1018.5z"/>
	</g>
</g>
<g>
	<g>
		<polygon class="st28" points="3265.9,1321.6 3265.9,1330.6 3303.6,1352.4 3303.6,1343.4 		"/>
		<polygon class="st29" points="3265.9,1338 3265.9,1347 3303.6,1368.8 3303.6,1359.8 		"/>
		<polygon class="st29" points="3265.9,1354.4 3265.9,1363.4 3303.6,1385.2 3303.6,1376.2 		"/>
		<polygon class="st29" points="3550.5,1544 3550.5,1535 3317.8,1400.8 3317.8,1409.7 		"/>
		<polygon class="st29" points="3265.9,1370.8 3265.9,1379.8 3303.6,1401.6 3303.6,1392.6 		"/>
		<polygon class="st29" points="3265.9,1387.2 3265.9,1396.2 3303.6,1418 3303.6,1409 		"/>
		<polygon class="st30" points="3550.5,1560.4 3550.5,1551.4 3317.8,1417.2 3317.8,1426.1 		"/>
		<polygon class="st29" points="3265.9,1436.4 3265.9,1445.4 3303.6,1467.2 3303.6,1458.2 		"/>
		<polygon class="st28" points="3265.9,1452.8 3265.9,1461.8 3303.6,1483.6 3303.6,1474.6 		"/>
		<polygon class="st29" points="3265.9,1518.4 3265.9,1527.4 3303.6,1549.2 3303.6,1540.2 		"/>
		<polygon class="st29" points="3265.9,1534.8 3265.9,1543.8 3303.6,1565.6 3303.6,1556.6 		"/>
		<g>
			<polygon class="st30" points="3464.6,1649.4 3317.8,1564.7 3317.8,1573.7 3464.6,1658.4 			"/>
			<polygon class="st29" points="3472.3,1653.9 3472.3,1662.9 3550.5,1708 3550.5,1699 			"/>
		</g>
		<g>
			<polygon class="st29" points="3391.5,1590.9 3317.8,1548.3 3317.8,1557.3 3391.5,1599.9 			"/>
			<polygon class="st29" points="3399.3,1595.3 3399.3,1604.3 3550.5,1691.6 3550.5,1682.6 			"/>
		</g>
		<polygon class="st29" points="3530.6,1621.9 3530.6,1630.9 3550.5,1642.4 3550.5,1633.4 		"/>
		<polygon class="st20" points="3422.3,1543.1 3317.8,1482.7 3317.8,1491.7 3422.3,1552 		"/>
		<polygon class="st29" points="3379.5,1387.2 3317.8,1351.6 3317.8,1360.5 3379.5,1396.1 		"/>
		<g>
			<polygon class="st29" points="3480.7,1445.5 3387.2,1391.6 3387.2,1400.6 3480.7,1454.5 			"/>
		</g>
		<polygon class="st29" points="3426.2,1430.5 3360.4,1392.6 3360.4,1401.5 3426.2,1439.5 		"/>
		<g>
			<polygon class="st20" points="3495.2,1470.3 3433.9,1435 3433.9,1443.9 3495.2,1479.3 			"/>
			<polygon class="st29" points="3503,1474.8 3503,1483.8 3550.5,1511.2 3550.5,1502.2 			"/>
		</g>
		<polygon class="st20" points="3329.9,1391.4 3329.9,1400.3 3379.5,1428.9 3379.5,1419.9 		"/>
		<polygon class="st29" points="3531.1,1507.4 3387.2,1424.4 3387.2,1433.4 3531.1,1516.4 		"/>
		<polygon class="st29" points="3448.7,1509.1 3354.7,1454.8 3354.7,1463.8 3448.7,1518.1 		"/>
		<polygon class="st29" points="3531.1,1556.6 3456.5,1513.6 3456.5,1522.5 3531.1,1565.6 		"/>
		<g>
			<polygon class="st29" points="3522.9,1601.1 3430.1,1547.5 3430.1,1556.5 3522.9,1610 			"/>
		</g>
		<polygon class="st30" points="3472.3,1588.3 3472.3,1597.3 3522.9,1626.4 3522.9,1617.4 		"/>
		<polygon class="st29" points="3335.9,1509.6 3317.8,1499.1 3317.8,1508.1 3335.9,1518.6 		"/>
		<g>
			<polygon class="st29" points="3370,1529.3 3370,1538.3 3464.6,1592.8 3464.6,1583.8 			"/>
			<polygon class="st29" points="3362.3,1524.8 3343.7,1514.1 3343.7,1523.1 3362.3,1533.8 			"/>
		</g>
		<polygon class="st29" points="3447.1,1590.1 3343.7,1530.5 3343.7,1539.5 3447.1,1599.1 		"/>
	</g>
	<g>
		<polygon class="st29" points="3566.9,1495.3 3566.9,1497.8 3577.2,1503.8 3577.2,1501.3 		"/>
		<polygon class="st29" points="3566.9,1499.9 3566.9,1502.3 3577.2,1508.3 3577.2,1505.9 		"/>
		<polygon class="st29" points="3566.9,1504.4 3566.9,1506.8 3577.2,1512.8 3577.2,1510.4 		"/>
		<polygon class="st29" points="3645.3,1556.6 3645.3,1554.1 3581.1,1517.1 3581.1,1519.6 		"/>
		<polygon class="st29" points="3566.9,1508.9 3566.9,1511.4 3577.2,1517.4 3577.2,1514.9 		"/>
		<polygon class="st29" points="3566.9,1513.4 3566.9,1515.9 3577.2,1521.9 3577.2,1519.4 		"/>
		<polygon class="st29" points="3645.3,1561.1 3645.3,1558.7 3581.1,1521.7 3581.1,1524.1 		"/>
		<polygon class="st29" points="3566.9,1527 3566.9,1529.4 3577.2,1535.4 3577.2,1533 		"/>
		<polygon class="st29" points="3566.9,1531.5 3566.9,1534 3577.2,1540 3577.2,1537.5 		"/>
		<polygon class="st29" points="3566.9,1549.6 3566.9,1552 3577.2,1558 3577.2,1555.6 		"/>
		<polygon class="st29" points="3566.9,1554.1 3566.9,1556.6 3577.2,1562.6 3577.2,1560.1 		"/>
		<g>
			<polygon class="st29" points="3621.6,1585.7 3581.1,1562.3 3581.1,1564.8 3621.6,1588.1 			"/>
			<polygon class="st29" points="3623.7,1586.9 3623.7,1589.4 3645.3,1601.8 3645.3,1599.3 			"/>
		</g>
		<g>
			<polygon class="st29" points="3601.5,1569.5 3581.1,1557.8 3581.1,1560.3 3601.5,1572 			"/>
			<polygon class="st29" points="3603.6,1570.8 3603.6,1573.2 3645.3,1597.3 3645.3,1594.8 			"/>
		</g>
		<polygon class="st29" points="3639.8,1578.1 3639.8,1580.6 3645.3,1583.7 3645.3,1581.2 		"/>
		<polygon class="st29" points="3610,1556.4 3581.1,1539.7 3581.1,1542.2 3610,1558.8 		"/>
		<polygon class="st29" points="3598.1,1513.4 3581.1,1503.6 3581.1,1506.1 3598.1,1515.9 		"/>
		<g>
			<polygon class="st29" points="3626,1529.5 3600.3,1514.6 3600.3,1517.1 3626,1531.9 			"/>
		</g>
		<polygon class="st29" points="3611,1525.3 3592.9,1514.9 3592.9,1517.4 3611,1527.8 		"/>
		<g>
			<polygon class="st29" points="3630,1536.3 3613.2,1526.6 3613.2,1529 3630,1538.8 			"/>
			<polygon class="st29" points="3632.2,1537.5 3632.2,1540 3645.3,1547.6 3645.3,1545.1 			"/>
		</g>
		<polygon class="st29" points="3584.5,1514.6 3584.5,1517 3598.1,1524.9 3598.1,1522.4 		"/>
		<polygon class="st29" points="3639.9,1546.5 3600.3,1523.7 3600.3,1526.1 3639.9,1549 		"/>
		<polygon class="st29" points="3617.2,1547 3591.3,1532.1 3591.3,1534.5 3617.2,1549.5 		"/>
		<polygon class="st29" points="3639.9,1560.1 3619.4,1548.2 3619.4,1550.7 3639.9,1562.6 		"/>
		<g>
			<polygon class="st29" points="3637.7,1572.3 3612.1,1557.6 3612.1,1560.1 3637.7,1574.8 			"/>
		</g>
		<polygon class="st29" points="3623.7,1568.8 3623.7,1571.3 3637.7,1579.3 3637.7,1576.8 		"/>
		<polygon class="st29" points="3586.2,1547.2 3581.1,1544.2 3581.1,1546.7 3586.2,1549.6 		"/>
		<g>
			<polygon class="st29" points="3595.6,1552.6 3595.6,1555 3621.6,1570.1 3621.6,1567.6 			"/>
			<polygon class="st29" points="3593.4,1551.3 3588.3,1548.4 3588.3,1550.8 3593.4,1553.8 			"/>
		</g>
		<polygon class="st29" points="3616.8,1569.3 3588.3,1552.9 3588.3,1555.4 3616.8,1571.8 		"/>
	</g>
	<g>
		<polygon class="st29" points="3566.9,1571.8 3566.9,1574.3 3577.2,1580.3 3577.2,1577.8 		"/>
		<polygon class="st29" points="3566.9,1576.3 3566.9,1578.8 3577.2,1584.8 3577.2,1582.3 		"/>
		<polygon class="st29" points="3566.9,1580.8 3566.9,1583.3 3577.2,1589.3 3577.2,1586.8 		"/>
		<polygon class="st29" points="3645.3,1633.1 3645.3,1630.6 3581.1,1593.6 3581.1,1596.1 		"/>
		<polygon class="st29" points="3566.9,1585.4 3566.9,1587.8 3577.2,1593.8 3577.2,1591.3 		"/>
		<polygon class="st29" points="3566.9,1589.9 3566.9,1592.3 3577.2,1598.3 3577.2,1595.9 		"/>
		<polygon class="st29" points="3645.3,1637.6 3645.3,1635.1 3581.1,1598.1 3581.1,1600.6 		"/>
		<polygon class="st29" points="3566.9,1603.4 3566.9,1605.9 3577.2,1611.9 3577.2,1609.4 		"/>
		<polygon class="st29" points="3566.9,1607.9 3566.9,1610.4 3577.2,1616.4 3577.2,1613.9 		"/>
		<polygon class="st29" points="3566.9,1626 3566.9,1628.5 3577.2,1634.5 3577.2,1632 		"/>
		<polygon class="st29" points="3566.9,1630.5 3566.9,1633 3577.2,1639 3577.2,1636.5 		"/>
		<g>
			<polygon class="st29" points="3621.6,1662.1 3581.1,1638.8 3581.1,1641.3 3621.6,1664.6 			"/>
			<polygon class="st29" points="3623.7,1663.3 3623.7,1665.8 3645.3,1678.2 3645.3,1675.8 			"/>
		</g>
		<g>
			<polygon class="st29" points="3601.5,1646 3581.1,1634.3 3581.1,1636.7 3601.5,1648.5 			"/>
			<polygon class="st29" points="3603.6,1647.2 3603.6,1649.7 3645.3,1673.7 3645.3,1671.2 			"/>
		</g>
		<polygon class="st29" points="3639.8,1654.5 3639.8,1657 3645.3,1660.2 3645.3,1657.7 		"/>
		<polygon class="st29" points="3610,1632.8 3581.1,1616.2 3581.1,1618.7 3610,1635.3 		"/>
		<polygon class="st29" points="3598.1,1589.8 3581.1,1580 3581.1,1582.5 3598.1,1592.3 		"/>
		<g>
			<polygon class="st29" points="3626,1605.9 3600.3,1591.1 3600.3,1593.6 3626,1608.4 			"/>
		</g>
		<polygon class="st29" points="3611,1601.8 3592.9,1591.3 3592.9,1593.8 3611,1604.3 		"/>
		<g>
			<polygon class="st29" points="3630,1612.8 3613.2,1603 3613.2,1605.5 3630,1615.2 			"/>
			<polygon class="st29" points="3632.2,1614 3632.2,1616.5 3645.3,1624 3645.3,1621.6 			"/>
		</g>
		<polygon class="st29" points="3584.5,1591 3584.5,1593.5 3598.1,1601.4 3598.1,1598.9 		"/>
		<polygon class="st29" points="3639.9,1623 3600.3,1600.1 3600.3,1602.6 3639.9,1625.5 		"/>
		<polygon class="st29" points="3617.2,1623.4 3591.3,1608.5 3591.3,1611 3617.2,1625.9 		"/>
		<polygon class="st29" points="3639.9,1636.5 3619.4,1624.7 3619.4,1627.2 3639.9,1639 		"/>
		<g>
			<polygon class="st29" points="3637.7,1648.8 3612.1,1634 3612.1,1636.5 3637.7,1651.3 			"/>
		</g>
		<polygon class="st29" points="3623.7,1645.3 3623.7,1647.8 3637.7,1655.8 3637.7,1653.3 		"/>
		<polygon class="st29" points="3586.2,1623.6 3581.1,1620.7 3581.1,1623.2 3586.2,1626.1 		"/>
		<g>
			<polygon class="st29" points="3595.6,1629 3595.6,1631.5 3621.6,1646.5 3621.6,1644 			"/>
			<polygon class="st29" points="3593.4,1627.8 3588.3,1624.8 3588.3,1627.3 3593.4,1630.3 			"/>
		</g>
		<polygon class="st29" points="3616.8,1645.8 3588.3,1629.3 3588.3,1631.8 3616.8,1648.3 		"/>
	</g>
	<g>
		<polygon class="st29" points="3566.9,1648.3 3566.9,1650.7 3577.2,1656.7 3577.2,1654.2 		"/>
		<polygon class="st29" points="3566.9,1652.8 3566.9,1655.2 3577.2,1661.2 3577.2,1658.8 		"/>
		<polygon class="st29" points="3566.9,1657.3 3566.9,1659.8 3577.2,1665.8 3577.2,1663.3 		"/>
		<polygon class="st29" points="3645.3,1709.5 3645.3,1707 3581.1,1670.1 3581.1,1672.5 		"/>
		<polygon class="st29" points="3566.9,1661.8 3566.9,1664.3 3577.2,1670.3 3577.2,1667.8 		"/>
		<polygon class="st29" points="3566.9,1666.3 3566.9,1668.8 3577.2,1674.8 3577.2,1672.3 		"/>
		<polygon class="st29" points="3645.3,1714 3645.3,1711.6 3581.1,1674.6 3581.1,1677.1 		"/>
		<polygon class="st29" points="3566.9,1679.9 3566.9,1682.4 3577.2,1688.3 3577.2,1685.9 		"/>
		<polygon class="st29" points="3566.9,1684.4 3566.9,1686.9 3577.2,1692.9 3577.2,1690.4 		"/>
		<polygon class="st29" points="3566.9,1702.5 3566.9,1704.9 3577.2,1710.9 3577.2,1708.5 		"/>
		<polygon class="st29" points="3566.9,1707 3566.9,1709.5 3577.2,1715.5 3577.2,1713 		"/>
		<g>
			<polygon class="st29" points="3621.6,1738.6 3581.1,1715.2 3581.1,1717.7 3621.6,1741.1 			"/>
			<polygon class="st29" points="3623.7,1739.8 3623.7,1742.3 3645.3,1754.7 3645.3,1752.2 			"/>
		</g>
		<g>
			<polygon class="st29" points="3601.5,1722.4 3581.1,1710.7 3581.1,1713.2 3601.5,1724.9 			"/>
			<polygon class="st29" points="3603.6,1723.7 3603.6,1726.2 3645.3,1750.2 3645.3,1747.7 			"/>
		</g>
		<polygon class="st29" points="3639.8,1731 3639.8,1733.5 3645.3,1736.6 3645.3,1734.2 		"/>
		<polygon class="st29" points="3610,1709.3 3581.1,1692.7 3581.1,1695.1 3610,1711.7 		"/>
		<polygon class="st29" points="3598.1,1666.3 3581.1,1656.5 3581.1,1659 3598.1,1668.8 		"/>
		<g>
			<polygon class="st29" points="3626,1682.4 3600.3,1667.5 3600.3,1670 3626,1684.9 			"/>
		</g>
		<polygon class="st29" points="3611,1678.2 3592.9,1667.8 3592.9,1670.3 3611,1680.7 		"/>
		<g>
			<polygon class="st29" points="3630,1689.2 3613.2,1679.5 3613.2,1682 3630,1691.7 			"/>
			<polygon class="st29" points="3632.2,1690.4 3632.2,1692.9 3645.3,1700.5 3645.3,1698 			"/>
		</g>
		<polygon class="st29" points="3584.5,1667.5 3584.5,1669.9 3598.1,1677.8 3598.1,1675.3 		"/>
		<polygon class="st29" points="3639.9,1699.4 3600.3,1676.6 3600.3,1679.1 3639.9,1701.9 		"/>
		<polygon class="st29" points="3617.2,1699.9 3591.3,1685 3591.3,1687.4 3617.2,1702.4 		"/>
		<polygon class="st29" points="3639.9,1713 3619.4,1701.1 3619.4,1703.6 3639.9,1715.5 		"/>
		<g>
			<polygon class="st29" points="3637.7,1725.2 3612.1,1710.5 3612.1,1713 3637.7,1727.7 			"/>
		</g>
		<polygon class="st29" points="3623.7,1721.7 3623.7,1724.2 3637.7,1732.2 3637.7,1729.8 		"/>
		<polygon class="st29" points="3586.2,1700.1 3581.1,1697.2 3581.1,1699.6 3586.2,1702.5 		"/>
		<g>
			<polygon class="st29" points="3595.6,1705.5 3595.6,1707.9 3621.6,1723 3621.6,1720.5 			"/>
			<polygon class="st29" points="3593.4,1704.2 3588.3,1701.3 3588.3,1703.8 3593.4,1706.7 			"/>
		</g>
		<polygon class="st29" points="3616.8,1722.2 3588.3,1705.8 3588.3,1708.3 3616.8,1724.7 		"/>
	</g>
	<g>
		<polygon class="st29" points="3566.9,1724.7 3566.9,1727.2 3577.2,1733.2 3577.2,1730.7 		"/>
		<polygon class="st29" points="3566.9,1729.2 3566.9,1731.7 3577.2,1737.7 3577.2,1735.2 		"/>
		<polygon class="st29" points="3566.9,1733.8 3566.9,1736.2 3577.2,1742.2 3577.2,1739.7 		"/>
		<polygon class="st29" points="3645.3,1786 3645.3,1783.5 3581.1,1746.5 3581.1,1749 		"/>
		<polygon class="st29" points="3566.9,1738.3 3566.9,1740.7 3577.2,1746.7 3577.2,1744.3 		"/>
		<polygon class="st29" points="3566.9,1742.8 3566.9,1745.3 3577.2,1751.2 3577.2,1748.8 		"/>
		<polygon class="st29" points="3645.3,1790.5 3645.3,1788 3581.1,1751 3581.1,1753.5 		"/>
		<polygon class="st29" points="3566.9,1756.3 3566.9,1758.8 3577.2,1764.8 3577.2,1762.3 		"/>
		<polygon class="st29" points="3566.9,1760.9 3566.9,1763.3 3577.2,1769.3 3577.2,1766.8 		"/>
		<polygon class="st29" points="3639.8,1807.4 3639.8,1809.9 3645.3,1813.1 3645.3,1810.6 		"/>
		<polygon class="st29" points="3610,1785.7 3581.1,1769.1 3581.1,1771.6 3610,1788.2 		"/>
		<polygon class="st29" points="3598.1,1742.8 3581.1,1733 3581.1,1735.4 3598.1,1745.2 		"/>
		<g>
			<polygon class="st29" points="3626,1758.8 3600.3,1744 3600.3,1746.5 3626,1761.3 			"/>
		</g>
		<polygon class="st29" points="3611,1754.7 3592.9,1744.2 3592.9,1746.7 3611,1757.2 		"/>
		<g>
			<polygon class="st29" points="3630,1765.7 3613.2,1755.9 3613.2,1758.4 3630,1768.2 			"/>
			<polygon class="st29" points="3632.2,1766.9 3632.2,1769.4 3645.3,1776.9 3645.3,1774.5 			"/>
		</g>
		<polygon class="st29" points="3584.5,1743.9 3584.5,1746.4 3598.1,1754.3 3598.1,1751.8 		"/>
		<polygon class="st29" points="3639.9,1775.9 3600.3,1753 3600.3,1755.5 3639.9,1778.4 		"/>
		<polygon class="st29" points="3617.2,1776.4 3591.3,1761.4 3591.3,1763.9 3617.2,1778.8 		"/>
		<polygon class="st29" points="3639.9,1789.5 3619.4,1777.6 3619.4,1780.1 3639.9,1791.9 		"/>
		<g>
			<polygon class="st29" points="3637.7,1801.7 3612.1,1786.9 3612.1,1789.4 3637.7,1804.2 			"/>
		</g>
		<polygon class="st29" points="3623.7,1798.2 3623.7,1800.7 3637.7,1808.7 3637.7,1806.2 		"/>
		<polygon class="st29" points="3586.2,1776.5 3581.1,1773.6 3581.1,1776.1 3586.2,1779 		"/>
		<g>
			<polygon class="st29" points="3595.6,1781.9 3595.6,1784.4 3621.6,1799.4 3621.6,1797 			"/>
			<polygon class="st29" points="3593.4,1780.7 3588.3,1777.7 3588.3,1780.2 3593.4,1783.2 			"/>
		</g>
		<polygon class="st29" points="3616.8,1798.7 3588.3,1782.3 3588.3,1784.7 3616.8,1801.2 		"/>
	</g>
	<g>
		<path class="st30" d="M3241.7,1307.7l-12.4-7.2c-0.6-0.3-1.4,0.1-1.4,0.8v14.9c0,0.7,0.4,1.4,1,1.8l12.4,7.2
			c0.6,0.4,1.4-0.1,1.4-0.8v-14.8C3242.8,1308.8,3242.4,1308.1,3241.7,1307.7z"/>
		<path class="st30" d="M3241.7,1329.9l-12.4-7.2c-0.6-0.3-1.4,0.1-1.4,0.8v14.9c0,0.7,0.4,1.4,1,1.8l12.4,7.2
			c0.6,0.4,1.4-0.1,1.4-0.8v-14.8C3242.8,1331,3242.4,1330.3,3241.7,1329.9z"/>
		<path class="st30" d="M3241.7,1352.2l-12.4-7.2c-0.6-0.3-1.4,0.1-1.4,0.8v14.9c0,0.7,0.4,1.4,1,1.8l12.4,7.2
			c0.6,0.4,1.4-0.1,1.4-0.8V1354C3242.8,1353.3,3242.4,1352.6,3241.7,1352.2z"/>
		<path class="st30" d="M3241.7,1374.4l-12.4-7.2c-0.6-0.3-1.4,0.1-1.4,0.8v14.9c0,0.7,0.4,1.4,1,1.8l12.4,7.2
			c0.6,0.4,1.4-0.1,1.4-0.8v-14.8C3242.8,1375.5,3242.4,1374.8,3241.7,1374.4z"/>
		<path class="st30" d="M3241.7,1396.7l-12.4-7.2c-0.6-0.3-1.4,0.1-1.4,0.8v14.9c0,0.7,0.4,1.4,1,1.8l12.4,7.2
			c0.6,0.4,1.4-0.1,1.4-0.8v-14.8C3242.8,1397.8,3242.4,1397.1,3241.7,1396.7z"/>
		<path class="st30" d="M3241.7,1418.9l-12.4-7.2c-0.6-0.3-1.4,0.1-1.4,0.8v14.9c0,0.7,0.4,1.4,1,1.8l12.4,7.2
			c0.6,0.4,1.4-0.1,1.4-0.8v-14.8C3242.8,1420,3242.4,1419.3,3241.7,1418.9z"/>
		<path class="st30" d="M3241.7,1441.2l-12.4-7.2c-0.6-0.3-1.4,0.1-1.4,0.8v14.9c0,0.7,0.4,1.4,1,1.8l12.4,7.2
			c0.6,0.4,1.4-0.1,1.4-0.8V1443C3242.8,1442.3,3242.4,1441.6,3241.7,1441.2z"/>
		<path class="st30" d="M3241.7,1463.4l-12.4-7.2c-0.6-0.3-1.4,0.1-1.4,0.8v14.9c0,0.7,0.4,1.4,1,1.8l12.4,7.2
			c0.6,0.4,1.4-0.1,1.4-0.8v-14.8C3242.8,1464.5,3242.4,1463.8,3241.7,1463.4z"/>
		<path class="st30" d="M3241.7,1485.7l-12.4-7.2c-0.6-0.3-1.4,0.1-1.4,0.8v14.9c0,0.7,0.4,1.4,1,1.8l12.4,7.2
			c0.6,0.4,1.4-0.1,1.4-0.8v-14.8C3242.8,1486.8,3242.4,1486.1,3241.7,1485.7z"/>
		<path class="st30" d="M3241.7,1507.9l-12.4-7.2c-0.6-0.3-1.4,0.1-1.4,0.8v14.9c0,0.7,0.4,1.4,1,1.8l12.4,7.2
			c0.6,0.4,1.4-0.1,1.4-0.8v-14.8C3242.8,1509,3242.4,1508.3,3241.7,1507.9z"/>
		<path class="st30" d="M3241.7,1530.2l-12.4-7.2c-0.6-0.3-1.4,0.1-1.4,0.8v14.9c0,0.7,0.4,1.4,1,1.8l12.4,7.2
			c0.6,0.4,1.4-0.1,1.4-0.8V1532C3242.8,1531.3,3242.4,1530.6,3241.7,1530.2z"/>
		<path class="st30" d="M3241.7,1552.4l-12.4-7.2c-0.6-0.3-1.4,0.1-1.4,0.8v14.9c0,0.7,0.4,1.4,1,1.8l12.4,7.2
			c0.6,0.4,1.4-0.1,1.4-0.8v-14.8C3242.8,1553.5,3242.4,1552.8,3241.7,1552.4z"/>
	</g>
</g>
<g class="st3">
	<g>
		<polygon class="st4" points="3825.4,1386.6 3825.4,1395.5 3863.1,1417.3 3863.1,1408.3 		"/>
		<polygon class="st4" points="3825.4,1402.9 3825.4,1411.9 3863.1,1433.7 3863.1,1424.7 		"/>
		<polygon class="st4" points="3825.4,1419.3 3825.4,1428.3 3863.1,1450.1 3863.1,1441.1 		"/>
		<polygon class="st4" points="4110,1608.9 4110,1599.9 3877.2,1465.7 3877.2,1474.6 		"/>
		<polygon class="st4" points="3825.4,1435.8 3825.4,1444.7 3863.1,1466.5 3863.1,1457.5 		"/>
		<polygon class="st4" points="3825.4,1452.1 3825.4,1461.1 3863.1,1482.9 3863.1,1473.9 		"/>
		<polygon class="st4" points="4110,1625.3 4110,1616.3 3877.2,1482.1 3877.2,1491 		"/>
		<polygon class="st4" points="3825.4,1501.3 3825.4,1510.3 3863.1,1532.1 3863.1,1523.1 		"/>
		<polygon class="st4" points="3825.4,1517.7 3825.4,1526.7 3863.1,1548.5 3863.1,1539.5 		"/>
		<polygon class="st4" points="3825.4,1583.3 3825.4,1592.3 3863.1,1614.1 3863.1,1605.1 		"/>
		<polygon class="st4" points="3825.4,1599.7 3825.4,1608.7 3863.1,1630.5 3863.1,1621.5 		"/>
		<g>
			<polygon class="st4" points="4024.1,1714.3 3877.2,1629.6 3877.2,1638.6 4024.1,1723.3 			"/>
			<polygon class="st4" points="4031.8,1718.8 4031.8,1727.8 4110,1772.9 4110,1763.9 			"/>
		</g>
		<g>
			<polygon class="st4" points="3951,1655.8 3877.2,1613.2 3877.2,1622.2 3951,1664.8 			"/>
			<polygon class="st4" points="3958.7,1660.3 3958.7,1669.2 4110,1756.5 4110,1747.5 			"/>
		</g>
		<polygon class="st4" points="4090.1,1686.8 4090.1,1695.8 4110,1707.3 4110,1698.3 		"/>
		<polygon class="st4" points="3981.8,1608 3877.2,1547.7 3877.2,1556.6 3981.8,1616.9 		"/>
		<polygon class="st4" points="3939,1452.1 3877.2,1416.5 3877.2,1425.4 3939,1461 		"/>
		<g>
			<polygon class="st4" points="4040.1,1510.4 3946.7,1456.5 3946.7,1465.5 4040.1,1519.4 			"/>
		</g>
		<polygon class="st4" points="3985.7,1495.4 3919.9,1457.5 3919.9,1466.4 3985.7,1504.4 		"/>
		<g>
			<polygon class="st4" points="4054.7,1535.2 3993.4,1499.9 3993.4,1508.8 4054.7,1544.2 			"/>
			<polygon class="st4" points="4062.4,1539.7 4062.4,1548.7 4110,1576.1 4110,1567.1 			"/>
		</g>
		<polygon class="st4" points="3889.4,1456.3 3889.4,1465.2 3939,1493.8 3939,1484.9 		"/>
		<polygon class="st4" points="4090.6,1572.3 3946.7,1489.3 3946.7,1498.3 4090.6,1581.3 		"/>
		<polygon class="st4" points="4008.2,1574 3914.2,1519.8 3914.2,1528.7 4008.2,1583 		"/>
		<polygon class="st4" points="4090.6,1621.5 4015.9,1578.5 4015.9,1587.4 4090.6,1630.5 		"/>
		<g>
			<polygon class="st4" points="4082.3,1665.9 3989.6,1612.4 3989.6,1621.4 4082.3,1674.9 			"/>
		</g>
		<polygon class="st4" points="4031.8,1653.2 4031.8,1662.2 4082.3,1691.3 4082.3,1682.3 		"/>
		<polygon class="st4" points="3895.4,1574.6 3877.2,1564.1 3877.2,1573 3895.4,1583.5 		"/>
		<g>
			<polygon class="st4" points="3929.5,1594.2 3929.5,1603.2 4024.1,1657.7 4024.1,1648.7 			"/>
			<polygon class="st4" points="3921.8,1589.8 3903.2,1579 3903.2,1588 3921.8,1598.7 			"/>
		</g>
		<polygon class="st4" points="4006.6,1655.1 3903.2,1595.4 3903.2,1604.4 4006.6,1664 		"/>
	</g>
</g>
<g class="st3">
	<g>
		<polygon class="st4" points="4172,824.5 4172,833.5 4209.7,855.3 4209.7,846.3 		"/>
		<polygon class="st4" points="4172,841 4172,849.9 4209.7,871.7 4209.7,862.7 		"/>
		<polygon class="st4" points="4172,857.3 4172,866.3 4209.7,888.1 4209.7,879.1 		"/>
		<polygon class="st4" points="4456.6,1046.9 4456.6,1037.9 4223.9,903.7 4223.9,912.6 		"/>
		<polygon class="st4" points="4172,873.7 4172,882.7 4209.7,904.5 4209.7,895.5 		"/>
		<polygon class="st4" points="4172,890.1 4172,899.1 4209.7,920.9 4209.7,911.9 		"/>
		<polygon class="st4" points="4456.6,1063.3 4456.6,1054.3 4223.9,920 4223.9,929 		"/>
		<polygon class="st4" points="4172,939.3 4172,948.3 4209.7,970.1 4209.7,961.1 		"/>
		<polygon class="st4" points="4172,955.7 4172,964.7 4209.7,986.5 4209.7,977.5 		"/>
		<polygon class="st4" points="4172,1021.3 4172,1030.3 4209.7,1052.1 4209.7,1043.1 		"/>
		<polygon class="st4" points="4172,1037.7 4172,1046.7 4209.7,1068.5 4209.7,1059.5 		"/>
		<g>
			<polygon class="st4" points="4370.7,1152.3 4223.9,1067.6 4223.9,1076.6 4370.7,1161.3 			"/>
			<polygon class="st4" points="4378.5,1156.8 4378.5,1165.8 4456.6,1210.9 4456.6,1201.9 			"/>
		</g>
		<g>
			<polygon class="st4" points="4297.6,1093.8 4223.9,1051.2 4223.9,1060.2 4297.6,1102.8 			"/>
			<polygon class="st4" points="4305.4,1098.3 4305.4,1107.2 4456.6,1194.5 4456.6,1185.5 			"/>
		</g>
		<polygon class="st4" points="4436.7,1124.8 4436.7,1133.8 4456.6,1145.3 4456.6,1136.3 		"/>
		<polygon class="st4" points="4328.5,1046 4223.9,985.7 4223.9,994.6 4328.5,1054.9 		"/>
		<polygon class="st4" points="4285.6,890.1 4223.9,854.5 4223.9,863.4 4285.6,899 		"/>
		<g>
			<polygon class="st4" points="4386.8,948.4 4293.3,894.5 4293.3,903.5 4386.8,957.4 			"/>
		</g>
		<polygon class="st4" points="4332.3,933.4 4266.5,895.5 4266.5,904.4 4332.3,942.4 		"/>
		<g>
			<polygon class="st4" points="4401.4,973.2 4340.1,937.9 4340.1,946.8 4401.4,982.2 			"/>
			<polygon class="st4" points="4409.1,977.7 4409.1,986.7 4456.6,1014.1 4456.6,1005.1 			"/>
		</g>
		<polygon class="st4" points="4236,894.3 4236,903.2 4285.6,931.8 4285.6,922.9 		"/>
		<polygon class="st4" points="4437.2,1010.3 4293.3,927.3 4293.3,936.3 4437.2,1019.3 		"/>
		<polygon class="st4" points="4354.9,1012 4260.8,957.8 4260.8,966.7 4354.9,1021 		"/>
		<polygon class="st4" points="4437.2,1059.5 4362.6,1016.5 4362.6,1025.4 4437.2,1068.5 		"/>
		<g>
			<polygon class="st4" points="4429,1103.9 4336.2,1050.4 4336.2,1059.4 4429,1112.9 			"/>
		</g>
		<polygon class="st4" points="4378.5,1091.2 4378.5,1100.2 4429,1129.3 4429,1120.3 		"/>
		<polygon class="st4" points="4242.1,1012.5 4223.9,1002 4223.9,1011 4242.1,1021.5 		"/>
		<g>
			<polygon class="st4" points="4276.2,1032.2 4276.2,1041.2 4370.7,1095.7 4370.7,1086.7 			"/>
			<polygon class="st4" points="4268.4,1027.7 4249.8,1017 4249.8,1026 4268.4,1036.7 			"/>
		</g>
		<polygon class="st4" points="4353.2,1093.1 4249.8,1033.4 4249.8,1042.4 4353.2,1102 		"/>
	</g>
</g>
<path class="st13" d="M3490.3,1976.9c0,0-21.2-9.5-46.2,7.1s-41.8,39.7-31.7,48.2c10.2,8.5,29.9,17.7,42.7,13.1
	C3468,2040.7,3531.4,2003.4,3490.3,1976.9z"/>
<g>
	<polygon class="st20" points="4017.9,1879 3820.3,1990.9 3694.4,1918.1 3891.9,1806.2 	"/>
	<g>
		<polygon class="st31" points="3859,1988.2 3859,1992.7 4056.5,1879.6 4056.5,1876.3 		"/>
		<polygon class="st32" points="4056.5,1876.3 3859,1988.2 3733.1,1915.4 3930.6,1803.5 		"/>
		<polygon class="st33" points="3859,1988.2 3859,1992.7 3733.1,1919.8 3733.1,1915.4 		"/>
	</g>
	<polygon class="st34" points="3929.2,1815.5 4005.3,1859.3 4002,1861.2 3925.9,1817.3 	"/>
	<polygon class="st34" points="3921.4,1819.9 3997.4,1863.8 3994.1,1865.7 3918,1821.8 	"/>
	<polygon class="st34" points="3902.9,1830.3 4007.7,1890.8 4004.4,1892.7 3899.6,1832.2 	"/>
	<polygon class="st34" points="3895.7,1834.5 4000.5,1894.9 3997.1,1896.8 3892.4,1836.3 	"/>
	<polygon class="st34" points="3888.4,1838.6 3993.2,1899 3989.9,1900.9 3885.1,1840.5 	"/>
	<polygon class="st34" points="3881.2,1842.7 3985.9,1903.2 3982.6,1905.1 3877.9,1844.6 	"/>
	<polygon class="st34" points="3873.9,1846.8 3978.7,1907.3 3975.4,1909.2 3870.6,1848.7 	"/>
	<polygon class="st34" points="3866.7,1850.9 3971.4,1911.4 3968.1,1913.3 3863.4,1852.8 	"/>
	<polygon class="st34" points="3859.4,1855 3964.2,1915.5 3960.9,1917.4 3856.1,1856.9 	"/>
	<polygon class="st34" points="3852.2,1859.2 3956.9,1919.6 3953.6,1921.5 3848.9,1861.1 	"/>
	<polygon class="st34" points="3844.9,1863.3 3949.7,1923.7 3946.4,1925.6 3841.6,1865.2 	"/>
	<polygon class="st34" points="3837.7,1867.4 3942.4,1927.8 3939.1,1929.7 3834.4,1869.3 	"/>
	<polygon class="st34" points="3830.4,1871.5 3935.2,1932 3931.9,1933.8 3827.1,1873.4 	"/>
	<polygon class="st34" points="3823.2,1875.6 3927.9,1936.1 3924.6,1938 3819.9,1877.5 	"/>
	<polygon class="st34" points="3815.9,1879.7 3920.7,1940.2 3917.4,1942.1 3812.6,1881.6 	"/>
	<polygon class="st34" points="3808.7,1883.8 3913.4,1944.3 3910.1,1946.2 3805.4,1885.7 	"/>
	<polygon class="st34" points="3801.4,1888 3906.2,1948.4 3902.9,1950.3 3798.1,1889.8 	"/>
</g>
<g>
	<path class="st10" d="M3716.1,1944.2h-18.5v19.9h18.5c6.9,0,12.5,5.6,12.5,12.5v32.4c0,6.9-5.6,12.5-12.5,12.5H3689v19.9h27.1
		c17.9,0,32.4-14.5,32.4-32.4v-32.4C3748.5,1958.7,3733.9,1944.2,3716.1,1944.2z"/>
	<path class="st9" d="M3709.1,1933.2v112.2c0,17.4-25.9,31.5-57.9,31.5s-57.9-14.1-57.9-31.5v-112.2L3709.1,1933.2L3709.1,1933.2z"
		/>
	<path class="st4" d="M3593.3,1933.2c0,17.4,25.9,31.5,57.9,31.5s57.9-14.1,57.9-31.5c0-17.4-25.9-31.5-57.9-31.5
		C3619.2,1901.7,3593.3,1915.8,3593.3,1933.2z"/>
	<path class="st10" d="M3604.8,1932.8c0,13.6,20.8,24.6,46.4,24.6c25.6,0,46.4-11,46.4-24.6s-20.8-24.6-46.4-24.6
		S3604.8,1919.2,3604.8,1932.8z"/>
	<path class="st8" d="M3651.2,1924.2c-20.3,0-37.5,6.9-43.8,16.6c6.3,9.6,23.5,16.6,43.8,16.6s37.5-6.9,43.8-16.6
		C3688.7,1931.2,3671.5,1924.2,3651.2,1924.2z"/>
	<path class="st10" d="M3673.1,1962.3v112.2c11.4-2.5,20.9-7,27.3-12.6v-112.2C3694,1955.3,3684.5,1959.8,3673.1,1962.3z"/>
</g>
<g>
	<g>
		<g>
			<path class="st22" d="M4522.1,1145.2l-153.2-88.4c-4.7-2.7-10.1-2.6-15.3,0.6v0l-33.6,19.4l15.6,21.2l5.8,6.7v151.7
				c0,9,4.8,17.4,12.6,21.9l114.6,66.3l1.2,6.4l23.4,32.8l36-21.2c0.1,0,0.1-0.1,0.2-0.1l0.2-0.1v0c3.2-2,5.5-5.5,5.5-9.9v-184.7
				C4535.2,1158.4,4530.2,1149.8,4522.1,1145.2z"/>
			<path class="st4" d="M4486.3,1166.2l-155-89.4c-7.6-4.4-17,1.1-17,9.8v185.5c0,9,4.8,17.4,12.6,21.9l155,89.6
				c7.8,4.5,17.5-1.1,17.5-10.1v-184.7C4499.4,1179.5,4494.4,1170.9,4486.3,1166.2z"/>
		</g>
	</g>
	<g>
		<path class="st22" d="M4493.5,1383.6l-0.2,0.1l0,0C4493.3,1383.7,4493.4,1383.7,4493.5,1383.6z"/>
		<path class="st22" d="M4499.4,1373.5v-184.7c0-3.1-0.7-6.1-1.8-8.9l35.9-20.7c1,2.7,1.6,5.6,1.6,8.6v184.7c0,4.3-2.3,7.8-5.5,9.8
			v0l-0.2,0.1c-0.1,0-0.1,0.1-0.2,0.1l-35.7,21C4497,1381.6,4499.4,1378,4499.4,1373.5z"/>
	</g>
</g>
<image style="overflow:visible;enable-background:new    ;" width="454" height="226" xlink:href="DE1525265060CA7E.png"  transform="matrix(0.3797 0.1292 -0.1292 0.3797 4336.1787 1166.7611)">
</image>
<g>
	<g>
		<g>
			<path class="st35" d="M3320.3,962.7l-153.2-88.4c-4.7-2.7-10.1-2.6-15.3,0.6v0l-33.6,19.4l15.6,21.2l5.8,6.7v151.7
				c0,9,4.8,17.4,12.6,21.9l114.6,66.3l1.2,6.4l23.4,32.8l36-21.2c0.1,0,0.1-0.1,0.2-0.1l0.2-0.1v0c3.2-2,5.5-5.5,5.5-9.8V985.3
				C3333.4,976,3328.4,967.3,3320.3,962.7z"/>
			<path class="st36" d="M3284.5,983.7l-155-89.4c-7.6-4.4-17,1.1-17,9.8v185.5c0,9,4.8,17.4,12.6,21.9l154.9,89.6
				c7.8,4.5,17.4-1.1,17.4-10.1v-184.7C3297.6,997,3292.6,988.4,3284.5,983.7z"/>
		</g>
	</g>
	<g>
		<path class="st9" d="M3291.7,1201.1l-0.2,0.1l0,0C3291.6,1201.2,3291.6,1201.2,3291.7,1201.1z"/>
		<path class="st37" d="M3297.6,1191v-184.7c0-3.1-0.7-6.1-1.8-8.9l35.9-20.7c1,2.7,1.6,5.6,1.6,8.6V1170c0,4.3-2.3,7.8-5.5,9.8v0
			l-0.2,0.1c-0.1,0-0.1,0.1-0.2,0.1l-35.7,21C3295.2,1199.1,3297.6,1195.5,3297.6,1191z"/>
	</g>
</g>
<g>
	<path id="LOGO_2_" class="st4" d="M6739.7,998.3c-6.3,15.5-12.7,31.1-19,46.6c-0.8,1.9-3,2.8-4.9,2c-24.7-10.1-48.1-21.1-72-32.9
		c-11.2-5.1-13.1-12.9-7.8-22c7.4-14.9,13.1-30.7,19.4-46.1c0.8-1.9,3-2.8,4.9-2c22.7,9.2,45.3,18.5,68,27.7
		C6738.7,975.9,6743.8,987.7,6739.7,998.3z M6779.4,993.7c-12.1,3-24.3,6-36.4,9.1c-4.2,10.3-6.3,15.5-10.5,25.8
		c6.6,10.6,13.1,21.3,19.7,31.9c1.4,2.3,3.5,3.8,5.2-0.4c8.5-20.8,17-41.7,25.5-62.5C6784.3,993.9,6782.6,992.6,6779.4,993.7z"/>
</g>
<image style="overflow:visible;enable-background:new    ;" width="683" height="638" xlink:href="DE1525265060CA82.png"  transform="matrix(0.2379 0 0 0.2379 4274.8799 1969.6324)">
</image>
<path class="st4" d="M7010.6,1515.7l-12.2-0.3c-9.6-0.2-12.1,4.2-13.2,10.7l-2.2,14.5l26.5,6.2l-3.5,22.3l-26.5-5.8l-11,49.3
	l-23.9-0.6l11-49.3l-22.5-5.3l3.5-22.7l22.5,5.3l2.6-16.7c3-19.4,16.7-29.6,34.4-29.2c8.5,0.2,15.6,1,17.7,1.4L7010.6,1515.7z"/>
<g>
	<g id="XMLID_3_">
		<path id="XMLID_4_" class="st4" d="M6234.4,1654.7c28.9,21.3,50.6,44.2,74.4,70.7c5.3,5.9,2.2,16.9-5.3,15.4
			c-27.3-9.4-56.1-12.1-83.4-21.7c-7-2-13.7-4.4-11.6-10.1c3.3-17.1,7.4-34,11.4-50.9C6222.5,1652.5,6228.9,1650.1,6234.4,1654.7z"
			/>
	</g>
</g>
<image style="overflow:visible;enable-background:new    ;" width="775" height="775" xlink:href="DE1525265060CA85.png"  transform="matrix(0.2381 0 0 0.2381 6347.7598 2081.52)">
</image>
<g>
	<g>
		<path class="st38" d="M6213.8,884.2c48.3-4.4,85.4,33.9,82.8,85.7l-16,320.6c-2.6,51.7-43.8,97.2-92.1,101.7l-298.9,27.5
			c-48.3,4.4-85.4-33.9-82.8-85.6l16-320.6c2.6-51.8,43.8-97.4,92.1-101.8L6213.8,884.2z"/>
	</g>
	
		<linearGradient id="SVGID_2_" gradientUnits="userSpaceOnUse" x1="5835.5713" y1="1320.9794" x2="6327.1094" y2="1911.5597" gradientTransform="matrix(0.9989 4.790000e-02 4.790000e-02 -0.9989 -227.5665 2333.5547)">
		<stop  offset="0" style="stop-color:#142F8D"/>
		<stop  offset="9.510000e-02" style="stop-color:#163391"/>
		<stop  offset="0.1898" style="stop-color:#1A3D9D"/>
		<stop  offset="0.2843" style="stop-color:#224FB1"/>
		<stop  offset="0.3788" style="stop-color:#2E68CD"/>
		<stop  offset="0.4724" style="stop-color:#3C87F1"/>
		<stop  offset="0.5052" style="stop-color:#4294FF"/>
		<stop  offset="0.6095" style="stop-color:#3272D8"/>
		<stop  offset="0.7172" style="stop-color:#2555B8"/>
		<stop  offset="0.8208" style="stop-color:#1C40A0"/>
		<stop  offset="0.9174" style="stop-color:#163392"/>
		<stop  offset="1" style="stop-color:#142F8D"/>
	</linearGradient>
	<path class="st39" d="M6241.5,886.8c1.5,0.4,3,0.9,4.5,1.4c3,1,5.9,2.3,8.7,3.7c1.7,0.9,3.5,1.6,5.2,2.6l0,0c0,0,0,0,0,0
		l-97.6-59.3c-0.9-0.5-1.7-1-2.6-1.5c-0.8-0.5-1.7-0.7-2.6-1.1c-2.8-1.4-5.7-2.7-8.7-3.7c-0.8-0.3-1.4-0.7-2.2-0.9
		c-0.7-0.2-1.5-0.2-2.2-0.5c-3-0.8-6.1-1.4-9.2-1.9c-1.4-0.2-2.8-0.5-4.3-0.6c-4.6-0.4-9.4-0.5-14.3,0l-298.9,27.5
		c-4,0.4-7.9,1.1-11.7,2c-1,0.2-2,0.5-3,0.8c-3.5,1-7,2.1-10.4,3.4c-0.2,0.1-0.5,0.1-0.7,0.2c0,0-0.1,0.1-0.1,0.1
		c-4.6,1.9-8.9,4.2-13.2,6.8c-0.4,0.2-0.8,0.4-1.2,0.6c-0.2,0.2-0.5,0.4-0.7,0.5c-3.3,2.1-6.5,4.4-9.6,6.8c-0.2,0.2-0.4,0.3-0.6,0.4
		c-0.5,0.4-1,0.9-1.4,1.3c-2.2,1.9-4.4,3.9-6.5,5.9c-0.4,0.4-0.9,0.8-1.4,1.3c-0.4,0.4-0.7,0.8-1,1.2c-2.2,2.4-4.4,4.8-6.4,7.4
		c-0.3,0.3-0.6,0.6-0.9,1c-0.1,0.1-0.1,0.2-0.2,0.2c-2.4,3.1-4.6,6.4-6.7,9.8c-0.2,0.4-0.5,0.7-0.7,1c-0.3,0.4-0.4,0.9-0.7,1.4
		c-2.4,4.1-4.6,8.3-6.5,12.8c0,0.1-0.1,0.1-0.1,0.2c-0.7,1.6-1.2,3.2-1.8,4.8c-0.5,1.3-1,2.5-1.4,3.8c-0.6,1.8-1,3.6-1.5,5.3
		c-0.3,1.3-0.8,2.5-1.1,3.8c-0.5,2-0.8,4-1.1,6c-0.2,1.1-0.5,2.2-0.6,3.4c-0.5,3.2-0.8,6.3-0.9,9.6l-16,320.6
		c-1.7,33.3,13.1,61,36.7,75.4l97.6,59.3c-23.6-14.4-38.4-42.1-36.7-75.4l16-320.6c0.2-3.2,0.5-6.4,0.9-9.6c0.1-1,0.4-1.9,0.5-2.9
		c0.4-2.2,0.7-4.3,1.2-6.5c0.3-1.2,0.7-2.4,1-3.6c0.5-1.8,1-3.7,1.6-5.5c0.4-1.3,1-2.6,1.5-3.9c0.6-1.6,1.2-3.3,1.9-4.9
		c1.9-4.4,4.1-8.7,6.5-12.8c0.5-0.8,0.9-1.6,1.4-2.4c2.1-3.4,4.3-6.7,6.7-9.8c0.3-0.4,0.7-0.8,1-1.2c2-2.6,4.2-5,6.4-7.4
		c0.8-0.8,1.6-1.6,2.4-2.4c2.1-2.1,4.2-4,6.5-5.9c0.7-0.6,1.4-1.2,2-1.8c3.1-2.5,6.3-4.8,9.6-6.8c0.6-0.4,1.3-0.7,1.9-1.1
		c4.2-2.6,8.6-4.9,13.2-6.8c0.3-0.1,0.6-0.2,0.9-0.3c3.4-1.4,6.9-2.5,10.4-3.4c1-0.3,2-0.5,3-0.8c3.9-0.9,7.8-1.6,11.7-2l298.9-27.5
		c4.9-0.5,9.6-0.3,14.3,0c1.5,0.1,2.9,0.4,4.3,0.6C6235.5,885.3,6238.5,885.9,6241.5,886.8z"/>
</g>
<image style="overflow:visible;enable-background:new    ;" width="3000" height="3000" xlink:href="DE1525265060CA86.png"  transform="matrix(7.030000e-02 0 0 7.030000e-02 3981.2942 2077.1399)">
</image>
<image style="overflow:visible;enable-background:new    ;" width="3000" height="3000" xlink:href="DE1525265060CA84.png"  transform="matrix(4.440000e-02 0 0 4.440000e-02 3490.8286 810.911)">
</image>
<image style="overflow:visible;enable-background:new    ;" width="3000" height="3000" xlink:href="DE1525265060CA83.png"  transform="matrix(4.740000e-02 0 0 4.740000e-02 3823.51 1172.5146)">
</image>
<image style="overflow:visible;enable-background:new    ;" width="3000" height="3000" xlink:href="DE1525265060CA8D.png"  transform="matrix(4.650000e-02 0 0 4.650000e-02 3131.0803 989.9941)">
</image>
<image style="overflow:visible;enable-background:new    ;" width="3000" height="3000" xlink:href="DE1525265060CA8E.png"  transform="matrix(4.950000e-02 0 0 4.950000e-02 4161.8345 1534.9093)">
</image>
</svg>
