<?xml version="1.0" encoding="UTF-8"?>
<svg width="247px" height="234px" viewBox="0 0 247 234" version="1.1" xmlns="http://www.w3.org/2000/svg" xmlns:xlink="http://www.w3.org/1999/xlink">
    <title>close</title>
    <g id="Page-1" stroke="none" stroke-width="1" fill="none" fill-rule="evenodd">
        <g id="Features" transform="translate(-773.000000, -1976.000000)">
            <g id="Group-11" transform="translate(773.000000, 1976.000000)">
                <circle id="Oval" stroke="#DC2F21" stroke-width="20" fill="#FFFFFF" cx="114" cy="120" r="104"></circle>
                <g id="Group-10" transform="translate(49.000000, 0.000000)" fill-rule="nonzero">
                    <polygon id="Path" fill="#FFFFFF" transform="translate(119.357423, 72.050837) rotate(9.000000) translate(-119.357423, -72.050837) " points="188.357423 50.4226566 98.4391624 134.050837 50.3574229 88.3624712 139.556645 10.0508367"></polygon>
                    <path d="M174.21318,34.7098651 L188,39 L188,39 C147.687494,64.0693096 114.642051,88.3448467 88.8636709,111.826611 C64.0166576,134.459985 41.2970506,159.48661 20.7048499,186.906487 C20.0415364,187.7897 18.7878324,187.967986 17.9046078,187.304688 C17.575537,187.057557 17.3307142,186.714929 17.2035341,186.323539 L9.24062133,161.818072 C23.5942779,140.84549 43.9525728,118.244031 70.3155061,94.0136957 C92.8186212,73.3309432 117.671082,54.7556621 144.872889,38.2878524 C153.689865,32.9501088 164.371825,31.647466 174.21318,34.7098651 Z" id="Path" fill="#DC2F21"></path>
                    <path d="M119.924398,174.159768 L115.732195,183.953348 C115.080191,185.476521 113.316861,186.182744 111.793688,185.53074 C111.448543,185.382998 111.134195,185.171784 110.866975,184.908068 L5.55541542,80.9777955 C3.58994677,79.0381063 3.56904838,75.8723504 5.50873757,73.9068817 C6.01565235,73.3932298 6.62775041,72.9953971 7.30298178,72.7407139 L13.25,70.497623 C21.3491323,67.4427996 30.4823987,69.3008432 36.7442512,75.2772212 L114.958004,149.92525 C121.507455,156.176115 123.487183,165.836597 119.924398,174.159768 Z" id="Path" fill="#DC2F21"></path>
                </g>
            </g>
        </g>
    </g>
</svg>