<?xml version="1.0" encoding="UTF-8"?>
<svg width="251px" height="228px" viewBox="0 0 251 228" version="1.1" xmlns="http://www.w3.org/2000/svg" xmlns:xlink="http://www.w3.org/1999/xlink">
    <title>double-tick</title>
    <g id="Page-1" stroke="none" stroke-width="1" fill="none" fill-rule="evenodd">
        <g id="Features" transform="translate(-379.000000, -1974.000000)">
            <g id="double-tick" transform="translate(379.000000, 1974.000000)">
                <circle id="Oval" stroke="#8CBC39" stroke-width="20" fill="#FFFFFF" cx="114" cy="114" r="104"></circle>
                <path d="M215.908509,38.6511621 C201.12743,45.3986552 176.18503,60.8264153 143.001759,95.8837472 C122.663281,117.290223 109.285082,134.361211 100.426545,147.367677 C95.0029507,140.774121 88.8562107,133.638629 82.3478978,127.225719 C62.3709928,107.264405 130.165919,167.058022 171.656414,123.341843 C205.101911,88.0256737 227.42904,76.8256608 235.203572,73.7546896 C235.293252,73.7546896 218.241056,37.5863657 215.908509,38.6511621 Z" id="Path" stroke="#FFFFFF" stroke-width="30" fill="#FFFFFF" fill-rule="nonzero"></path>
                <path d="M242.668509,50.8430606 C238.394465,39.7417726 229.625304,41.5062157 220.119239,43.4176958 C214.445076,44.5939912 189.16926,51.9458376 149.30274,93.9983989 C132.722394,111.422275 121.816211,125.317264 114.594549,135.903923 C110.173124,130.537075 105.162175,124.729117 99.8564643,119.509306 C83.5708802,103.261725 65.369345,92.0869188 64.6324408,91.645808 C57.0423269,87.0141448 47.0941194,89.3667357 42.3779322,97.0126559 C37.7354354,104.585058 40.093529,114.51005 47.6836429,119.215232 C47.8310237,119.28875 63.453394,128.919669 76.8650514,142.373548 C90.5714706,156.047982 103.025153,174.574635 103.172533,174.795191 C106.193841,179.353335 111.27848,182 116.657881,182 C117.542166,182 118.500142,181.926482 119.458117,181.779445 C125.795494,180.676668 130.806443,175.971486 132.353942,169.795935 C132.427632,169.648898 138.838699,151.930948 172.662605,116.348012 C199.928062,87.6022925 218.129598,78.486003 224.466974,75.9863752 C224.540665,75.9863752 224.540665,75.9863752 224.688045,75.9863752 C224.688045,75.9863752 224.909117,75.9128568 225.277569,75.6923014 C226.382925,75.2511906 226.972449,75.1041537 226.972449,75.1041537 C226.677687,75.1776721 226.530306,75.1776721 226.530306,75.1776721 L226.530306,75.1041537 C229.477923,73.8543398 234.931015,71.501749 235.004705,71.4282305 C243.184342,67.8993442 245.910888,59.0771286 242.668509,50.8430606 Z" id="Path" stroke="#FFFFFF" stroke-width="2" fill="#8CBC39" fill-rule="nonzero"></path>
            </g>
        </g>
    </g>
</svg>