<?xml version="1.0" encoding="UTF-8"?>
<svg width="159px" height="158px" viewBox="0 0 159 158" version="1.1" xmlns="http://www.w3.org/2000/svg" xmlns:xlink="http://www.w3.org/1999/xlink">
    <!-- Generator: Sketch 64 (93537) - https://sketch.com -->
    <title>icon-step4</title>
    <desc>Created with Sketch.</desc>
    <defs>
        <rect id="path-1" x="0" y="0" width="159" height="158" rx="79"></rect>
        <mask id="mask-2" maskContentUnits="userSpaceOnUse" maskUnits="objectBoundingBox" x="0" y="0" width="159" height="158" fill="white">
            <use xlink:href="#path-1"></use>
        </mask>
        <linearGradient x1="93.5390055%" y1="10.1437059%" x2="40.2822152%" y2="87.4508023%" id="linearGradient-3">
            <stop stop-color="#6236FF" offset="0%"></stop>
            <stop stop-color="#8664FF" offset="100%"></stop>
        </linearGradient>
        <linearGradient x1="63.8557189%" y1="13.6245675%" x2="50%" y2="86.3754325%" id="linearGradient-4">
            <stop stop-color="#5F00F2" offset="0%"></stop>
            <stop stop-color="#3100E1" offset="100%"></stop>
        </linearGradient>
    </defs>
    <g id="Page-1" stroke="none" stroke-width="1" fill="none" fill-rule="evenodd">
        <g id="Teamvue" transform="translate(-1453.000000, -6637.000000)">
            <g id="How-can-start" transform="translate(268.000000, 6374.000000)">
                <g id="Group-26" transform="translate(0.000000, 263.000000)">
                    <g id="icon-step4" transform="translate(1185.000000, 0.000000)">
                        <use id="Rectangle" stroke="#000000" mask="url(#mask-2)" stroke-width="4" fill="#FFFFFF" stroke-linecap="round" stroke-dasharray="20" xlink:href="#path-1"></use>
                        <rect id="Rectangle" fill="url(#linearGradient-3)" opacity="0.0488978795" transform="translate(80.500000, 79.000000) scale(1, -1) translate(-80.500000, -79.000000) " x="14" y="13" width="133" height="132" rx="66"></rect>
                        <g id="icons8-checked_laptop" transform="translate(47.000000, 47.000000)" fill="url(#linearGradient-4)" fill-rule="nonzero">
                            <path d="M54.122449,0 C46.4897959,0 40.244898,6.21428571 40.244898,13.8095238 C40.244898,21.4047619 46.4897959,27.6190476 54.122449,27.6190476 C61.755102,27.6190476 68,21.4047619 68,13.8095238 C68,6.21428571 61.755102,0 54.122449,0 Z M54.122449,2.76190476 C60.2285714,2.76190476 65.2244898,7.73333333 65.2244898,13.8095238 C65.2244898,19.8857143 60.2285714,24.8571429 54.122449,24.8571429 C48.0163265,24.8571429 43.0204082,19.8857143 43.0204082,13.8095238 C43.0204082,7.73333333 48.0163265,2.76190476 54.122449,2.76190476 Z M60.0908798,7.45768226 L52.596461,16.1560643 L48.0157839,12.7036831 L46.351563,14.9153642 L52.8729268,19.8862542 L62.1725124,9.25130215 L60.0908798,7.45768226 Z M9.71428571,11.047619 C6.65289796,11.047619 4.16326531,13.5250476 4.16326531,16.5714286 L4.16326531,46.952381 C4.16326531,47.9635433 4.45730216,48.8982796 4.93574614,49.7142857 L1.3877551,49.7142857 C0.621350866,49.714362 0,50.3325907 0,51.0952381 C0,54.8921888 3.12312051,58 6.93877551,58 L59.6734694,58 C63.4891242,58 66.6122449,54.8921888 66.6122449,51.0952381 C66.6122449,50.3325907 65.990894,49.714362 65.2244898,49.7142857 L61.6764982,49.7142857 C62.1549434,48.8982796 62.4489796,47.9635433 62.4489796,46.952381 L62.4489796,28.1449958 C61.5705306,28.6518053 60.6435102,29.075585 59.6734694,29.4180612 L59.6734694,46.952381 C59.6734694,48.4755714 58.4286531,49.7142857 56.8979592,49.7142857 L9.71428571,49.7142857 C8.18359184,49.7142857 6.93877551,48.4755714 6.93877551,46.952381 L6.93877551,16.5714286 C6.93877551,15.0482381 8.18359184,13.8095238 9.71428571,13.8095238 L37.4693878,13.8095238 C37.4693878,12.8663333 37.5660976,11.948 37.7187507,11.047619 L9.71428571,11.047619 Z M3.34741713,52.4761905 L9.71428571,52.4761905 L56.8979592,52.4761905 L63.2648283,52.4761905 C62.6582572,54.0124517 61.4440395,55.2380952 59.6734694,55.2380952 L6.93877551,55.2380952 C5.16820567,55.2380952 3.95398712,54.0124517 3.34741713,52.4761905 Z" id="Shape"></path>
                        </g>
                    </g>
                </g>
            </g>
        </g>
    </g>
</svg>