<?xml version="1.0" encoding="UTF-8"?>
<svg width="46px" height="46px" viewBox="0 0 46 46" version="1.1" xmlns="http://www.w3.org/2000/svg" xmlns:xlink="http://www.w3.org/1999/xlink">
    <title>icon-right-arrow</title>
    <g id="Page-1" stroke="none" stroke-width="1" fill="none" fill-rule="evenodd">
        <g id="Sign-In-Design01" transform="translate(-920.000000, -689.000000)" fill="#6236FF" fill-rule="nonzero">
            <path d="M943,689 C933.257933,689 924.923508,695.06917 921.576172,703.636719 C921.426733,703.973251 921.474307,704.364679 921.700009,704.655616 C921.925711,704.946553 922.293027,705.089933 922.656143,705.028839 C923.019259,704.967744 923.319431,704.712058 923.4375,704.363281 C926.492164,696.54483 934.088067,691 943,691 C954.609534,691 964,700.390466 964,712 C964,723.609534 954.609534,733 943,733 C934.088067,733 926.492164,727.455171 923.4375,719.636719 C923.319431,719.287942 923.019259,719.032256 922.656143,718.971161 C922.293027,718.910067 921.925711,719.053447 921.700009,719.344384 C921.474307,719.635321 921.426733,720.026749 921.576172,720.363281 C924.923508,728.930829 933.257933,735 943,735 C955.690466,735 966,724.690466 966,712 C966,699.309534 955.690466,689 943,689 Z M943.990234,702.990234 C943.583311,702.990234 943.217025,703.23699 943.063903,703.614004 C942.910781,703.991019 943.001358,704.423219 943.292969,704.707031 L949.585938,711 L921,711 C920.639364,710.9949 920.303919,711.184375 920.122112,711.495873 C919.940306,711.80737 919.940306,712.19263 920.122112,712.504127 C920.303919,712.815625 920.639364,713.0051 921,713 L949.585938,713 L943.292969,719.292969 C943.031728,719.543786 942.926493,719.916236 943.01785,720.266678 C943.109207,720.61712 943.38288,720.890793 943.733322,720.98215 C944.083764,721.073507 944.456214,720.968272 944.707031,720.707031 L952.707031,712.707031 C953.097399,712.316501 953.097399,711.683499 952.707031,711.292969 L944.707031,703.292969 C944.51876,703.099436 944.260236,702.990234 943.990234,702.990234 Z" id="icon-right-arrow"></path>
        </g>
    </g>
</svg>