<?xml version="1.0" encoding="UTF-8"?>
<svg width="50px" height="36px" viewBox="0 0 50 36" version="1.1" xmlns="http://www.w3.org/2000/svg" xmlns:xlink="http://www.w3.org/1999/xlink">
    <title>icon-mail</title>
    <g id="Page-1" stroke="none" stroke-width="1" fill="none" fill-rule="evenodd">
        <g id="Teamvue" transform="translate(-933.000000, -8090.000000)" fill="#6237FF" fill-rule="nonzero">
            <path d="M933,8090 L933,8091 L933,8126 L983,8126 L983,8090 L933,8090 Z M935,8092 L981,8092 L981,8094.50586 C980.575713,8094.87566 962.813803,8110.35598 961.335938,8111.64258 C960.038791,8112.77185 958.717322,8113.00195 958,8113.00195 C957.283393,8113.00195 955.961399,8112.77201 954.664062,8111.64258 C953.186197,8110.35598 935.424287,8094.87566 935,8094.50586 L935,8092 Z M935,8097.15039 C937.437975,8099.27556 951.967648,8111.94193 953.353516,8113.14844 C955.05418,8114.629 956.854607,8114.99805 958,8114.99805 C959.144678,8114.99805 960.94563,8114.62917 962.646484,8113.14844 C964.032347,8111.94193 978.561926,8099.27734 981,8097.15234 L981,8124 L935,8124 L935,8097.15039 Z" id="icon-mail"></path>
        </g>
    </g>
</svg>