<?xml version="1.0" encoding="UTF-8"?>
<svg width="60px" height="74px" viewBox="0 0 60 74" version="1.1" xmlns="http://www.w3.org/2000/svg" xmlns:xlink="http://www.w3.org/1999/xlink">
    <!-- Generator: Sketch 64 (93537) - https://sketch.com -->
    <title>icon-live-screen</title>
    <desc>Created with Sketch.</desc>
    <g id="Page-1" stroke="none" stroke-width="1" fill="none" fill-rule="evenodd">
        <g id="Teamvue" transform="translate(-934.000000, -1564.000000)" fill="#000000" fill-rule="nonzero">
            <g id="Group-8" transform="translate(103.000000, 1522.000000)">
                <g id="icon-live-screen" transform="translate(831.000000, 42.000000)">
                    <path d="M57.4253276,0 L2.57467235,0 C1.15500419,0 0,1.13659375 0,2.53363281 L0,57.4411992 C0,58.8382383 1.15500419,59.974832 2.57467235,59.974832 L12.8569121,59.974832 C14.3570663,67.9448633 21.4730318,74 30,74 C39.6136768,74 47.4350702,66.3032773 47.4350702,56.8428398 C47.4350702,47.3824023 39.6136768,39.6856797 30,39.6856797 C23.7887682,39.6856797 17.99906,42.9775234 14.8905067,48.2766172 C14.5857465,48.795918 14.7666933,49.4600391 15.2944056,49.7597969 C15.822118,50.0596992 16.4969965,49.8816367 16.8016097,49.3623359 C19.5172795,44.733 24.5746821,41.8574063 30,41.8574063 C38.3969862,41.8574063 45.2281662,48.5798438 45.2281662,56.8428398 C45.2281662,65.1058359 38.3968393,71.8282734 30,71.8282734 C21.6031607,71.8282734 14.7718338,65.1058359 14.7718338,56.8428398 C14.7718338,55.7607344 14.8894786,54.681375 15.12139,53.6346797 C15.2512252,53.04875 14.8739101,52.4701914 14.2783427,52.3424258 C13.6836565,52.2145156 13.0949921,52.5859609 12.965157,53.1720352 C12.6996118,54.3703438 12.5649298,55.6053633 12.5649298,56.8426953 C12.5649298,57.165 12.5747703,57.4849922 12.5926887,57.8029609 L2.57467235,57.8029609 C2.37184163,57.8029609 2.20690398,57.6406523 2.20690398,57.4410547 L2.20690398,16.5047461 L41.5545949,16.5047461 C42.1641152,16.5047461 42.6580469,16.018543 42.6580469,15.4188828 C42.6580469,14.8192227 42.1641152,14.3330195 41.5545949,14.3330195 L2.20690398,14.3330195 L2.20690398,2.53363281 C2.20690398,2.33403516 2.37184163,2.17172656 2.57467235,2.17172656 L57.4253276,2.17172656 C57.6281584,2.17172656 57.793096,2.33403516 57.793096,2.53363281 L57.793096,14.3330195 L46.8863551,14.3330195 C46.2768348,14.3330195 45.7829031,14.8192227 45.7829031,15.4188828 C45.7829031,16.018543 46.2768348,16.5047461 46.8863551,16.5047461 L57.793096,16.5047461 L57.793096,57.4411992 C57.793096,57.6407969 57.6281584,57.8031055 57.4253276,57.8031055 L51.9029272,57.8031055 C51.2934069,57.8031055 50.7994752,58.2893086 50.7994752,58.8889687 C50.7994752,59.4886289 51.2934069,59.974832 51.9029272,59.974832 L57.4253276,59.974832 C58.8449958,59.974832 60,58.8382383 60,57.4411992 L60,2.53363281 C60,1.13659375 58.8449958,0 57.4253276,0 Z" id="Path"></path>
                    <circle id="Oval" cx="8" cy="8" r="2"></circle>
                    <circle id="Oval" cx="15" cy="8" r="2"></circle>
                    <circle id="Oval" cx="22" cy="8" r="2"></circle>
                    <path d="M26.5138804,64.9997151 C26.9453984,64.9997151 27.3770597,64.8817182 27.7704435,64.6455754 L36.7434369,59.2616694 C37.5303479,58.7895329 38,57.9440375 38,56.9997644 C38,56.0554913 37.5302045,55.209996 36.7434369,54.7380084 L27.7704435,49.3541024 C26.9836759,48.8819659 26.0440849,48.8819659 25.2573173,49.3541024 C24.4705496,49.82609 24.0007541,50.6717343 24.0007541,51.6158584 L24.0007541,62.3835214 C23.9654872,63.7947165 25.1724473,65.021467 26.5138804,64.9997151 L26.5138804,64.9997151 Z M26.1549033,51.6160074 C26.1549033,51.4285831 26.2674421,51.333083 26.3343919,51.2928568 C26.3739596,51.2691681 26.4374687,51.2407117 26.5148839,51.2407117 C26.5686445,51.2407117 26.6292864,51.2544185 26.6933689,51.2928568 L35.6663623,56.6767628 C35.8226263,56.770475 35.8458508,56.919312 35.8458508,56.9997644 C35.8458508,57.0802168 35.8226263,57.2292028 35.6663623,57.322915 L26.6933689,62.706821 C26.5373917,62.8005332 26.401485,62.7470472 26.3343919,62.706821 C26.2672987,62.6665948 26.1549033,62.5710948 26.1549033,62.3836704 L26.1549033,51.6160074 Z" id="Shape"></path>
                    <path d="M11.0025104,21 C10.4488813,21 10,21.468756 10,22.0468978 L10,33.95057 C10,34.4602934 10.3516059,34.8960247 10.8327789,34.9822792 C10.9035004,34.9949595 13.7152799,35.004853 15.0030782,34.9974677 C15.5567073,34.9942628 16.0030533,34.5228592 16,33.9447175 C15.9969152,33.3665757 15.5469664,32.9068771 14.9918695,32.9036722 C13.9306469,32.9099427 12.7853591,32.913705 12.0050209,32.913705 L12.0050209,22.0467584 C12.0050209,21.468756 11.5561396,21 11.0025104,21 L11.0025104,21 Z" id="Path"></path>
                    <path d="M21,22.0463268 L21,33.9536732 C21,34.5314996 21.4477572,35 22,35 C22.5522428,35 23,34.5314996 23,33.9536732 L23,22.0463268 C23,21.4685004 22.5522428,21 22,21 C21.4476241,21 21,21.4685004 21,22.0463268 Z" id="Path"></path>
                    <path d="M48.9631725,23.1090391 C49.535891,23.1090391 50,22.6368704 50,22.0545196 C50,21.4721688 49.535891,21 48.9631725,21 L44.0368275,21 C43.464109,21 43,21.4721688 43,22.0545196 L43,33.9454804 C43,34.5278312 43.464109,35 44.0368275,35 L48.9631725,35 C49.535891,35 50,34.5278312 50,33.9454804 C50,33.3631296 49.535891,32.8909609 48.9631725,32.8909609 L45.0736549,32.8909609 L45.0736549,29.0543792 L48.5998068,29.0543792 C49.1725253,29.0543792 49.6366343,28.5822105 49.6366343,27.9998596 C49.6366343,27.4175088 49.1725253,26.9453401 48.5998068,26.9453401 L45.0736549,26.9453401 L45.0736549,23.1088988 L48.9631725,23.1088988 L48.9631725,23.1090391 Z" id="Path"></path>
                    <path d="M36.8754665,21.7385133 L33.5779524,31.2672083 L30.1198423,21.7034178 C29.9223977,21.1574885 29.3011942,20.8687866 28.7327974,21.0580514 C28.1641104,21.2475947 27.8632285,21.8436604 28.0605281,22.3895897 L32.3039195,34.1251204 C32.4978824,34.6494632 33.0157938,35 33.5946359,35 L33.6040656,35 C34.1868247,34.9962398 34.7041558,34.6377648 34.8940566,34.1014449 L38.9440654,22.3983636 C39.1339663,21.8499274 38.8246702,21.2577612 38.2533719,21.0754598 C37.6826539,20.8932977 37.0652223,21.1900772 36.8754665,21.7385133 L36.8754665,21.7385133 Z" id="Path"></path>
                </g>
            </g>
        </g>
    </g>
</svg>