<?xml version="1.0" encoding="UTF-8"?>
<svg width="22px" height="20px" viewBox="0 0 22 20" version="1.1" xmlns="http://www.w3.org/2000/svg" xmlns:xlink="http://www.w3.org/1999/xlink">
    <title>icon-company</title>
    <g id="Page-1" stroke="none" stroke-width="1" fill="none" fill-rule="evenodd">
        <g id="Pricing" transform="translate(-647.000000, -353.000000)" fill="#000000" fill-rule="nonzero">
            <g id="Group-6" transform="translate(154.000000, 226.000000)">
                <g id="Group-30" transform="translate(6.000000, 113.000000)">
                    <g id="icons8-company" transform="translate(487.466667, 14.169811)">
                        <path d="M3.42549338,-3.74867039e-05 C3.11775015,-0.00438884939 2.83150283,0.157264129 2.67636111,0.423021361 C2.52121939,0.688778593 2.52121939,1.0174663 2.67636111,1.28322353 C2.83150283,1.54898076 3.11775015,1.71063374 3.42549338,1.70628238 L11.9588428,1.70628238 C12.266586,1.71063374 12.5528333,1.54898076 12.707975,1.28322353 C12.8631168,1.0174663 12.8631168,0.688778593 12.707975,0.423021361 C12.5528333,0.157264129 12.266586,-0.00438884939 11.9588428,-3.74867039e-05 L3.42549338,-3.74867039e-05 Z M0.865488554,3.41251656 C0.557745326,3.40825088 0.271498004,3.56990386 0.116356288,3.83566109 C-0.0387854292,4.10141833 -0.0387854292,4.43010603 0.116356288,4.69586327 C0.271498004,4.9616205 0.557745326,5.12327348 0.865488554,5.11892211 L0.865488554,19.622641 L5.9854982,19.622641 L5.9854982,16.2100012 L9.39883796,16.2100012 L9.39883796,19.622641 L14.5188476,19.622641 L14.5188476,5.11892211 C14.8265908,5.12327348 15.1128382,4.9616205 15.2679799,4.69586327 C15.4231216,4.43010603 15.4231216,4.10141833 15.2679799,3.83566109 C15.1128382,3.56990386 14.8265908,3.40825088 14.5188476,3.41251656 L0.865488554,3.41251656 Z M2.57215844,5.97208205 L4.27882832,5.97208205 L4.27882832,7.67840191 L2.57215844,7.67840191 L2.57215844,5.97208205 Z M5.9854982,5.97208205 L9.39883796,5.97208205 L9.39883796,7.67840191 L5.9854982,7.67840191 L5.9854982,5.97208205 Z M11.1055078,5.97208205 L12.8121777,5.97208205 L12.8121777,7.67840191 L11.1055078,7.67840191 L11.1055078,5.97208205 Z M16.2255175,5.97208205 L16.2255175,8.53156185 L16.2255175,10.2378817 L16.2255175,11.9442016 L16.2255175,13.6505214 L16.2255175,15.3568413 L16.2255175,17.0631612 L16.2255175,19.622641 L21.3455271,19.622641 L21.3455271,5.97208205 L16.2255175,5.97208205 Z M17.9321874,8.53156185 L19.6388572,8.53156185 L19.6388572,10.2378817 L17.9321874,10.2378817 L17.9321874,8.53156185 Z M2.57215844,9.38472178 L4.27882832,9.38472178 L4.27882832,11.0910416 L2.57215844,11.0910416 L2.57215844,9.38472178 Z M5.9854982,9.38472178 L9.39883796,9.38472178 L9.39883796,11.0910416 L5.9854982,11.0910416 L5.9854982,9.38472178 Z M11.1055078,9.38472178 L12.8121777,9.38472178 L12.8121777,11.0910416 L11.1055078,11.0910416 L11.1055078,9.38472178 Z M17.9321874,11.9442016 L19.6388572,11.9442016 L19.6388572,13.6505214 L17.9321874,13.6505214 L17.9321874,11.9442016 Z M2.57215844,12.7973615 L4.27882832,12.7973615 L4.27882832,14.5036814 L2.57215844,14.5036814 L2.57215844,12.7973615 Z M5.9854982,12.7973615 L9.39883796,12.7973615 L9.39883796,14.5036814 L5.9854982,14.5036814 L5.9854982,12.7973615 Z M11.1055078,12.7973615 L12.8121777,12.7973615 L12.8121777,14.5036814 L11.1055078,14.5036814 L11.1055078,12.7973615 Z M17.9321874,15.3568413 L19.6388572,15.3568413 L19.6388572,17.0631612 L17.9321874,17.0631612 L17.9321874,15.3568413 Z M2.57215844,16.2100012 L4.27882832,16.2100012 L4.27882832,17.9163211 L2.57215844,17.9163211 L2.57215844,16.2100012 Z M11.1055078,16.2100012 L12.8121777,16.2100012 L12.8121777,17.9163211 L11.1055078,17.9163211 L11.1055078,16.2100012 Z" id="icon-company"></path>
                    </g>
                </g>
            </g>
        </g>
    </g>
</svg>