<?xml version="1.0" encoding="UTF-8"?>
<svg width="148px" height="125px" viewBox="0 0 148 125" version="1.1" xmlns="http://www.w3.org/2000/svg" xmlns:xlink="http://www.w3.org/1999/xlink">
    <!-- Generator: Sketch 64 (93537) - https://sketch.com -->
    <title>icon-more-acc</title>
    <desc>Created with Sketch.</desc>
    <defs>
        <filter x="-30.0%" y="-60.0%" width="160.0%" height="220.0%" filterUnits="objectBoundingBox" id="filter-1">
            <feGaussianBlur stdDeviation="10" in="SourceGraphic"></feGaussianBlur>
        </filter>
        <linearGradient x1="32.7040519%" y1="3.35246496%" x2="50%" y2="67.613686%" id="linearGradient-2">
            <stop stop-color="#FFDF00" offset="0%"></stop>
            <stop stop-color="#FEBC00" offset="100%"></stop>
        </linearGradient>
    </defs>
    <g id="Page-1" stroke="none" stroke-width="1" fill="none" fill-rule="evenodd">
        <g id="Teamvue" transform="translate(-878.000000, -1046.000000)">
            <g id="Group-7" transform="translate(1.000000, 775.000000)">
                <g id="Card" transform="translate(356.500000, 271.000000)">
                    <g id="4" transform="translate(498.000000, 0.000000)">
                        <g id="icon-more-acc" transform="translate(44.000000, 0.000000)">
                            <rect id="Shadow" fill="#FEBC00" opacity="0.300000012" filter="url(#filter-1)" x="2.25" y="50" width="100" height="50" rx="19"></rect>
                            <rect id="icon-bd" fill="url(#linearGradient-2)" x="0.25" y="0" width="100" height="100" rx="19"></rect>
                            <g id="stopwatch" transform="translate(26.000000, 24.000000)" fill="#FFFFFF" fill-rule="nonzero">
                                <path d="M3.10313086,28.6875 C3.09257227,18.1250215 11.6465273,9.55393359 22.2090059,9.543375 C29.9413828,9.53560547 36.9177246,14.1847734 39.8868809,21.324375 L42.8353184,20.0971875 C39.8066953,12.8500078 33.1906406,7.72908984 25.4156309,6.6140625 L25.4156309,3.1875 L27.0093809,3.1875 C28.7697773,3.1875 30.1968809,1.76039648 30.1968809,0 L17.4468809,0.095625 C17.4428965,0.0638496094 17.4428965,0.0317753906 17.4468809,0 L14.2593809,0 C14.2593809,1.76039648 15.6864844,3.1875 17.4468809,3.1875 L19.0406309,3.1875 L19.0406309,6.63 C6.85820508,8.48532422 -1.51346484,19.8650977 0.341759766,32.0475234 C1.99198828,42.8831309 11.2679121,50.9156309 22.2281309,51 L22.2281309,47.8125 C11.6656523,47.8125 3.10313086,39.2499785 3.10313086,28.6875 Z" id="Path"></path>
                                <path d="M23.8218809,17.53125 L20.6343533,17.53125 L20.6343533,28.6875 C20.6318906,29.1111387 20.7982383,29.5182422 21.0965684,29.8190625 L22.6903184,31.4128125 L24.9375059,29.165625 L23.8218809,28.0340625 L23.8218809,17.53125 Z" id="Path"></path>
                                <path d="M38.1656309,25.5 C31.1240449,25.5 25.4156309,31.2084141 25.4156309,38.25 C25.4156309,45.2915859 31.1240449,51 38.1656309,51 C45.2072168,51 50.9156309,45.2915859 50.9156309,38.25 C50.9156309,31.2084141 45.2072168,25.5 38.1656309,25.5 Z M38.1656309,47.8125 C32.8844414,47.8125 28.6031309,43.5311895 28.6031309,38.25 C28.6031309,32.9688105 32.8844414,28.6875 38.1656309,28.6875 C43.4468203,28.6875 47.7281309,32.9688105 47.7281309,38.25 C47.7281309,43.5311895 43.4468203,47.8125 38.1656309,47.8125 Z" id="Shape"></path>
                                <path d="M36.5718809,39.1903125 L34.5159434,37.134375 L32.2687559,39.3815625 L35.4562559,42.5690625 C36.077918,43.1870391 37.0817813,43.1870391 37.7034434,42.5690625 L44.0784434,36.1940625 L41.8312559,33.946875 L36.5718809,39.1903125 Z" id="Path"></path>
                            </g>
                        </g>
                    </g>
                </g>
            </g>
        </g>
    </g>
</svg>