<?xml version="1.0" encoding="UTF-8"?>
<svg width="21px" height="23px" viewBox="0 0 21 23" version="1.1" xmlns="http://www.w3.org/2000/svg" xmlns:xlink="http://www.w3.org/1999/xlink">
    <title>icon-salary</title>
    <g id="Page-1" stroke="none" stroke-width="1" fill="none" fill-rule="evenodd">
        <g id="Pricing" transform="translate(-648.000000, -495.000000)" fill="#000000" fill-rule="nonzero">
            <g id="Group-6" transform="translate(154.000000, 226.000000)">
                <g id="Group-30" transform="translate(6.000000, 113.000000)">
                    <g id="Group-24" transform="translate(0.000000, 147.000000)">
                        <g id="icons8-money_bag" transform="translate(488.693333, 9.264151)">
                            <path d="M9.405,0.0149969237 C8.7,0.0149969237 8.20687488,0.575507067 7.86,1.06478158 C7.53937488,1.51468929 7.01812512,1.52968622 6.045,1.52968622 C5.5275,1.52968622 4.86375024,1.57842646 4.455,1.87461546 C5.06437488,2.89628077 5.85937488,3.65737489 6.585,3.85420939 C6.96937488,3.95918786 7.27875024,3.88982721 7.56,3.65924938 C8.02687488,3.21684014 8.54437488,2.74068805 9.18,2.78942781 C9.63187488,2.82129615 10.0312502,3.09873924 10.5,3.68924323 C10.5843749,3.7923472 10.7043749,3.84483644 10.845,3.85420939 C11.0943749,3.87108081 11.4037502,3.72298655 11.67,3.4792863 C11.9512502,3.22808807 12.2756251,2.97126539 12.615,2.69944627 C13.1643749,2.25891151 14.1393749,1.48094646 14.295,1.10977235 C14.1525,1.02354028 13.9556251,0.959803117 13.68,0.959803117 C13.2993749,0.959803117 12.93,1.05353413 12.57,1.1397662 C12.2625,1.21287632 11.9756251,1.27473852 11.73,1.27473852 C11.5125,1.27473852 11.3531251,1.22787325 11.235,1.10977235 C10.4962502,0.341180254 9.9525,0.0149969237 9.405,0.0149969237 Z M14.565,2.29452933 C14.1956251,2.66570343 13.7231251,3.04250102 13.215,3.44929245 C12.8943749,3.70611465 12.5775,3.96668632 12.315,4.19913864 C11.8518749,4.62280197 11.2875,4.84963032 10.77,4.81401251 C10.3668749,4.78589316 10.0256251,4.60218108 9.765,4.28912018 C9.3975,3.82421555 9.19125024,3.74173247 9.105,3.734234 C8.895,3.72861004 8.51437488,4.08666171 8.205,4.37910172 C7.81875024,4.69778659 7.37812512,4.85900328 6.915,4.85900328 C6.72187488,4.85900328 6.5325,4.82338547 6.33,4.76902174 C5.93812512,4.66216878 5.55187488,4.44471338 5.175,4.15414787 C5.6475,4.65654481 6.31687488,5.54886177 6.435,6.79360644 C7.42875024,7.40848031 9.73687488,8.44701752 12.435,6.92857875 C12.5868749,6.84234668 12.7631251,6.71862182 12.96,6.58364951 C12.975,6.57240205 12.9881251,6.56490359 13.005,6.55365566 C12.8737502,4.77089623 13.92,3.39305423 14.055,3.2243386 L14.1,3.1643509 C14.2631251,2.9075287 14.4506251,2.60384076 14.565,2.29452933 Z M16.425,5.27891715 C15.4856251,5.23580087 14.6475,5.5601097 13.965,5.93878179 C13.9518749,6.08687653 13.9575,6.2330963 13.965,6.3886895 C14.1806251,6.47679655 14.3943749,6.585524 14.61,6.68862797 C15.615,7.172279 16.5993749,7.83401814 17.49,8.63822806 C17.5012502,8.64010255 17.5087502,8.63822806 17.52,8.63822806 C17.6381251,8.63822806 17.7562502,8.59136279 17.85,8.50325574 C18.0431251,8.32141816 18.0468749,8.02147969 17.865,7.82839418 C17.0381251,6.95482361 16.0181251,6.57052708 15.015,6.49366797 C15.8062502,6.17498358 16.7325,6.08687653 17.775,6.65863413 C18.0075,6.78610798 18.2925,6.69612644 18.42,6.46367412 C18.5475,6.2312218 18.4575,5.94628025 18.225,5.8188064 C17.5837502,5.46825319 16.9893749,5.305162 16.425,5.27891715 Z M13.65,7.273508 C13.5993749,7.30725132 13.5487502,7.34474363 13.5,7.37848646 C13.2787502,7.5303302 13.0893749,7.65405506 12.915,7.75340956 C11.7337502,8.41889817 10.6068749,8.6682219 9.6,8.6682219 C7.8525,8.6682219 6.465,7.95399353 5.775,7.51345878 C2.73,8.81819114 0,12.6255353 0,15.8817422 C0,21.1156686 3.39375024,22.0754717 10.08,22.0754717 C16.7662502,22.0754717 20.16,21.1156686 20.16,15.8817422 C20.16,12.0050374 16.9237502,8.58011486 13.65,7.273508 Z M9.36,10.0779327 L10.23,10.0779327 L10.23,11.0827266 C11.4787502,11.3226774 11.91,12.192499 12.15,13.1523021 L11.28,13.1523021 C11.1356251,12.48119 10.7062502,11.9075574 9.795,11.9075574 C8.49937488,11.9075574 8.355,12.768006 8.355,13.1523021 C8.355,14.0633654 9.21375024,14.2470775 10.125,14.4870283 C11.2762502,14.7757193 12.435,15.1618899 12.435,16.6015945 C12.435,18.3299902 10.9012502,18.8173903 10.23,18.86613 L10.23,19.6759639 L9.36,19.6759639 L9.36,18.86613 C8.64,18.7217848 7.34437488,18.277501 7.2,16.4066345 L8.07,16.4066345 C8.07,16.9821416 8.45062512,18.0412992 9.795,18.0412992 C11.0906251,18.0412992 11.43,17.4264253 11.43,16.706573 C11.43,14.5957562 7.395,16.0260875 7.395,13.2422836 C7.395,11.7069734 8.64,11.1333414 9.36,11.0377358 L9.36,10.0779327 Z" id="icon-salary"></path>
                        </g>
                    </g>
                </g>
            </g>
        </g>
    </g>
</svg>