<?xml version="1.0" encoding="UTF-8"?>
<svg width="35px" height="22px" viewBox="0 0 35 22" version="1.1" xmlns="http://www.w3.org/2000/svg" xmlns:xlink="http://www.w3.org/1999/xlink">
    <title>icon-users</title>
    <g id="Page-1" stroke="none" stroke-width="1" fill="none" fill-rule="evenodd">
        <g id="Pricing" transform="translate(-276.000000, -1148.000000)" fill="#6236FF" fill-rule="nonzero">
            <g id="Group-17" transform="translate(84.000000, 826.000000)">
                <g id="Group-18" transform="translate(192.000000, 216.000000)">
                    <g id="icons8-staff" transform="translate(0.000000, 106.000000)">
                        <path d="M17.16,0 C14.5937844,0 12.48,2.12927063 12.48,4.71428571 C12.48,7.2993008 14.5937844,9.42857143 17.16,9.42857143 C19.7262156,9.42857143 21.84,7.2993008 21.84,4.71428571 C21.84,2.12927063 19.7262156,0 17.16,0 Z M6.24,3.14285714 C4.51687158,3.14285714 3.12,4.54996221 3.12,6.28571429 C3.12,8.02146636 4.51687158,9.42857143 6.24,9.42857143 C7.96312842,9.42857143 9.36,8.02146636 9.36,6.28571429 C9.36,4.54996221 7.96312842,3.14285714 6.24,3.14285714 Z M28.08,3.14285714 C26.3568716,3.14285714 24.96,4.54996221 24.96,6.28571429 C24.96,8.02146636 26.3568716,9.42857143 28.08,9.42857143 C29.8031284,9.42857143 31.2,8.02146636 31.2,6.28571429 C31.2,4.54996221 29.8031284,3.14285714 28.08,3.14285714 Z M6.24,12.5714286 C2.8314,12.5714286 0,13.9995381 0,16.0549667 L0,18.8571429 L4.68,18.8571429 L4.68,17.6263953 C4.68,15.6542524 5.50209566,13.9502597 6.95601566,12.6082597 C6.71889566,12.5941169 6.48492,12.5714286 6.24,12.5714286 Z M17.16,12.5714286 C11.65008,12.5714286 7.8,14.6501096 7.8,17.6263953 L7.8,22 L26.52,22 L26.52,17.6263953 C26.52,14.6501096 22.66992,12.5714286 17.16,12.5714286 Z M28.08,12.5714286 C27.83508,12.5714286 27.601105,12.5941153 27.363985,12.6082597 C28.817905,13.9502597 29.64,15.6558239 29.64,17.6263953 L29.64,18.8571429 L34.32,18.8571429 L34.32,16.0549667 C34.32,13.9995381 31.4886,12.5714286 28.08,12.5714286 Z" id="icon-users"></path>
                    </g>
                </g>
            </g>
        </g>
    </g>
</svg>