<?xml version="1.0" encoding="UTF-8"?>
<svg width="82px" height="64px" viewBox="0 0 82 64" version="1.1" xmlns="http://www.w3.org/2000/svg" xmlns:xlink="http://www.w3.org/1999/xlink">
    <title>icon-menu</title>
    <g id="Page-1" stroke="none" stroke-width="1" fill="none" fill-rule="evenodd">
        <g id="Features" transform="translate(-1172.000000, -2400.000000)" fill="#000000" fill-rule="nonzero">
            <g id="icon-menu" transform="translate(1172.000000, 2400.000000)">
                <path d="M3.77547,0.000378091885 C2.43301975,-0.0188227713 1.18433983,0.694488653 0.507574214,1.86717147 C-0.169191405,3.03985429 -0.169191405,4.4902247 0.507574214,5.66290752 C1.18433983,6.83559033 2.43301975,7.54890176 3.77547,7.52970089 L78.22453,7.52970089 C79.5669803,7.54890176 80.8156602,6.83559033 81.4924258,5.66290752 C82.1691914,4.4902247 82.1691914,3.03985429 81.4924258,1.86717147 C80.8156602,0.694488653 79.5669803,-0.0188227713 78.22453,0.000378091885 L3.77547,0.000378091885 Z M40.9798196,28.0003781 C40.2758518,27.9811772 39.6210563,28.6944887 39.266167,29.8671715 C38.9112777,31.0398543 38.9112777,32.4902247 39.266167,33.6629075 C39.6210563,34.8355903 40.2758518,35.5489018 40.9798196,35.5297009 L80.0201804,35.5297009 C80.7241482,35.5489018 81.3789437,34.8355903 81.733833,33.6629075 C82.0887223,32.4902247 82.0887223,31.0398543 81.733833,29.8671715 C81.3789437,28.6944887 80.7241482,27.9811772 80.0201804,28.0003781 L40.9798196,28.0003781 Z M20.9467083,56.0003781 C19.8989422,55.9811772 18.9243628,56.6944887 18.3961555,57.8671715 C17.8679482,59.0398543 17.8679482,60.4902247 18.3961555,61.6629075 C18.9243628,62.8355903 19.8989422,63.5489018 20.9467083,63.5297009 L79.0532917,63.5297009 C80.1010578,63.5489018 81.0756372,62.8355903 81.6038445,61.6629075 C82.1320518,60.4902247 82.1320518,59.0398543 81.6038445,57.8671715 C81.0756372,56.6944887 80.1010578,55.9811772 79.0532917,56.0003781 L20.9467083,56.0003781 Z" id="Shape"></path>
            </g>
        </g>
    </g>
</svg>