<?xml version="1.0" encoding="UTF-8"?>
<svg width="148px" height="125px" viewBox="0 0 148 125" version="1.1" xmlns="http://www.w3.org/2000/svg" xmlns:xlink="http://www.w3.org/1999/xlink">
    <!-- Generator: Sketch 64 (93537) - https://sketch.com -->
    <title>icon-more-eff</title>
    <desc>Created with Sketch.</desc>
    <defs>
        <filter x="-30.0%" y="-60.0%" width="160.0%" height="220.0%" filterUnits="objectBoundingBox" id="filter-1">
            <feGaussianBlur stdDeviation="10" in="SourceGraphic"></feGaussianBlur>
        </filter>
        <linearGradient x1="50%" y1="0%" x2="50%" y2="100%" id="linearGradient-2">
            <stop stop-color="#9B66FF" offset="0%"></stop>
            <stop stop-color="#6236FF" offset="100%"></stop>
        </linearGradient>
    </defs>
    <g id="Page-1" stroke="none" stroke-width="1" fill="none" fill-rule="evenodd">
        <g id="Teamvue" transform="translate(-394.000000, -1046.000000)">
            <g id="Group-7" transform="translate(1.000000, 775.000000)">
                <g id="Card" transform="translate(356.500000, 271.000000)">
                    <g id="4">
                        <g id="icon-more-eff" transform="translate(58.000000, 0.000000)">
                            <rect id="Shadow" fill="#6236FF" opacity="0.300000012" filter="url(#filter-1)" x="2.25" y="50" width="100" height="50" rx="19"></rect>
                            <rect id="icon-bd" fill="url(#linearGradient-2)" x="0" y="0" width="100" height="100" rx="19"></rect>
                            <g id="efficiency" transform="translate(21.000000, 22.000000)" fill="#FFFFFF" fill-rule="nonzero">
                                <path d="M57.0451822,27.6617328 C57.0451822,26.7797895 56.7324211,25.9460243 56.159498,25.2870607 C57.2561457,24.6784291 58.0133927,23.517166 58.0392389,22.1879028 C58.0588502,21.2244534 57.6917895,20.3081619 57.0056194,19.6079352 C56.7508988,19.3481134 56.4600162,19.1286478 56.1448745,18.9550931 C56.7051012,18.3167611 57.0451822,17.4803887 57.0451822,16.5661377 C57.0451822,15.5969069 56.6678057,14.6866235 55.9841296,14.0044211 C55.301247,13.3199514 54.3909636,12.9431417 53.421166,12.9431417 L46.9129231,12.9431417 L49.4057166,7.63323077 C50.4663158,5.37554656 49.4916437,2.6748502 47.2325992,1.61300405 C46.626915,1.328583 45.9808745,1.18438866 45.312502,1.18438866 C43.5640324,1.18438866 41.9546559,2.20621862 41.2122591,3.7877085 L39.9124696,6.55789474 C39.8716599,6.64461538 39.82983,6.73031579 39.7860729,6.81488259 C39.5702348,7.23182186 39.7330202,7.74489069 40.1500729,7.96084211 C40.5667854,8.17668016 41.080081,8.01389474 41.2960324,7.59695547 C41.3496518,7.49345749 41.4008907,7.38859919 41.451336,7.28136032 L42.7514656,4.50992713 C43.214996,3.52267206 44.2201619,2.88468016 45.3123887,2.88468016 C45.7291012,2.88468016 46.1318704,2.9745749 46.5094737,3.15187045 C47.9197895,3.81491498 48.5286478,5.50080972 47.8666235,6.91033198 L44.8240324,13.3911417 C44.7016032,13.6518704 44.7195142,13.9569231 44.8716437,14.2014413 L44.8976032,14.242251 C45.0527935,14.4917571 45.3257652,14.6434332 45.6195951,14.6434332 L53.4210526,14.6434332 C53.9360486,14.6434332 54.4187368,14.8429474 54.7817166,15.2067206 C55.1448097,15.5689069 55.3447773,16.0517085 55.3447773,16.5660243 C55.3447773,17.627417 54.4818785,18.4908826 53.4210526,18.4908826 C52.9514008,18.4908826 52.5708502,18.8715466 52.5708502,19.341085 C52.5708502,19.8106235 52.9514008,20.1912874 53.4210526,20.1912874 L54.3551417,20.1912874 C54.8898623,20.1912874 55.413247,20.4123401 55.7909636,20.7978785 C56.1546235,21.1691336 56.3493765,21.6504615 56.3390607,22.1538947 C56.3187692,23.1931822 55.4567773,24.0386235 54.4174899,24.0386235 L53.4210526,24.0386235 C52.9514008,24.0386235 52.5708502,24.4192874 52.5708502,24.8888259 C52.5708502,25.3583644 52.9514008,25.7390283 53.4210526,25.7390283 C53.9359352,25.7390283 54.4189636,25.9384291 54.7810364,26.3006154 C55.144583,26.6641619 55.3447773,27.147417 55.3447773,27.6616194 C55.3447773,28.722332 54.4818785,29.5853441 53.4210526,29.5853441 L52.425749,29.5853441 C51.9560972,29.5853441 51.5755466,29.9660081 51.5755466,30.4355466 C51.5755466,30.905085 51.9560972,31.285749 52.425749,31.285749 C52.9390445,31.285749 53.4222996,31.48583 53.7844858,31.8472227 C53.9681296,32.0315466 54.1107368,32.2460243 54.2085668,32.4848745 C54.2109474,32.491336 54.2133279,32.4976842 54.2157085,32.5040324 C54.3035628,32.7273522 54.3482267,32.9647287 54.3482267,33.2094737 C54.3482267,34.2701862 53.4857814,35.1331984 52.4256356,35.1331984 L37.311417,35.1331984 C36.4281134,35.1331984 35.5870931,34.8544453 34.8899271,34.338996 C35.0019271,34.0235142 35.0634818,33.6842267 35.0634818,33.3307692 L35.0634818,16.0331174 C35.0634818,16.0294899 35.0632551,16.0258623 35.0632551,16.0222348 C35.0632551,16.0204211 35.0634818,16.0187206 35.0633684,16.0169069 C35.0493117,15.2827854 35.1933927,14.569749 35.4913036,13.8982024 C35.9251336,12.9222834 36.63817,12.122753 37.5528745,11.586332 C38.0713846,11.282753 38.5654089,10.9257814 39.021004,10.5253927 C39.373668,10.2154656 39.4083563,9.67825101 39.0984291,9.32558704 C38.788502,8.97280972 38.2511741,8.93823482 37.8985101,9.24816194 C37.5241943,9.5771336 37.1189312,9.87005668 36.6932632,10.119336 C35.4695385,10.8370202 34.5166316,11.9048745 33.937247,13.2081781 C33.8841943,13.3278866 33.8352227,13.4487287 33.7894251,13.570251 C33.2955142,13.2186073 32.6924372,13.0109312 32.0412955,13.0109312 L27.7574089,13.0109312 C26.0915789,13.0109312 24.7363563,14.3666073 24.7363563,16.0331174 L24.7363563,26.6966964 C22.2128421,25.0182834 19.1864615,24.0386235 15.9350607,24.0386235 C7.14850202,24.0387368 0,31.1871255 0,39.9736842 C0,40.8998381 0.080145749,41.8272389 0.238396761,42.7299271 C0.319562753,43.1924372 0.760534413,43.5019109 1.22259109,43.4206316 C1.68510121,43.3395789 1.99446154,42.8989474 1.91340891,42.4364372 C1.8205668,41.9064777 1.75844534,41.3666559 1.72625101,40.8237733 L4.04095547,40.8237733 C4.51060729,40.8237733 4.89115789,40.4431093 4.89115789,39.9735709 C4.89115789,39.5040324 4.51060729,39.1233684 4.04095547,39.1233684 L1.72647773,39.1233684 C1.84335223,37.1502186 2.36378947,35.284081 3.20639676,33.6063482 L4.09978947,34.1221377 C4.23378138,34.1994494 4.37990283,34.2361781 4.52409717,34.2361781 C4.81792713,34.2361781 5.1037085,34.0835951 5.26116599,33.8109636 C5.49593522,33.4043401 5.35661538,32.8843563 4.9499919,32.649587 L4.05909312,32.1352713 C5.11969231,30.5337166 6.49520648,29.1583158 8.09676113,28.0976032 L8.61107692,28.988502 C8.76853441,29.261247 9.05431579,29.4137166 9.34814575,29.4137166 C9.49234008,29.4137166 9.6385749,29.3769879 9.77245344,29.2996761 C10.1790769,29.0649069 10.3183968,28.5449231 10.0836275,28.1382996 L9.56795142,27.2450202 C11.2456842,26.402413 13.1118219,25.8819757 15.0848583,25.7651012 L15.0848583,28.0793522 C15.0848583,28.5488907 15.4654089,28.9295547 15.9350607,28.9295547 C16.4047126,28.9295547 16.7852632,28.5488907 16.7852632,28.0793522 L16.7852632,25.7651012 C18.758413,25.8819757 20.6244372,26.402413 22.30217,27.2450202 L21.7864939,28.1381862 C21.5517247,28.5448097 21.6910445,29.0647935 22.097668,29.2995628 C22.2316599,29.3768745 22.3777814,29.4136032 22.5219757,29.4136032 C22.8158057,29.4136032 23.101587,29.2610202 23.2590445,28.9883887 L23.773247,28.0977166 C25.3748016,29.1583158 26.7502024,30.5337166 27.8108016,32.1352713 L26.9201296,32.6494737 C26.5135061,32.8842429 26.3741862,33.4042267 26.6089555,33.8108502 C26.766413,34.0835951 27.0521943,34.2360648 27.3460243,34.2360648 C27.4902186,34.2360648 27.6364534,34.199336 27.770332,34.1220243 L28.663498,33.6063482 C29.5062186,35.284081 30.0265425,37.1501053 30.143417,39.1232551 L27.8292794,39.1232551 C27.3596275,39.1232551 26.9790769,39.503919 26.9790769,39.9734575 C26.9790769,40.442996 27.3596275,40.8236599 27.8292794,40.8236599 L30.143417,40.8236599 C30.0265425,42.7966964 29.5062186,44.662834 28.6636113,46.3405668 L27.7704453,45.8248907 C27.3634818,45.5900081 26.8436113,45.7294413 26.6090688,46.1360648 C26.3742996,46.5426883 26.5136194,47.0626721 26.9202429,47.2974413 L27.8110283,47.8117571 C26.7504291,49.4133117 25.3750283,50.7888259 23.7734737,51.8494251 L23.2591579,50.9586397 C23.024502,50.5519028 22.5045182,50.4126964 22.0977814,50.6474656 C21.6911579,50.8822348 21.5518381,51.4022186 21.7866073,51.8088421 L22.3022834,52.7021215 C20.6245506,53.5448421 18.758413,54.0652794 16.7853765,54.1821538 L16.7853765,51.8680162 C16.7853765,51.3984777 16.4048259,51.0178138 15.9351741,51.0178138 C15.4655223,51.0178138 15.0849717,51.3984777 15.0849717,51.8680162 L15.0849717,54.1810202 C13.1295061,54.0652794 11.2580405,53.5533441 9.56511741,52.7074494 L10.0837409,51.8090688 C10.3185101,51.4024453 10.1791903,50.8824615 9.7725668,50.6476923 C9.3657166,50.4128097 8.84584615,50.5521296 8.61119028,50.9588664 L8.0914332,51.8591741 C6.50076113,50.8099109 5.12139271,49.4408583 4.05127126,47.8166316 L4.95010526,47.297668 C5.35672874,47.0628988 5.49604858,46.542915 5.26127935,46.1362915 C5.02662348,45.7295547 4.50641296,45.5902348 4.09990283,45.8251174 L3.20310931,46.342834 C3.06719028,46.0708826 2.93750607,45.7943968 2.81791093,45.5114494 C2.63506073,45.0789798 2.13638866,44.8767449 1.70380567,45.0593684 C1.27133603,45.2421053 1.06887449,45.741004 1.2517247,46.1734737 C3.75120648,52.0874818 9.51478543,55.9088583 15.9350607,55.9088583 C24.7216194,55.9088583 31.8700081,48.7603563 31.8700081,39.9737976 C31.8700081,38.7287611 31.7261538,37.5167126 31.4547692,36.3530688 L32.0412955,36.3530688 C32.7385749,36.3530688 33.3808745,36.1151255 33.8928097,35.717004 C34.878251,36.4419433 36.0650202,36.83383 37.311417,36.83383 L52.425749,36.83383 C54.423498,36.83383 56.0487449,35.2080162 56.0487449,33.2097004 C56.0487449,32.7607935 55.9680324,32.323336 55.8087611,31.9087773 C55.805247,31.8984615 55.8013927,31.8882591 55.7971984,31.8780567 C55.645749,31.4963725 55.4342186,31.1477895 55.1658947,30.8376356 C56.2853279,30.2200486 57.0451822,29.0279514 57.0451822,27.6617328 L57.0451822,27.6617328 Z M32.0412955,34.6525506 L30.9551903,34.6525506 C30.0348178,32.0623806 28.4627368,29.7786235 26.4366478,27.9994332 L26.4366478,16.0331174 C26.4366478,15.3043239 27.0291822,14.711336 27.7572955,14.711336 L32.0411822,14.711336 C32.7699757,14.711336 33.3628503,15.3043239 33.3628503,16.0331174 L33.3628503,33.3307692 C33.3630769,34.0596761 32.7700891,34.6525506 32.0412955,34.6525506 L32.0412955,34.6525506 Z" id="Shape"></path>
                                <path d="M15.9352874,42.7456842 C15.9354008,42.7456842 15.9354008,42.7456842 15.9352874,42.7456842 C17.4637247,42.7455709 18.7070607,41.5021215 18.7070607,39.9737976 L18.7070607,35.0667692 C18.7070607,33.538332 17.4636113,32.2948826 15.9351741,32.2948826 C14.4067368,32.2948826 13.1632874,33.538332 13.1632874,35.0667692 L13.1632874,37.2017976 L8.92610526,37.2017976 C7.39766802,37.2017976 6.15421862,38.445247 6.15421862,39.9737976 C6.15421862,41.5022348 7.39766802,42.7456842 8.92610526,42.7456842 L15.9352874,42.7456842 Z M14.8636923,35.0667692 C14.8636923,34.4759352 15.3443401,33.9952874 15.9351741,33.9952874 C16.5260081,33.9952874 17.0066559,34.4759352 17.0066559,35.0667692 L17.0066559,39.9737976 C17.0066559,40.5646316 16.5260081,41.0452794 15.9351741,41.0452794 C15.3443401,41.0452794 14.8636923,40.5646316 14.8636923,39.9737976 L14.8636923,35.0667692 Z M7.85462348,39.9736842 C7.85462348,39.3828502 8.33527126,38.9020891 8.92610526,38.9020891 L13.1632874,38.9020891 L13.1632874,39.9736842 C13.1632874,40.3533279 13.2401457,40.7154008 13.3788988,41.045166 L8.92610526,41.045166 C8.33527126,41.0452794 7.85462348,40.5645182 7.85462348,39.9736842 Z" id="Shape"></path>
                                <path d="M21.7735709,5.73365182 C22.1095709,6.71365182 23.0359514,7.3425749 24.0304615,7.3425749 C24.2331498,7.3425749 24.4388988,7.31638866 24.6427206,7.26174899 L24.8632065,7.20268826 L24.8633198,7.20268826 C26.0678866,6.87983806 26.8237733,5.66835628 26.5842429,4.44463158 L26.1084696,2.0142996 C25.9821862,1.36905263 25.5898462,0.799303644 25.032,0.451287449 C24.4741538,0.103044534 23.7897976,0.00113360324 23.154753,0.171287449 L22.6067692,0.318089069 C21.9717247,0.488242915 21.4302024,0.918672065 21.1211822,1.49907692 C20.8121619,2.07948178 20.7571822,2.76905263 20.970413,3.39094737 L21.7735709,5.73365182 Z M22.6220729,2.29826721 C22.7118543,2.12981377 22.8627368,2.00987854 23.0470607,1.9605668 L23.5949312,1.81376518 C23.6541053,1.79789474 23.7138462,1.79007287 23.7731336,1.79007287 C23.8986235,1.79007287 24.0219595,1.82521457 24.131919,1.89391093 C24.2937976,1.99491498 24.4031903,2.15373279 24.4398057,2.34100405 L24.9155789,4.77133603 C24.9840486,5.12127935 24.7678704,5.46793522 24.4233684,5.56021053 L24.2027692,5.61927126 C23.8584939,5.71154656 23.4977814,5.51962753 23.3821538,5.18215385 L22.578996,2.83956275 C22.5171012,2.65897976 22.5324049,2.46672065 22.6220729,2.29826721 L22.6220729,2.29826721 Z" id="Shape"></path>
                                <path d="M13.367336,9.37036437 L15.2341538,10.9976518 C15.6820405,11.3879514 16.2404534,11.5812308 16.7979595,11.5812308 C17.410332,11.5812308 18.0215709,11.3478219 18.4831741,10.886332 L18.6445992,10.7249069 C19.5263158,9.84319028 19.5752874,8.41598381 18.7558057,7.476 L17.1286316,5.60906883 C16.6966154,5.11334413 16.072,4.81611336 15.4148502,4.79366802 C14.7606478,4.77110931 14.1141538,5.02480972 13.6491498,5.48981377 L13.248081,5.89088259 C12.7830769,6.35588664 12.5293765,6.99931984 12.5519352,7.65646964 C12.5743806,8.31373279 12.8716113,8.93834818 13.367336,9.37036437 Z M14.4504939,7.09329555 L14.8515628,6.69222672 C14.9807935,6.56299595 15.1507206,6.49271255 15.3323239,6.49271255 C15.3403725,6.49271255 15.3485344,6.49282591 15.356583,6.49316599 C15.5473684,6.49974089 15.7214899,6.58249393 15.8468664,6.72634818 L17.4740405,8.59327935 C17.7083563,8.86217004 17.694413,9.27038057 17.4421862,9.52260729 L17.2808745,9.68391903 C17.0285344,9.93625911 16.6205506,9.95008907 16.3514332,9.71577328 L14.4846154,8.08859919 C14.3406478,7.96322267 14.2578947,7.78910121 14.2513198,7.59831579 C14.2447449,7.40753036 14.3154818,7.22819433 14.4504939,7.09329555 L14.4504939,7.09329555 Z" id="Shape"></path>
                                <path d="M9.77234008,18.3503158 L12.2027854,18.8260891 C12.3553684,18.8559028 12.507498,18.8702996 12.6579271,18.8702996 C13.7146721,18.8702996 14.6783482,18.1595304 14.9607287,17.1052794 L15.0197895,16.8847935 L15.0197895,16.8846802 C15.3425263,15.6801134 14.6713198,14.4197733 13.4918057,14.0153036 L11.1491012,13.2121457 C10.5269798,12.998915 9.83763563,13.0538947 9.25711741,13.3630283 C8.67682591,13.6721619 8.24639676,14.2136842 8.07635628,14.848502 L7.9294413,15.3964858 C7.75917409,16.0316437 7.86119838,16.7157733 8.20932794,17.2737328 C8.55745749,17.8315789 9.12720648,18.2240324 9.77234008,18.3503158 L9.77234008,18.3503158 Z M9.57191903,15.8368907 L9.71894737,15.2887935 C9.76825911,15.1044696 9.88819433,14.953587 10.0566478,14.8638057 C10.1571984,14.8102996 10.2660243,14.7833198 10.3757571,14.7833198 C10.4500081,14.7833198 10.5248259,14.7956761 10.5977166,14.8207287 L12.9405344,15.6238866 C13.2778947,15.7395142 13.4698138,16.1 13.3775385,16.444502 L13.3184777,16.6651012 C13.2262024,17.0096032 12.8794332,17.2257814 12.5296032,17.1573117 L10.0991579,16.6815385 C9.912,16.6449231 9.75306883,16.5355304 9.65217814,16.3736518 C9.55094737,16.2116599 9.52249393,16.0211012 9.57191903,15.8368907 Z" id="Shape"></path>
                            </g>
                        </g>
                    </g>
                </g>
            </g>
        </g>
    </g>
</svg>