<?xml version="1.0" encoding="UTF-8"?>
<svg width="130px" height="130px" viewBox="0 0 130 130" version="1.1" xmlns="http://www.w3.org/2000/svg" xmlns:xlink="http://www.w3.org/1999/xlink">
    <title>icon-success</title>
    <g id="Page-1" stroke="none" stroke-width="1" fill="none" fill-rule="evenodd">
        <g id="Sign-In-Design01" transform="translate(-1310.000000, -79.000000)" fill="#15C872" fill-rule="nonzero">
            <g id="Group-17" transform="translate(1016.000000, 79.000000)">
                <g id="Group-22" transform="translate(294.000000, 0.000000)">
                    <path d="M65,0 C29.1567391,0 0,29.1567391 0,65 C0,100.843261 29.1567391,130 65,130 C100.843261,130 130,100.843261 130,65 C130,52.1130435 126.213838,40.1002748 119.722316,29.9885357 L115.853007,34.5588496 C121.208442,43.4723278 124.347826,53.8652174 124.347826,65 C124.347826,97.7232609 97.7232609,124.347826 65,124.347826 C32.2767391,124.347826 5.65217391,97.7232609 5.65217391,65 C5.65217391,32.2767391 32.2767391,5.65217391 65,5.65217391 C80.3823913,5.65217391 94.3740822,11.5862941 104.929517,21.2232506 L108.627717,16.8571673 C97.0831522,6.3865148 81.7728261,0 65,0 Z M116.537449,16.2610393 L61.9310448,80.6980313 L38.9470109,59.2595109 L35.0942602,63.393768 L62.4112591,88.8727083 L120.853856,19.9150815 L116.537449,16.2610393 Z" id="icon-success"></path>
                </g>
            </g>
        </g>
    </g>
</svg>