<?xml version="1.0" encoding="UTF-8"?>
<svg width="59px" height="58px" viewBox="0 0 59 58" version="1.1" xmlns="http://www.w3.org/2000/svg" xmlns:xlink="http://www.w3.org/1999/xlink">
    <!-- Generator: Sketch 64 (93537) - https://sketch.com -->
    <title>icon-timetracking</title>
    <desc>Created with Sketch.</desc>
    <defs>
        <linearGradient x1="93.5390055%" y1="9.53753521%" x2="33.9304803%" y2="100%" id="linearGradient-1">
            <stop stop-color="#6236FF" offset="0%"></stop>
            <stop stop-color="#6236FF" offset="100%"></stop>
        </linearGradient>
        <linearGradient x1="79.8908601%" y1="9.53753521%" x2="38.9677828%" y2="100%" id="linearGradient-2">
            <stop stop-color="#6236FF" offset="0%"></stop>
            <stop stop-color="#6236FF" offset="100%"></stop>
        </linearGradient>
        <linearGradient x1="60.8847514%" y1="9.53753521%" x2="45.9826201%" y2="100%" id="linearGradient-3">
            <stop stop-color="#6236FF" offset="0%"></stop>
            <stop stop-color="#6236FF" offset="100%"></stop>
        </linearGradient>
        <linearGradient x1="60.9368968%" y1="9.53753521%" x2="45.9633741%" y2="100%" id="linearGradient-4">
            <stop stop-color="#6236FF" offset="0%"></stop>
            <stop stop-color="#6236FF" offset="100%"></stop>
        </linearGradient>
        <linearGradient x1="60.890163%" y1="9.53753521%" x2="45.9806227%" y2="100%" id="linearGradient-5">
            <stop stop-color="#6236FF" offset="0%"></stop>
            <stop stop-color="#6236FF" offset="100%"></stop>
        </linearGradient>
        <linearGradient x1="93.5390055%" y1="39.8843838%" x2="33.9304803%" y2="62.5%" id="linearGradient-6">
            <stop stop-color="#6236FF" offset="0%"></stop>
            <stop stop-color="#6236FF" offset="100%"></stop>
        </linearGradient>
        <linearGradient x1="93.5390055%" y1="39.8359231%" x2="33.9304803%" y2="62.5598836%" id="linearGradient-7">
            <stop stop-color="#6236FF" offset="0%"></stop>
            <stop stop-color="#6236FF" offset="100%"></stop>
        </linearGradient>
        <linearGradient x1="93.5390055%" y1="32.0166843%" x2="33.9304803%" y2="72.2222198%" id="linearGradient-8">
            <stop stop-color="#6236FF" offset="0%"></stop>
            <stop stop-color="#6236FF" offset="100%"></stop>
        </linearGradient>
    </defs>
    <g id="Page-1" stroke="none" stroke-width="1" fill="none" fill-rule="evenodd">
        <g id="Teamvue" transform="translate(-193.000000, -1570.000000)" fill-rule="nonzero">
            <g id="Group-8" transform="translate(103.000000, 1522.000000)">
                <g id="icon-timetracking" transform="translate(90.000000, 48.000000)">
                    <path d="M58.0018464,17.934986 L49.3018877,0.535274512 C49.1381412,0.207818641 48.8034479,0.000970813952 48.4373293,0.000958370419 C45.8870795,0.000768552225 43.4922273,1.22657905 42.0010273,3.29539405 C40.5098273,5.36420906 40.1041167,8.02375704 40.9106567,10.4430811 L42.2563712,14.4812641 L41.2963549,15.4412691 C41.1680305,15.4941932 40.0389692,14.6211868 39.902549,14.5413173 C39.8917949,14.5350341 39.8810408,14.5292342 39.8702867,14.5231926 C37.854802,13.3339957 35.654682,12.4901179 33.3609051,12.0264548 C35.5895047,10.2229181 36.4396285,7.21070945 35.4827605,4.50817202 C34.5258925,1.8056346 31.9697479,0 29.1027848,0 C26.2358217,0 23.6803953,1.80779012 22.7246017,4.51070769 C21.7688081,7.21362525 22.6201292,10.2254958 24.8494455,12.0281465 C21.997257,12.608333 19.2955095,13.7709357 16.9132707,15.4432024 L14.038176,12.5674167 C13.282427,11.8135646 12.0591171,11.8135646 11.3033681,12.5674167 L8.80418418,15.0665711 C8.18415566,15.6849576 8.05861543,16.6434683 8.4984773,17.4006699 L5.90419795,17.4006699 C4.07717237,17.3933401 2.35518227,18.2538766 1.26421998,19.7194231 L2.81087931,20.8806122 C3.53812812,19.9034096 4.68607735,19.3294418 5.90419795,19.3339712 L11.7041704,19.3339712 C13.8396613,19.3339712 15.5708187,21.0651081 15.5708187,23.2005737 C15.5708187,25.3360394 13.8396613,27.0671763 11.7041704,27.0671763 L5.90419795,27.0671763 C4.74330766,27.0658753 3.64428561,26.5436432 2.91007367,25.6444315 C2.17586173,24.7452198 1.88397922,23.5639689 2.11488261,22.4262866 L0.220224942,22.0415596 C-0.250105245,24.3582325 0.73200844,26.7286226 2.70297565,28.0338269 C0.766694616,29.3147883 -0.218531975,31.6274428 0.199125966,33.9111948 C0.616783907,36.1949469 2.35675323,38.0092229 4.62107488,38.5219864 C3.26814126,39.9294791 2.71502202,41.9236813 3.14966482,43.8269711 C3.58430763,45.7302609 4.9482615,47.286683 6.77806047,47.9673715 C5.03734777,49.5923672 4.4677161,52.1167069 5.3419009,54.3317553 C6.2160857,56.5468037 8.35617439,58.0017579 10.7375083,58 L16.5374808,58 C19.4250163,57.9961265 21.8711895,55.8715601 22.2793327,53.0130462 C24.4774325,53.7581707 26.7831277,54.1366724 29.1040878,54.1333942 C40.8305446,54.1333942 50.3706535,44.5933982 50.3706535,32.8670802 C50.3848842,28.5032679 49.0426952,24.2428702 46.5297426,20.6751989 L49.4039914,17.8014674 C49.7668034,17.4388708 49.9706468,16.9469576 49.9706468,16.4340193 C49.9706468,15.9210809 49.7668034,15.4291677 49.4039914,15.0665711 L46.9046866,12.5674167 C46.1489377,11.8135646 44.9256277,11.8135646 44.1698788,12.5674167 L43.7849056,12.9523853 L42.7447772,9.83119123 C42.1675122,8.09886634 42.4103567,6.19796058 43.4045905,4.66639307 C44.3988243,3.13482556 46.0362787,2.13922463 47.8535863,1.96132587 L56.1706259,18.5955709 L56.1706259,45.4335385 C56.163967,51.3033086 51.4071826,56.0600367 45.5373431,56.0666955 L22.3374533,56.0666955 L22.3374533,58 L45.5373431,58 C52.4744312,57.9921393 58.0960925,52.3705445 58.1039501,45.4335385 L58.1039501,18.3673205 C58.1039501,18.2172338 58.0690075,18.069208 58.0018464,17.934986 L58.0018464,17.934986 Z M31.0374119,7.7341635 L27.1707636,7.7341635 L27.1707636,5.80086221 L31.0374119,5.80086221 L31.0374119,7.7341635 Z M28.1374257,9.66746478 L30.0707499,9.66746478 L30.0707499,11.6233615 C29.4290071,11.5948453 28.7778393,11.5948453 28.1374257,11.6233615 L28.1374257,9.66746478 Z M29.1040878,1.93425965 C31.1844916,1.93425965 33.0314872,3.26548304 33.6893686,5.23910399 C34.3472501,7.21272494 33.668397,9.38588793 32.004074,10.6341154 L32.004074,9.66746478 C32.5379467,9.66746478 32.9707361,9.23468054 32.9707361,8.70081414 L32.9707361,4.83421157 C32.9707361,4.30034517 32.5379467,3.86756093 32.004074,3.86756093 L26.2041016,3.86756093 C25.6702288,3.86756093 25.2374395,4.30034517 25.2374395,4.83421157 L25.2374395,8.70081414 C25.2374395,9.23468054 25.6702288,9.66746478 26.2041016,9.66746478 L26.2041016,10.6341154 C24.5397786,9.38588793 23.8609255,7.21272494 24.518807,5.23910399 C25.1766884,3.26548304 27.023684,1.93425965 29.1040878,1.93425965 Z M11.1380689,17.4006699 L10.1714069,16.4340193 L12.6708325,13.9348649 L15.3689072,16.6329076 C14.9008011,17.0292344 14.4496921,17.4458205 14.0155803,17.8826661 C13.2866132,17.5642636 12.4996421,17.4001572 11.7041704,17.4006699 L11.1380689,17.4006699 Z M2.03754965,32.8670802 C2.03994691,30.7326083 3.76970083,29.0028748 5.90419795,29.0004776 L11.7041704,29.0004776 C13.8396613,29.0004776 15.5708187,30.7316145 15.5708187,32.8670802 C15.5708187,35.0025458 13.8396613,36.7336827 11.7041704,36.7336827 L5.90419795,36.7336827 C3.76970083,36.7312855 2.03994691,35.001552 2.03754965,32.8670802 Z M8.80418418,46.4001891 C6.66869329,46.4001891 4.93753588,44.6690522 4.93753588,42.5335866 C4.93753588,40.3981209 6.66869329,38.666984 8.80418418,38.666984 L14.6041566,38.666984 C16.7396475,38.666984 18.470805,40.3981209 18.470805,42.5335866 C18.470805,44.6690522 16.7396475,46.4001891 14.6041566,46.4001891 L8.80418418,46.4001891 Z M16.5374808,56.0666955 L10.7375083,56.0666955 C8.60201744,56.0666955 6.87086003,54.3355586 6.87086003,52.200093 C6.87086003,50.0646273 8.60201744,48.3334904 10.7375083,48.3334904 L16.5374808,48.3334904 C18.6729717,48.3334904 20.4041291,50.0646273 20.4041291,52.200093 C20.4041291,54.3355586 18.6729717,56.0666955 16.5374808,56.0666955 Z M29.1040878,52.2001227 C26.7426097,52.2042478 24.4005857,51.7731724 22.1953539,50.928464 C21.762048,49.0184171 20.3973111,47.4542734 18.5636045,46.7660664 C20.578755,44.887232 20.9897731,41.8481804 19.5460957,39.501566 L21.2161252,38.5375736 L20.2494632,36.8630931 L18.2426727,38.021503 C17.555225,37.4653995 16.7493994,37.074355 15.8871589,36.8784386 C16.6928441,36.0405771 17.22758,34.9795389 17.4217349,33.8334891 L19.437467,33.8334891 L19.437467,31.9004295 L17.4220974,31.9004295 C17.1528693,30.3194367 16.2420447,28.9200685 14.9053927,28.0338269 C16.3854032,27.0561847 17.3357283,25.4541866 17.4841819,23.6866671 C17.6326355,21.9191475 16.9628419,20.1810791 15.6666391,18.9702689 C19.7320124,15.0369814 25.3165778,13.0822764 30.9475124,13.6216701 C40.6200539,14.5570254 48.4373293,23.0604094 48.4373293,32.8670802 C48.4373293,43.5274242 39.7644372,52.2001227 29.1040878,52.2001227 L29.1040878,52.2001227 Z M45.5373431,13.9348649 L48.0365271,16.4340193 L45.3371232,19.1333912 C44.5747054,18.2324296 43.7388582,17.396269 42.8381809,16.6335118 L45.5373431,13.9348649 Z" id="Shape" fill="url(#linearGradient-1)"></path>
                    <path d="M28.496995,15 C24.3237357,15.0005084 20.2862207,16.4737603 17.1039501,19.157217 L18.3704282,20.6388818 C24.283154,15.6586783 32.9730109,15.7310569 38.8009338,20.8090493 C44.6288567,25.8870416 45.8385096,34.4403151 41.6449186,40.9184371 C37.4513276,47.3965591 29.1182971,49.8472459 22.0533385,46.6801857 L21.2463531,48.4518154 C23.5239233,49.4776237 25.9964988,50.0055624 28.496995,50 C38.2052744,50 46.1039501,42.1492713 46.1039501,32.4999779 C46.1039501,22.8506845 38.2052744,15 28.496995,15 L28.496995,15 Z" id="Path" fill="url(#linearGradient-2)"></path>
                    <polygon id="Path" fill="url(#linearGradient-3)" points="28.1039501 42 30.1039501 42 30.1039501 46 28.1039501 46"></polygon>
                    <polygon id="Path" fill="url(#linearGradient-3)" points="28.1039501 19 30.1039501 19 30.1039501 23 28.1039501 23"></polygon>
                    <polygon id="Path" fill="url(#linearGradient-4)" transform="translate(34.799094, 42.942835) rotate(-30.000728) translate(-34.799094, -42.942835) " points="33.8312103 41.0116885 35.7634963 41.013429 35.7669772 44.8739817 33.8346912 44.8722413"></polygon>
                    <polygon id="Path" fill="url(#linearGradient-4)" transform="translate(23.199335, 22.893194) rotate(-30.000728) translate(-23.199335, -22.893194) " points="22.231452 20.9620474 24.1637379 20.9637879 24.1672188 24.8243406 22.2349329 24.8226001"></polygon>
                    <polygon id="Path" fill="url(#linearGradient-5)" transform="translate(39.044784, 38.707591) rotate(-59.999272) translate(-39.044784, -38.707591) " points="38.0779661 36.7744352 40.0081218 36.7761756 40.0116027 40.6407474 38.081447 40.6390071"></polygon>
                    <polygon id="Path" fill="url(#linearGradient-5)" transform="translate(18.953282, 27.131332) rotate(-59.999272) translate(-18.953282, -27.131332) " points="17.986464 25.1981757 19.9166197 25.199916 19.9201006 29.0644879 17.9899449 29.0627475"></polygon>
                    <polygon id="Path" fill="url(#linearGradient-6)" points="38.1039501 32 42.1039501 32 42.1039501 34 38.1039501 34"></polygon>
                    <polygon id="Path" fill="url(#linearGradient-7)" transform="translate(34.799351, 22.894867) rotate(-59.999272) translate(-34.799351, -22.894867) " points="32.8682041 21.9269835 36.7287568 21.9304644 36.7304972 23.8627503 32.8699445 23.8592695"></polygon>
                    <polygon id="Path" fill="url(#linearGradient-7)" transform="translate(23.198837, 42.944659) rotate(-59.999272) translate(-23.198837, -42.944659) " points="21.2676903 41.9767756 25.128243 41.9802565 25.1299834 43.9125424 21.2694307 43.9090616"></polygon>
                    <path d="M26.1039509,33.2369765 C26.1031231,34.2859938 26.7273386,35.2448367 27.7149583,35.7116062 C28.7025779,36.1783757 29.8829676,36.0724265 30.7613667,35.4381671 C31.6397658,34.8039078 32.0644106,33.7509214 31.8573112,32.7205673 L41.1039509,27.5898363 L40.128952,26 L30.8809828,31.1317663 C30.0191066,30.4359767 28.8107691,30.2799271 27.7850689,30.7319473 C26.7593688,31.1839675 26.1032275,32.1616823 26.1039509,33.2369765 L26.1039509,33.2369765 Z M29.0064516,32.316666 C29.5407871,32.316666 29.9739516,32.728703 29.9739516,33.2369765 C29.9739516,33.7452499 29.5407871,34.157287 29.0064516,34.157287 C28.4721161,34.157287 28.0389517,33.7452499 28.0389517,33.2369765 C28.0395515,32.7289396 28.4723648,32.3172366 29.0064516,32.316666 L29.0064516,32.316666 Z" id="Shape" fill="url(#linearGradient-8)"></path>
                </g>
            </g>
        </g>
    </g>
</svg>