<?xml version="1.0" encoding="UTF-8"?>
<svg width="30px" height="46px" viewBox="0 0 30 46" version="1.1" xmlns="http://www.w3.org/2000/svg" xmlns:xlink="http://www.w3.org/1999/xlink">
    <title>icon-call</title>
    <g id="Page-1" stroke="none" stroke-width="1" fill="none" fill-rule="evenodd">
        <g id="Teamvue" transform="translate(-943.000000, -8155.000000)" fill="#6236FF" fill-rule="nonzero">
            <path d="M948,8155 C945.250484,8155 943,8157.25048 943,8160 L943,8196 C943,8198.74952 945.250484,8201 948,8201 L968,8201 C970.749516,8201 973,8198.74952 973,8196 L973,8160 C973,8157.25048 970.749516,8155 968,8155 L948,8155 Z M968.646484,8157.07227 C969.998596,8157.36519 971,8158.55448 971,8160 L971,8196 C971,8197.66848 969.668484,8199 968,8199 L948,8199 C946.331516,8199 945,8197.66848 945,8196 L945,8160 C945,8158.5739 945.9763,8157.40061 947.300781,8157.08789 C947.304489,8157.08911 947.306816,8157.09257 947.310547,8157.09375 C948.030547,8157.32275 948.555687,8157.92688 948.679688,8158.67188 L948.982422,8160.49219 C949.223422,8161.94519 950.468406,8163 951.941406,8163 L963.941406,8163 C965.415406,8163 966.659391,8161.94419 966.900391,8160.49219 L967.203125,8158.67188 C967.330881,8157.90534 967.897613,8157.27848 968.646484,8157.07227 Z M955,8158 L958,8158 C958.553,8158 959,8158.448 959,8159 C959,8159.552 958.553,8160 958,8160 L955,8160 C954.447,8160 954,8159.552 954,8159 C954,8158.448 954.447,8158 955,8158 Z M961,8158 C961.552,8158 962,8158.448 962,8159 C962,8159.552 961.552,8160 961,8160 C960.448,8160 960,8159.552 960,8159 C960,8158.448 960.448,8158 961,8158 Z" id="icon-call"></path>
        </g>
    </g>
</svg>