<?xml version="1.0" encoding="UTF-8"?>
<svg width="66px" height="54px" viewBox="0 0 66 54" version="1.1" xmlns="http://www.w3.org/2000/svg" xmlns:xlink="http://www.w3.org/1999/xlink">
    <!-- Generator: Sketch 64 (93537) - https://sketch.com -->
    <title>icon-web-usage</title>
    <desc>Created with Sketch.</desc>
    <g id="Page-1" stroke="none" stroke-width="1" fill="none" fill-rule="evenodd">
        <g id="Teamvue" transform="translate(-684.000000, -1574.000000)" fill="#000000" fill-rule="nonzero">
            <g id="Group-8" transform="translate(103.000000, 1522.000000)">
                <g id="Group-12" transform="translate(539.000000, 52.000000)">
                    <g id="icon-web-usage" transform="translate(42.000000, 0.000000)">
                        <path d="M4.08016304,0 C1.821501,0 0,1.87623426 0,4.10773026 L0,52.5789474 C0,53.3616362 0.644531609,54 1.43478261,54 L64.5652174,54 C65.3554684,54 66,53.3616362 66,52.5789474 L66,4.10773026 C66,1.87623426 64.178499,0 61.919837,0 L4.08016304,0 Z M4.08016304,2.84210526 L61.919837,2.84210526 C62.586787,2.84210526 63.1304348,3.375 63.1304348,4.10773026 L63.1304348,17.0526316 L2.86956522,17.0526316 L2.86956522,4.10773026 C2.86956522,3.375 3.41321296,2.84210526 4.08016304,2.84210526 Z M24.3913043,5.68421053 L24.3913043,14.2105263 L58.826087,14.2105263 L58.826087,5.68421053 L24.3913043,5.68421053 Z M8.60869565,7.10526316 C7.02258796,7.10526316 5.73913043,8.37643879 5.73913043,9.94736842 C5.73913043,11.5182981 7.02258796,12.7894737 8.60869565,12.7894737 C10.1948033,12.7894737 11.4782609,11.5182981 11.4782609,9.94736842 C11.4782609,8.37643879 10.1948033,7.10526316 8.60869565,7.10526316 Z M17.2173913,7.10526316 C15.6312836,7.10526316 14.3478261,8.37643879 14.3478261,9.94736842 C14.3478261,11.5182981 15.6312836,12.7894737 17.2173913,12.7894737 C18.803499,12.7894737 20.0869565,11.5182981 20.0869565,9.94736842 C20.0869565,8.37643879 18.803499,7.10526316 17.2173913,7.10526316 Z M27.2608696,8.52631579 L55.9565217,8.52631579 L55.9565217,11.3684211 L27.2608696,11.3684211 L27.2608696,8.52631579 Z M2.86956522,19.8947368 L63.1304348,19.8947368 L63.1304348,51.1578947 L2.86956522,51.1578947 L2.86956522,19.8947368 Z M7.17391304,24.1578947 L7.17391304,34.1052632 L38.7391304,34.1052632 L38.7391304,24.1578947 L7.17391304,24.1578947 Z M43.0434783,24.1578947 L43.0434783,46.8947368 L58.826087,46.8947368 L58.826087,24.1578947 L43.0434783,24.1578947 Z M10.0434783,27 L35.8695652,27 L35.8695652,31.2631579 L10.0434783,31.2631579 L10.0434783,27 Z M45.9130435,27 L55.9565217,27 L55.9565217,44.0526316 L45.9130435,44.0526316 L45.9130435,27 Z M7.17391304,36.9473684 L7.17391304,46.8947368 L38.7391304,46.8947368 L38.7391304,36.9473684 L7.17391304,36.9473684 Z M10.0434783,39.7894737 L35.8695652,39.7894737 L35.8695652,44.0526316 L10.0434783,44.0526316 L10.0434783,39.7894737 Z" id="Shape"></path>
                    </g>
                </g>
            </g>
        </g>
    </g>
</svg>