<?xml version="1.0" encoding="UTF-8"?>
<svg width="20px" height="21px" viewBox="0 0 20 21" version="1.1" xmlns="http://www.w3.org/2000/svg" xmlns:xlink="http://www.w3.org/1999/xlink">
    <title>icon-percentage</title>
    <g id="Page-1" stroke="none" stroke-width="1" fill="none" fill-rule="evenodd">
        <g id="Pricing" transform="translate(-652.000000, -643.000000)" fill="#000000" fill-rule="nonzero">
            <g id="Group-6" transform="translate(154.000000, 226.000000)">
                <g id="Group-30" transform="translate(6.000000, 113.000000)">
                    <g id="Group-29" transform="translate(3.000000, 294.000000)">
                        <g id="icons8-percentage" transform="translate(489.373333, 10.520833)">
                            <path d="M4.29333333,0 C1.93672021,0 0,1.94066733 0,4.30208333 C0,6.66349933 1.93672021,8.60416667 4.29333333,8.60416667 C6.64994645,8.60416667 8.58666667,6.66349933 8.58666667,4.30208333 C8.58666667,1.94066733 6.64994645,0 4.29333333,0 Z M14.696042,1.21476231 C14.2917131,1.22592849 13.9188615,1.43608499 13.6993753,1.77652995 L3.88604173,16.5265293 C3.63464125,16.8918691 3.59926376,17.3646224 3.79347974,17.763445 C3.98769572,18.1622677 4.38135213,18.4252404 4.82344577,18.4514891 C5.26553942,18.4777379 5.68743292,18.2631874 5.92729161,17.8901373 L15.7406247,3.14013672 C16.0022214,2.75895522 16.0281019,2.26288542 15.8075962,1.85644941 C15.5870906,1.45001341 15.1575401,1.202039 14.696042,1.21476231 Z M4.29333333,2.45833333 C5.32406674,2.45833333 6.13333333,3.26924925 6.13333333,4.30208333 C6.13333333,5.33491742 5.32406674,6.14583333 4.29333333,6.14583333 C3.26259993,6.14583333 2.45333333,5.33491742 2.45333333,4.30208333 C2.45333333,3.26924925 3.26259993,2.45833333 4.29333333,2.45833333 Z M15.3333333,11.0625 C12.9767202,11.0625 11.04,13.0031673 11.04,15.3645833 C11.04,17.7259993 12.9767202,19.6666667 15.3333333,19.6666667 C17.6899465,19.6666667 19.6266667,17.7259993 19.6266667,15.3645833 C19.6266667,13.0031673 17.6899465,11.0625 15.3333333,11.0625 Z M15.3333333,13.5208333 C16.364067,13.5208333 17.1733333,14.331749 17.1733333,15.3645833 C17.1733333,16.3974177 16.364067,17.2083333 15.3333333,17.2083333 C14.3025997,17.2083333 13.4933333,16.3974177 13.4933333,15.3645833 C13.4933333,14.331749 14.3025997,13.5208333 15.3333333,13.5208333 Z" id="icon-percentage" fill="#01A546"></path>
                        </g>
                    </g>
                </g>
            </g>
        </g>
    </g>
</svg>