<?xml version="1.0" encoding="UTF-8"?>
<svg width="20px" height="14px" viewBox="0 0 20 14" version="1.1" xmlns="http://www.w3.org/2000/svg" xmlns:xlink="http://www.w3.org/1999/xlink">
    <title>icon-rifght-whote</title>
    <g id="Page-1" stroke="none" stroke-width="1" fill="none" fill-rule="evenodd">
        <g id="Sign-In-Design01" transform="translate(-1569.000000, -730.000000)" fill="#FFFFFF" fill-rule="nonzero">
            <g id="Group-17" transform="translate(1016.000000, 312.000000)">
                <g id="Group-15" transform="translate(0.000000, 395.000000)">
                    <g id="Group-22" transform="translate(386.000000, 0.000000)">
                        <path d="M179.722891,23.0017614 C179.504953,23.0403545 179.330148,23.1992685 179.268852,23.4103965 C179.207557,23.6237951 179.271123,23.8508146 179.432307,24.0006472 L184.771805,29.340146 L167.609131,29.340146 C167.590969,29.340146 167.572808,29.340146 167.554646,29.340146 C167.234549,29.3560375 166.984827,29.6284609 167.000718,29.9485582 C167.01661,30.2686556 167.289033,30.5183773 167.609131,30.5024858 L184.771805,30.5024858 L179.432307,35.8419846 C179.259772,35.982737 179.180315,36.2074859 179.230259,36.4254246 C179.280203,36.6410933 179.450468,36.811358 179.666137,36.861302 C179.884075,36.9112466 180.108825,36.8317896 180.249577,36.6592548 L186.587961,30.3390318 L186.987516,29.9213159 L186.587961,29.5036 L180.249577,23.183377 C180.129257,23.053976 179.954452,22.9881405 179.777376,23.0017614 C179.759215,23.0017614 179.741053,23.0017614 179.722891,23.0017614 Z" id="icon-rifght-whote"></path>
                    </g>
                </g>
            </g>
        </g>
    </g>
</svg>