<?xml version="1.0" encoding="UTF-8"?>
<svg width="32px" height="32px" viewBox="0 0 32 32" version="1.1" xmlns="http://www.w3.org/2000/svg" xmlns:xlink="http://www.w3.org/1999/xlink">
    <!-- Generator: Sketch 64 (93537) - https://sketch.com -->
    <title>linked-in</title>
    <desc>Created with Sketch.</desc>
    <g id="Page-1" stroke="none" stroke-width="1" fill="none" fill-rule="evenodd">
        <g id="Teamvue" transform="translate(-946.000000, -7972.000000)" fill="#383D4A" fill-rule="nonzero">
            <path d="M974.190476,7972 L949.809524,7972 C947.706667,7972 946,7973.70667 946,7975.80952 L946,8000.19048 C946,8002.29333 947.706667,8004 949.809524,8004 L974.190476,8004 C976.293333,8004 978,8002.29333 978,8000.19048 L978,7975.80952 C978,7973.70667 976.293333,7972 974.190476,7972 Z M955.904762,7984.19048 L955.904762,7998.66667 L951.333333,7998.66667 L951.333333,7984.19048 L955.904762,7984.19048 Z M951.333333,7979.97714 C951.333333,7978.91048 952.247619,7978.09524 953.619048,7978.09524 C954.990476,7978.09524 955.851429,7978.91048 955.904762,7979.97714 C955.904762,7981.04381 955.051429,7981.90476 953.619048,7981.90476 C952.247619,7981.90476 951.333333,7981.04381 951.333333,7979.97714 Z M972.666667,7998.66667 L968.095238,7998.66667 C968.095238,7998.66667 968.095238,7991.61143 968.095238,7991.04762 C968.095238,7989.52381 967.333333,7988 965.428571,7987.96952 L965.367619,7987.96952 C963.52381,7987.96952 962.761905,7989.53905 962.761905,7991.04762 C962.761905,7991.74095 962.761905,7998.66667 962.761905,7998.66667 L958.190476,7998.66667 L958.190476,7984.19048 L962.761905,7984.19048 L962.761905,7986.14095 C962.761905,7986.14095 964.232381,7984.19048 967.188571,7984.19048 C970.213333,7984.19048 972.666667,7986.27048 972.666667,7990.48381 L972.666667,7998.66667 Z" id="linked-in"></path>
        </g>
    </g>
</svg>