<?xml version="1.0" encoding="UTF-8"?>
<svg width="187px" height="115px" viewBox="0 0 187 115" version="1.1" xmlns="http://www.w3.org/2000/svg" xmlns:xlink="http://www.w3.org/1999/xlink">
    <title>offer-2</title>
    <g id="offer-2" stroke="none" stroke-width="1" fill="none" fill-rule="evenodd">
        <g id="offer">
            <g id="Group-2204" transform="translate(0.000000, 18.204338)">
                <path d="M176.7,42.1 C176.3,41.7 176.3,41.7 176.7,41.4 L176.7,42.1 Z" id="Fill-7" fill="#E1F5FC"></path>
                <g id="Group" transform="translate(0.000000, 0.000000)">
                    <polygon id="Fill-2190" fill="#05AF5D" points="0.2 41.4 16 41.4 16 59.2"></polygon>
                    <path d="M30.2,34.1 L30.2,45.1 L3.5,45.1 C1.3,42.9 0.2,41.3 0.2,41.3 L0.2,34.1 L30.2,34.1 Z" id="Fill-2194" fill="#05AF5D"></path>
                    <polygon id="Fill-2196" fill="#105CF8" points="186.1 38.6 140.4 97 13.6 97 13.6 38.6"></polygon>
                    <polygon id="Fill-2198" fill="#FFFFFF" opacity="0.1485" points="101.7 38.6 55.9 97 140.4 97 186.1 38.6"></polygon>
                    <polygon id="Fill-2200" fill="#FEBC00" points="124.1 38.6 118.9 45.2 13.6 45.2 13.6 38.6"></polygon>
                    <polygon id="Fill-2202" fill="#15C872" points="148.4 0.1 132.2 20.7 116 41.4 0.2 41.4 0.2 0.1"></polygon>
                </g>
            </g>
            <text id="OFFER" fill="#FFFFFF" fill-rule="nonzero" font-family="Helvetica" font-size="30" font-weight="normal">
                <tspan x="8" y="49">OFFER</tspan>
            </text>
            <text id="OFF" fill="#FFFFFF" fill-rule="nonzero" font-family="Helvetica" font-size="18" font-weight="normal">
                <tspan x="107.3661" y="85.8604">OFF</tspan>
            </text>
            <g id="Group-2211" transform="translate(13.467126, 0.306149)">
                <polygon id="Fill-2205" fill="#FFFFFF" opacity="0.1485" points="78.3 18 45.8 59.3 103.1 59.3 135.6 18"></polygon>
                <polygon id="Fill-2207" fill="#FFC729" points="91.4 0.2 85.5 7.6 79.7 15 0.3 15 0.3 0.2"></polygon>
                <polygon id="Fill-2209" fill="#FFFFFF" opacity="0.1507" points="70.8 0.2 59.1 15 79.7 15 91.4 0.2"></polygon>
            </g>
            <text id="50%" fill="#FFFFFF" fill-rule="nonzero" font-family="Helvetica" font-size="40" font-weight="normal">
                <tspan x="20.6121" y="102.7496">50%</tspan>
            </text>
            <text id="LIMITED" fill="#000000" fill-rule="nonzero" font-family="Helvetica" font-size="9" font-weight="normal">
                <tspan x="17.2855" y="11.5124">LIMITED</tspan>
            </text>
            <text id="PERIOD" fill="#000000" fill-rule="nonzero" font-family="Helvetica" font-size="9" font-weight="normal">
                <tspan x="55.6342" y="11.5124">PERIOD</tspan>
            </text>
            <g id="Group-2254" transform="translate(147.329027, 100.533686)" fill="#FFFFFF" opacity="0.1485">
                <polygon id="Fill-2244" points="9.3 0.6 0.2 12.8 9 12.8 18.1 0.6"></polygon>
            </g>
        </g>
    </g>
</svg>