<?xml version="1.0" encoding="UTF-8"?>
<svg width="37px" height="30px" viewBox="0 0 37 30" version="1.1" xmlns="http://www.w3.org/2000/svg" xmlns:xlink="http://www.w3.org/1999/xlink">
    <!-- Generator: Sketch 64 (93537) - https://sketch.com -->
    <title>twitter</title>
    <desc>Created with Sketch.</desc>
    <g id="Page-1" stroke="none" stroke-width="1" fill="none" fill-rule="evenodd">
        <g id="Teamvue" transform="translate(-1042.000000, -7974.000000)" fill="#383D4A" fill-rule="nonzero">
            <path d="M1078.47321,7977.88393 C1077.15346,7978.46987 1075.73884,7978.86328 1074.25167,7979.04185 C1075.76953,7978.13225 1076.93583,7976.69252 1077.4827,7974.97935 C1076.06529,7975.8192 1074.48884,7976.43025 1072.81752,7976.75949 C1071.47824,7975.33091 1069.56975,7974.44085 1067.45759,7974.44085 C1063.40067,7974.44085 1060.11105,7977.72768 1060.11105,7981.7846 C1060.11105,7982.35938 1060.17801,7982.9202 1060.30357,7983.45871 C1054.19866,7983.15179 1048.7885,7980.22768 1045.16406,7975.78292 C1044.53069,7976.87109 1044.17076,7978.13225 1044.17076,7979.47712 C1044.17076,7982.02455 1045.4654,7984.27344 1047.43806,7985.59319 C1046.2327,7985.55413 1045.09989,7985.2221 1044.10938,7984.67243 C1044.10938,7984.70312 1044.10938,7984.73382 1044.10938,7984.76451 C1044.10938,7988.32478 1046.64286,7991.29074 1049.99944,7991.96875 C1049.3856,7992.13616 1048.73549,7992.22545 1048.06585,7992.22545 C1047.59152,7992.22545 1047.13114,7992.1808 1046.68192,7992.09152 C1047.61942,7995.00725 1050.33147,7997.13616 1053.54297,7997.19475 C1051.03181,7999.16462 1047.86496,8000.3365 1044.42188,8000.3365 C1043.82757,8000.3365 1043.24442,8000.30301 1042.67243,8000.23326 C1045.9202,8002.32031 1049.78181,8003.53404 1053.9308,8003.53404 C1067.44085,8003.53404 1074.82924,7992.34263 1074.82924,7982.63839 C1074.82924,7982.32031 1074.82087,7981.99944 1074.80971,7981.68694 C1076.24386,7980.65179 1077.48828,7979.35714 1078.47321,7977.88393 Z" id="twitter"></path>
        </g>
    </g>
</svg>