<?xml version="1.0" encoding="UTF-8"?>
<svg width="34px" height="34px" viewBox="0 0 34 34" version="1.1" xmlns="http://www.w3.org/2000/svg" xmlns:xlink="http://www.w3.org/1999/xlink">
    <!-- Generator: Sketch 64 (93537) - https://sketch.com -->
    <title>fb</title>
    <desc>Created with Sketch.</desc>
    <g id="Page-1" stroke="none" stroke-width="1" fill="none" fill-rule="evenodd">
        <g id="Teamvue" transform="translate(-993.000000, -7971.000000)" fill="#383D4A" fill-rule="nonzero">
            <path d="M1010,7971 C1000.62635,7971 993,7978.62561 993,7988 C993,7997.37439 1000.62635,8005 1010,8005 C1019.37439,8005 1027,7997.37439 1027,7988 C1027,7978.62561 1019.37439,7971 1010,7971 Z M1015.17391,7981.34783 L1012.74217,7981.34783 C1011.30974,7981.34783 1010.73913,7981.68413 1010.73913,7982.6827 L1010.73913,7985.04348 L1015.17391,7985.04348 L1014.43478,7988.73913 L1010.73913,7988.73913 L1010.73913,7998.34783 L1006.30435,7998.34783 L1006.30435,7988.73913 L1004.08696,7988.73913 L1004.08696,7985.04348 L1006.30435,7985.04348 L1006.30435,7982.99313 C1006.30435,7979.8703 1007.55052,7977.65217 1011.16857,7977.65217 C1013.10657,7977.65217 1015.17391,7978.3913 1015.17391,7978.3913 L1015.17391,7981.34783 Z" id="fb"></path>
        </g>
    </g>
</svg>