<?xml version="1.0" encoding="UTF-8"?>
<svg width="159px" height="158px" viewBox="0 0 159 158" version="1.1" xmlns="http://www.w3.org/2000/svg" xmlns:xlink="http://www.w3.org/1999/xlink">
    <!-- Generator: Sketch 64 (93537) - https://sketch.com -->
    <title>icon-step1</title>
    <desc>Created with Sketch.</desc>
    <defs>
        <rect id="path-1" x="0" y="0" width="159" height="158" rx="79"></rect>
        <mask id="mask-2" maskContentUnits="userSpaceOnUse" maskUnits="objectBoundingBox" x="0" y="0" width="159" height="158" fill="white">
            <use xlink:href="#path-1"></use>
        </mask>
        <linearGradient x1="93.5390055%" y1="10.1437059%" x2="40.2822152%" y2="87.4508023%" id="linearGradient-3">
            <stop stop-color="#6236FF" offset="0%"></stop>
            <stop stop-color="#8664FF" offset="100%"></stop>
        </linearGradient>
        <linearGradient x1="93.5390055%" y1="10.7018615%" x2="40.2822152%" y2="86.9263336%" id="linearGradient-4">
            <stop stop-color="#6236FF" offset="0%"></stop>
            <stop stop-color="#8664FF" offset="100%"></stop>
        </linearGradient>
    </defs>
    <g id="Page-1" stroke="none" stroke-width="1" fill="none" fill-rule="evenodd">
        <g id="Teamvue" transform="translate(-287.000000, -6637.000000)">
            <g id="How-can-start" transform="translate(268.000000, 6374.000000)">
                <g id="Group-26" transform="translate(0.000000, 263.000000)">
                    <g id="icon-step1" transform="translate(19.000000, 0.000000)">
                        <use id="Rectangle" stroke="#000000" mask="url(#mask-2)" stroke-width="4" fill="#FFFFFF" stroke-linecap="round" stroke-dasharray="20" xlink:href="#path-1"></use>
                        <rect id="Rectangle" fill="url(#linearGradient-3)" opacity="0.0488978795" x="13" y="13" width="133" height="132" rx="66"></rect>
                        <g id="icons8-sign_out" transform="translate(45.000000, 45.000000)" fill="url(#linearGradient-4)" fill-rule="nonzero">
                            <path d="M34.4904992,0 C15.4600423,0 0,15.2401807 0,34 C0,52.7598193 15.4600423,68 34.4904992,68 C45.902768,68 56.0344721,62.5226532 62.3090077,54.0922217 C62.6454252,53.6677582 62.7210297,53.0965164 62.5063495,52.6011743 C62.2916693,52.1058323 61.8206835,51.7647917 61.276989,51.710995 C60.7332945,51.6571984 60.2029462,51.8991604 59.8926813,52.342561 C54.161524,60.042912 44.9302109,65.0434783 34.4904992,65.0434783 C17.0809938,65.0434783 2.99917384,51.1619198 2.99917384,34 C2.99917384,16.8380802 17.0809938,2.95652174 34.4904992,2.95652174 C44.9302109,2.95652174 54.161524,7.95708756 59.8926813,15.657439 C60.2029462,16.1008396 60.7332945,16.3428016 61.276989,16.289005 C61.8206835,16.2352083 62.2916693,15.8941677 62.5063495,15.3988257 C62.7210297,14.9034836 62.6454252,14.3322418 62.3090077,13.9077783 C56.0344721,5.47734723 45.902768,0 34.4904992,0 Z M55.4700711,20.6812155 C54.8598546,20.6812155 54.3105771,21.0459848 54.0809576,21.6033109 C53.851338,22.160637 53.987165,22.7995413 54.4244616,23.2190893 L63.8613156,32.5217391 L31.4913253,32.5217391 C30.9505204,32.5141996 30.4474908,32.7942939 30.1748564,33.2547686 C29.9022219,33.7152432 29.9022219,34.2847568 30.1748564,34.7452314 C30.4474908,35.2057061 30.9505204,35.4858004 31.4913253,35.4782609 L63.8613156,35.4782609 L54.4244616,44.7809107 C54.0327083,45.151683 53.8748995,45.7022619 54.011897,46.2203067 C54.1488945,46.7383515 54.5592908,47.1429114 55.0848091,47.2779606 C55.6103275,47.4130098 56.1688492,47.2574453 56.5449705,46.8712632 L68.4098672,35.1751021 C68.7822762,34.8950564 69.0005724,34.4595737 68.9999989,33.997841 C68.9994231,33.5361082 68.7800435,33.1011549 68.4069385,32.8220109 L56.5449705,21.1287368 C56.2626417,20.8426445 55.8749623,20.6812155 55.4700711,20.6812155 L55.4700711,20.6812155 Z" id="Shape"></path>
                        </g>
                    </g>
                </g>
            </g>
        </g>
    </g>
</svg>