<?xml version="1.0" encoding="UTF-8"?>
<svg width="148px" height="125px" viewBox="0 0 148 125" version="1.1" xmlns="http://www.w3.org/2000/svg" xmlns:xlink="http://www.w3.org/1999/xlink">
    <!-- Generator: Sketch 64 (93537) - https://sketch.com -->
    <title>icon</title>
    <desc>Created with Sketch.</desc>
    <defs>
        <filter x="-30.0%" y="-60.0%" width="160.0%" height="220.0%" filterUnits="objectBoundingBox" id="filter-1">
            <feGaussianBlur stdDeviation="10" in="SourceGraphic"></feGaussianBlur>
        </filter>
        <linearGradient x1="32.2390744%" y1="-11.2227828%" x2="50%" y2="50%" id="linearGradient-2">
            <stop stop-color="#F88892" offset="0%"></stop>
            <stop stop-color="#EF5059" offset="100%"></stop>
        </linearGradient>
    </defs>
    <g id="Page-1" stroke="none" stroke-width="1" fill="none" fill-rule="evenodd">
        <g id="Teamvue" transform="translate(-1362.000000, -1046.000000)">
            <g id="Group-7" transform="translate(1.000000, 775.000000)">
                <g id="Card" transform="translate(356.500000, 271.000000)">
                    <g id="4" transform="translate(967.000000, 0.000000)">
                        <g id="icon" transform="translate(59.000000, 0.000000)">
                            <rect id="Shadow" fill="#EF5059" opacity="0.3" filter="url(#filter-1)" x="2.25" y="50" width="100" height="50" rx="19"></rect>
                            <rect id="icon-bd" fill="url(#linearGradient-2)" x="0" y="0" width="100" height="100" rx="19"></rect>
                            <g id="activism" transform="translate(25.000000, 21.000000)" fill="#FFFFFF" fill-rule="nonzero">
                                <circle id="Oval" cx="8.5" cy="18.5" r="3.5"></circle>
                                <path d="M21.5919305,13.6509429 C21.4861629,13.5995485 21.3776745,13.5602936 21.2680525,13.5318168 L21.2680525,8.99084353 L27.0140821,8.99084353 C27.5585645,8.99084353 28,8.54905589 28,8.00402564 L28,0.986817886 C28,0.441901088 27.5585645,0 27.0140821,0 L13.8215781,0 C13.2770957,0 12.8356602,0.441787635 12.8356602,0.986817886 L12.8356602,8.00413909 C12.8356602,8.54916934 13.2770957,8.99095698 13.8215781,8.99095698 L19.5676077,8.99095698 L19.5676077,14.0291967 C19.4528844,14.1525205 19.3541452,14.2946777 19.2768317,14.4543066 L16.4698508,20.2446291 L11.7336586,22.6694691 C9.3182335,22.6694691 6.76654607,22.6694691 4.13221702,22.6694691 C1.88264195,22.6694691 0.0113591506,24.5010612 0,26.7524309 L0,39.4916622 C-0.00473839326,40.4493225 0.735068448,41.2295417 1.69196541,41.2343068 L1.70080772,41.2343068 C2.65362361,41.2343068 3.46042797,40.4637311 3.46518922,39.5089071 L3.46518922,26.7697893 C3.46700303,26.4211469 3.83135166,26.1373999 4.17971611,26.1373999 C4.17631522,28.7804109 4.18107647,54.8236445 4.17971611,55.9191507 C4.17971611,57.0683205 5.11552756,58 6.26378123,58 C7.41203491,58 8.34297174,57.0684339 8.34297174,55.9191507 L8.34297174,39.2868787 L9.24069322,39.2868787 L9.24069322,55.9191507 C9.24069322,57.0683205 10.1715167,58 11.3198837,58 C12.4682508,58 13.3994143,57.0684339 13.3994143,55.9191507 L13.3994143,25.7117227 L18.564572,23.0674637 C18.8997864,22.8958087 19.1699304,22.619663 19.3343067,22.2805508 L22.3945405,15.9677753 C22.8121697,15.1063235 22.4529224,14.0690188 21.5919305,13.6509429 L21.5919305,13.6509429 Z" id="Path"></path>
                                <circle id="Oval" cx="36.5" cy="18.5" r="3.5"></circle>
                                <path d="M49.0437696,14.1721764 C48.2010353,13.7593205 47.1858024,14.1143654 46.7767565,14.9653976 L44.0281017,20.6834244 L39.3905099,23.0779889 C37.0253702,23.0779889 34.526805,23.0779889 31.9473187,23.0779889 C31.4947597,23.0779889 31.0610712,23.260497 30.7424928,23.5848438 L27.2746499,27.1156865 L23.7455335,24.3138679 C23.00914,23.7290353 21.9424017,23.8576537 21.3631884,24.6010184 C20.783864,25.3442712 20.9112954,26.4208337 21.6476889,27.0055542 L26.3656469,30.7513956 C27.0457619,31.2913014 28.0147066,31.2266561 28.6194506,30.6110134 L32.0171396,27.1328281 C32.0145865,29.1362718 32.0189156,54.5360434 32.0171396,55.9451314 C32.0171396,57.079953 32.9101582,58 34.034507,58 C35.1588558,58 36.0704119,57.0800651 36.0704119,55.9451314 C36.0701899,53.0322842 36.071633,39.6656109 36.0687469,39.4881444 L36.9509983,39.4881444 C36.9484452,39.6444359 36.9496662,52.2340214 36.9493332,55.9451314 C36.9493332,57.079953 37.8608894,58 38.9852381,58 C40.1095869,58 41.0214761,57.0800651 41.0214761,55.9451314 C41.0212541,53.0322842 41.0214761,26.0824822 41.0214761,26.0824822 L46.0791031,23.4713505 C46.4073388,23.3018386 46.6719698,23.0291408 46.832813,22.6942626 L49.8293374,16.4603059 C50.2384942,15.6093857 49.8867259,14.5849203 49.0437696,14.1721764 Z" id="Path"></path>
                                <path d="M35.5,12 C35.7760833,12 36,11.6811061 36,11.2879183 L36,7.71208165 C36,7.3188939 35.7760833,7 35.5,7 C35.2239167,7 35,7.3188939 35,7.71208165 L35,11.2879183 C35,11.6811061 35.2238333,12 35.5,12 Z" id="Path"></path>
                                <path d="M32.7314781,12.7823468 C33.0215427,13.0725511 33.4921856,13.0725511 33.7823741,12.7823468 C34.0725626,12.4921426 34.0725626,12.0215981 33.7822503,11.7313939 L31.2685219,9.21765316 C30.9784573,8.92744895 30.5078144,8.92744895 30.2176259,9.21765316 C29.9274374,9.50785738 29.9274374,9.9784019 30.2177497,10.2686061 L32.7314781,12.7823468 Z" id="Path"></path>
                            </g>
                        </g>
                    </g>
                </g>
            </g>
        </g>
    </g>
</svg>