<?xml version="1.0" encoding="UTF-8"?>
<svg width="159px" height="158px" viewBox="0 0 159 158" version="1.1" xmlns="http://www.w3.org/2000/svg" xmlns:xlink="http://www.w3.org/1999/xlink">
    <!-- Generator: Sketch 64 (93537) - https://sketch.com -->
    <title>icon-step3</title>
    <desc>Created with Sketch.</desc>
    <defs>
        <rect id="path-1" x="0" y="0" width="159" height="158" rx="79"></rect>
        <mask id="mask-2" maskContentUnits="userSpaceOnUse" maskUnits="objectBoundingBox" x="0" y="0" width="159" height="158" fill="white">
            <use xlink:href="#path-1"></use>
        </mask>
        <linearGradient x1="93.5390055%" y1="10.1437059%" x2="40.2822152%" y2="87.4508023%" id="linearGradient-3">
            <stop stop-color="#6236FF" offset="0%"></stop>
            <stop stop-color="#8664FF" offset="100%"></stop>
        </linearGradient>
        <linearGradient x1="63.8557189%" y1="0%" x2="50%" y2="100%" id="linearGradient-4">
            <stop stop-color="#5F00F2" offset="0%"></stop>
            <stop stop-color="#3100E1" offset="100%"></stop>
        </linearGradient>
    </defs>
    <g id="Page-1" stroke="none" stroke-width="1" fill="none" fill-rule="evenodd">
        <g id="Teamvue" transform="translate(-1064.000000, -6637.000000)">
            <g id="How-can-start" transform="translate(268.000000, 6374.000000)">
                <g id="Group-26" transform="translate(0.000000, 263.000000)">
                    <g id="icon-step3" transform="translate(796.000000, 0.000000)">
                        <use id="Rectangle" stroke="#000000" mask="url(#mask-2)" stroke-width="4" fill="#FFFFFF" stroke-linecap="round" stroke-dasharray="20" xlink:href="#path-1"></use>
                        <rect id="Rectangle" fill="url(#linearGradient-3)" opacity="0.0488978795" x="13" y="13" width="133" height="132" rx="66"></rect>
                        <g id="icons8-settings" transform="translate(45.000000, 44.000000)" fill="url(#linearGradient-4)" fill-rule="nonzero">
                            <path d="M31.2161078,0 L28.875804,5.84271574 C25.1884191,6.61477456 21.7583872,8.05836397 18.7063419,10.0528493 L12.9279644,7.57582721 L7.57582721,12.9279644 L10.0528493,18.7063419 C8.05434309,21.7583872 6.61477456,25.1884191 5.84271574,28.875804 L0,31.2161078 L0,38.7838922 L5.84271574,41.124196 C6.61477456,44.8115809 8.05836397,48.2416128 10.0528493,51.2936581 L7.57582721,57.0720356 L12.9279644,62.4241728 L18.7063419,59.9471507 C21.7583872,61.9456569 25.1884191,63.3852254 28.875804,64.1572843 L31.2161078,70 L38.7838922,70 L41.124196,64.1572843 C44.8115809,63.3852254 48.2416128,61.941636 51.2936581,59.9471507 L57.0720356,62.4241728 L62.4241728,57.0720356 L59.9471507,51.2936581 C61.9456569,48.2416128 63.3852254,44.8115809 64.1572843,41.124196 L70,38.7838922 L70,31.2161078 L64.1572843,28.875804 C63.3852254,25.1884191 61.941636,21.7583872 59.9471507,18.7063419 L62.4241728,12.9279644 L57.0720356,7.57582721 L51.2936581,10.0528493 C48.2416128,8.05434309 44.8115809,6.61477456 41.124196,5.84271574 L38.7838922,0 L31.2161078,0 Z M32.6074216,2.05882353 L37.3925784,2.05882353 L39.6001838,7.58789088 L40.1591225,7.68841912 C43.9952893,8.41222426 47.5580196,9.91613103 50.6663603,12.0433137 L51.1328125,12.3569621 L56.6015625,10.0166593 L59.9833407,13.3984375 L57.6390171,18.8671875 L57.9566863,19.3336397 C60.08387,22.4419804 61.5877757,26.0006899 62.30756,29.8408775 L62.4121091,30.3998162 L67.9411765,32.6074216 L67.9411765,37.3925784 L62.4121091,39.6001838 L62.3115809,40.1591225 C61.5877757,43.9952893 60.08387,47.5580196 57.9566863,50.6663603 L57.6430379,51.1328125 L59.9833407,56.6015625 L56.6015625,59.9833407 L51.1328125,57.6390171 L50.6663603,57.9566863 C47.5580196,60.08387 43.9993112,61.5877757 40.1591225,62.30756 L39.6001838,62.4121091 L37.3925784,67.9411765 L32.6074216,67.9411765 L30.3998162,62.4121091 L29.8408775,62.3115809 C26.0047107,61.5877757 22.4419804,60.08387 19.3336397,57.9566863 L18.8671875,57.6430379 L13.3984375,59.9833407 L10.0166593,56.6015625 L12.360984,51.1328125 L12.0433137,50.6663603 C9.91613103,47.5580196 8.41222426,43.9993112 7.69244,40.1591225 L7.58789088,39.6001838 L2.05882353,37.3925784 L2.05882353,32.6074216 L7.58789088,30.3998162 L7.68841912,29.8408775 C8.41222426,26.0047107 9.91613103,22.4419804 12.0433137,19.3336397 L12.3569621,18.8671875 L10.0166593,13.3984375 L13.3984375,10.0166593 L18.8671875,12.360984 L19.3336397,12.0433137 C22.4419804,9.91613103 26.0006899,8.41222426 29.8408775,7.69244 L30.3998162,7.58789088 L32.6074216,2.05882353 Z M35,15.4411765 C34.4330196,15.4411765 33.9705882,15.9036078 33.9705882,16.4705882 C33.9705882,17.0375687 34.4330196,17.5 35,17.5 C35.5669804,17.5 36.0294118,17.0375687 36.0294118,16.4705882 C36.0294118,15.9036078 35.5669804,15.4411765 35,15.4411765 Z M30.2108224,16.0724951 C30.186696,16.0724951 30.1625687,16.0724951 30.1424632,16.0724951 C30.0700832,16.0805379 30.005745,16.0885797 29.9373849,16.1086862 C29.386489,16.2574681 29.0607769,16.8204276 29.2095588,17.3713235 C29.3583407,17.9181985 29.9213003,18.2439106 30.4681753,18.0951287 C31.0190722,17.9503676 31.3447843,17.3874081 31.2000232,16.8365122 C31.0793885,16.3901654 30.6772746,16.0765171 30.2108224,16.0724951 Z M39.7891776,16.0724951 C39.3267463,16.0765171 38.9206115,16.3901654 38.7999768,16.8365122 C38.6552157,17.3874081 38.9809288,17.9503676 39.5318247,18.0951287 C40.0786997,18.2439106 40.6416593,17.9181985 40.7904412,17.3713235 C40.9392231,16.8204276 40.613511,16.2574681 40.0626151,16.1086862 C39.9741496,16.0845588 39.8816641,16.0724951 39.7891776,16.0724951 Z M25.7111678,17.9222194 C25.5382585,17.9262413 25.3693701,17.974495 25.2205882,18.0629596 C24.9833407,18.1956569 24.8104325,18.4208407 24.7380515,18.6862365 C24.6696924,18.9516312 24.7058824,19.2331115 24.8426016,19.4663371 C24.9793199,19.7035846 25.2045037,19.8764938 25.4698994,19.9488738 C25.7312732,20.017234 26.0127525,19.9810429 26.25,19.8443247 C26.7405796,19.5588235 26.9094669,18.9315257 26.6239657,18.4369253 C26.4389938,18.1112132 26.0891544,17.9141776 25.7111678,17.9222194 Z M44.2164522,17.9262413 C43.8666128,17.9423259 43.5489435,18.1353406 43.3720134,18.4369253 C43.2352941,18.6741728 43.1991041,18.9556531 43.2674632,19.2210478 C43.3398443,19.4864435 43.5127525,19.7116274 43.75,19.8483456 C44.2405796,20.1298259 44.8718982,19.9609375 45.1533775,19.4663371 C45.4388787,18.9757585 45.2699913,18.3484607 44.7794118,18.0629596 C44.6065025,17.9624313 44.4134878,17.9181985 44.2164522,17.9262413 Z M21.91119,20.8656937 C21.6337316,20.8656937 21.364315,20.9742647 21.1672794,21.1672794 C20.7691863,21.5693934 20.7691863,22.2248394 21.1672794,22.6269534 C21.5693934,23.0250465 22.2248394,23.0250465 22.6269534,22.6269534 C23.0250465,22.2248394 23.0250465,21.5693934 22.6269534,21.1672794 C22.4339387,20.9782856 22.1806066,20.8697156 21.91119,20.8656937 Z M48.1169582,20.8656937 C47.8394988,20.8616728 47.5700832,20.9702438 47.3730466,21.1672794 C46.9709326,21.5693934 46.9709326,22.2248394 47.3730466,22.6269534 C47.7751606,23.0250465 48.4265857,23.0250465 48.8286997,22.6269534 C49.2308137,22.2248394 49.2308137,21.5693934 48.8286997,21.1672794 C48.6397059,20.9782856 48.3863738,20.8737365 48.1169582,20.8656937 Z M51.0202206,24.7058824 C50.8473113,24.7099032 50.678424,24.7581569 50.5296421,24.8426016 C50.2923946,24.9793199 50.1194853,25.2045037 50.0511262,25.4698994 C49.9787451,25.7312732 50.0149362,26.0127525 50.1516544,26.25 C50.4371556,26.7405796 51.0684743,26.9094669 51.5590538,26.6239657 C52.0496324,26.3424865 52.2225416,25.7111678 51.9370404,25.2205882 C51.7480466,24.8948762 51.3982082,24.6978406 51.0202206,24.7058824 Z M18.9033775,24.7058824 C18.5535391,24.7259878 18.2358688,24.9190025 18.0629596,25.2205882 C17.9222194,25.4578357 17.8860294,25.739315 17.9584104,26.0006899 C18.0307904,26.2660846 18.2036997,26.4912684 18.4369253,26.6279876 C18.9315257,26.9134878 19.5588235,26.7405796 19.8443247,26.25 C20.1298259,25.7594215 19.9609375,25.1281018 19.4663371,24.8466225 C19.2974497,24.7460943 19.1004141,24.6978406 18.9033775,24.7058824 Z M35,26.7647059 C30.4641544,26.7647059 26.7647059,30.4641544 26.7647059,35 C26.7647059,39.5358456 30.4641544,43.2352941 35,43.2352941 C39.5358456,43.2352941 43.2352941,39.5358456 43.2352941,35 C43.2352941,30.4641544 39.5358456,26.7647059 35,26.7647059 Z M35,28.8235294 C38.4219901,28.8235294 41.1764706,31.5780099 41.1764706,35 C41.1764706,38.4219901 38.4219901,41.1764706 35,41.1764706 C31.5780099,41.1764706 28.8235294,38.4219901 28.8235294,35 C28.8235294,31.5780099 31.5780099,28.8235294 35,28.8235294 Z M17.0938651,29.1773897 C16.6274129,29.1814106 16.225299,29.4910391 16.1046643,29.9373849 C15.9599032,30.4882818 16.2856163,31.0512413 16.8365122,31.2000232 C17.3833872,31.3488051 17.9463468,31.0230931 18.0951287,30.4721972 C18.2439106,29.9213003 17.9181985,29.3583407 17.3673026,29.2095588 C17.2788371,29.1854325 17.1863516,29.1733688 17.0938651,29.1773897 Z M52.9061349,29.1773897 C52.8820085,29.1733688 52.8578812,29.1773897 52.8337549,29.1773897 C52.7653957,29.1814106 52.6970356,29.1934743 52.6286765,29.2095588 C52.0818015,29.3583407 51.7560894,29.9213003 51.9048713,30.4721972 C52.0496324,31.0230931 52.6125919,31.3488051 53.1634878,31.2000232 C53.7143847,31.0512413 54.0400968,30.4882818 53.8913149,29.9373849 C53.7706801,29.4910391 53.3685662,29.1814106 52.9061349,29.1773897 Z M16.4705882,33.9705882 C15.9036078,33.9705882 15.4411765,34.4330196 15.4411765,35 C15.4411765,35.5669804 15.9036078,36.0294118 16.4705882,36.0294118 C17.0375687,36.0294118 17.5,35.5669804 17.5,35 C17.5,34.4330196 17.0375687,33.9705882 16.4705882,33.9705882 Z M53.5294118,33.9705882 C52.9624313,33.9705882 52.5,34.4330196 52.5,35 C52.5,35.5669804 52.9624313,36.0294118 53.5294118,36.0294118 C54.0963922,36.0294118 54.5588235,35.5669804 54.5588235,35 C54.5588235,34.4330196 54.0963922,33.9705882 53.5294118,33.9705882 Z M17.1421188,38.7678076 C17.0375687,38.7637868 16.9330196,38.7758504 16.8365122,38.7999768 C16.2856163,38.9487597 15.9599032,39.5117193 16.1046643,40.0626151 C16.2534472,40.613511 16.8164068,40.9392231 17.3673026,40.7904412 C17.9181985,40.6416593 18.2439106,40.0786997 18.0951287,39.5318247 C17.9785159,39.0935207 17.5924865,38.7838922 17.1421188,38.7678076 Z M52.8860294,38.7678076 C52.4235981,38.7718296 52.0214841,39.0854779 51.9048713,39.5318247 C51.8324913,39.7972194 51.8686813,40.0786997 52.0053996,40.3119253 C52.1421188,40.5491728 52.3673026,40.7220821 52.6326974,40.7904412 C53.1835943,40.9392231 53.7465538,40.613511 53.8953357,40.066636 C54.0400968,39.5157401 53.7143847,38.9527806 53.1634878,38.8039987 C53.0750232,38.7798713 52.9825368,38.7678076 52.8860294,38.7678076 Z M18.9315257,43.2352941 C18.7586165,43.239315 18.5897291,43.2835478 18.4369253,43.3720134 C17.9463468,43.6575135 17.7774584,44.2848113 18.0629596,44.7794118 C18.1956569,45.0126384 18.4208407,45.1855466 18.6862365,45.2579276 C18.9516312,45.3303076 19.2331115,45.2941176 19.4663371,45.1533775 C19.7035846,45.0206801 19.8764938,44.7954963 19.9488738,44.5301016 C20.017234,44.2647059 19.9810429,43.9832266 19.8443247,43.75 C19.6553309,43.4202671 19.3054915,43.2232304 18.9315257,43.2352941 Z M51.0001151,43.239315 C50.6462549,43.2553996 50.3285846,43.4484143 50.1516544,43.75 C50.0149362,43.9872475 49.9787451,44.2687268 50.0511262,44.5341225 C50.1235062,44.7995172 50.2964154,45.024701 50.5336629,45.1614203 C51.0242415,45.4428996 51.6515393,45.2740122 51.9370404,44.7794118 C52.2225416,44.2888332 52.0536532,43.6615354 51.5630747,43.3760343 C51.3901654,43.275506 51.1931299,43.2312732 51.0001151,43.239315 Z M21.91119,47.0754828 C21.6337316,47.0714619 21.364315,47.1800319 21.1672794,47.3730466 C20.7691863,47.7751606 20.7691863,48.4306066 21.1672794,48.8327206 C21.5693934,49.2308137 22.2248394,49.2308137 22.6269534,48.8327206 C23.0250465,48.4306066 23.0250465,47.7751606 22.6269534,47.3730466 C22.4339387,47.1840538 22.1806066,47.0754828 21.91119,47.0754828 Z M48.1169582,47.0754828 C47.8394988,47.06744 47.5700832,47.176011 47.3730466,47.3730466 C46.9709326,47.7751606 46.9709326,48.4306066 47.3730466,48.8327206 C47.7751606,49.2308137 48.4265857,49.2308137 48.8286997,48.8327206 C49.2308137,48.4306066 49.2308137,47.7751606 48.8286997,47.3730466 C48.6397059,47.1840538 48.3863738,47.0795037 48.1169582,47.0754828 Z M44.2365576,50.0189571 C44.0676703,50.0189571 43.8987819,50.0672107 43.75,50.1516544 C43.2553996,50.4371556 43.0865122,51.0684743 43.3720134,51.5590538 C43.6575135,52.0496324 44.2848113,52.2225416 44.7794118,51.9370404 C45.0126384,51.8003222 45.1855466,51.5751384 45.2579276,51.3097426 C45.3303076,51.0483688 45.2941176,50.7668885 45.1533775,50.5296421 C44.9684056,50.203929 44.6145453,50.0068934 44.2365576,50.0189571 Z M25.6870404,50.0189571 C25.3331801,50.0350416 25.0155099,50.2280563 24.8426016,50.5336629 C24.5571004,51.0242415 24.7259878,51.6555612 25.2205882,51.9370404 C25.4538149,52.0777806 25.7352941,52.1139706 26.0006899,52.0415906 C26.2660846,51.9732304 26.4912684,51.8003222 26.6239657,51.5630747 C26.7647059,51.3258272 26.8008959,51.0443479 26.7285159,50.7829731 C26.6561349,50.5175784 26.4832266,50.2923946 26.25,50.1556753 C26.0770907,50.0551471 25.8800551,50.0109143 25.6870404,50.0189571 Z M30.1947378,51.8727022 C29.7323075,51.8767231 29.3301935,52.1863516 29.2095588,52.6326974 C29.0607769,53.1835943 29.386489,53.7465538 29.9373849,53.8953357 C30.4882818,54.0441176 31.0512413,53.7184056 31.2000232,53.1675097 C31.2683824,52.902114 31.2321924,52.6206347 31.0954731,52.3833872 C30.9587549,52.1501606 30.733571,51.9772524 30.4681753,51.9048713 C30.3797107,51.880745 30.2872243,51.8686813 30.1947378,51.8727022 Z M39.8374313,51.8727022 C39.7328812,51.8686813 39.6283321,51.8767231 39.5318247,51.9048713 C38.9809288,52.0536532 38.6552157,52.6166128 38.7999768,53.1634878 C38.9487597,53.7143847 39.5117193,54.0400968 40.0626151,53.8953357 C40.613511,53.7465538 40.9392231,53.1835943 40.7904412,52.6326974 C40.6738284,52.1984143 40.287799,51.8887868 39.8374313,51.8727022 Z M35,52.5 C34.4330196,52.5 33.9705882,52.9624313 33.9705882,53.5294118 C33.9705882,54.0963922 34.4330196,54.5588235 35,54.5588235 C35.5669804,54.5588235 36.0294118,54.0963922 36.0294118,53.5294118 C36.0294118,52.9624313 35.5669804,52.5 35,52.5 Z" id="Shape"></path>
                        </g>
                    </g>
                </g>
            </g>
        </g>
    </g>
</svg>