<?xml version="1.0" encoding="UTF-8"?>
<svg width="55px" height="55px" viewBox="0 0 55 55" version="1.1" xmlns="http://www.w3.org/2000/svg" xmlns:xlink="http://www.w3.org/1999/xlink">
    <!-- Generator: Sketch 64 (93537) - https://sketch.com -->
    <title>icon-analytics</title>
    <desc>Created with Sketch.</desc>
    <g id="Page-1" stroke="none" stroke-width="1" fill="none" fill-rule="evenodd">
        <g id="Teamvue" transform="translate(-1431.000000, -1577.000000)" fill="#000000" fill-rule="nonzero">
            <g id="Group-8" transform="translate(103.000000, 1522.000000)">
                <g id="icon-analytics" transform="translate(1328.000000, 55.000000)">
                    <path d="M50.2059925,0 C47.5474975,0 45.4119851,2.13719932 45.4119851,4.79779457 C45.4119851,5.9318187 45.804392,6.97878031 46.4581203,7.80749025 L34.7778345,24.2939453 C34.2548518,24.11948 33.7322096,24.0324179 33.1656451,24.0324179 C32.0760979,24.0324179 31.1174668,24.3810078 30.289411,24.9916362 L24.5360912,20.5865587 C24.7540007,20.0195466 24.8850867,19.4527051 24.8850867,18.7984604 C24.8850867,16.1378653 22.7495743,14.000666 20.0910792,14.000666 C17.4325842,14.000666 15.2970718,16.1378653 15.2970718,18.7984604 C15.2970718,19.8452519 15.6453865,20.8484271 16.2555329,21.6335207 L7.0599249,33.5411148 C6.49336038,33.3230332 5.88338438,33.1918436 5.27323797,33.1918436 C2.61474292,33.1918436 0.479230507,35.3290429 0.479230507,37.989638 C0.479230507,40.6502331 2.61474292,42.7874324 5.27323797,42.7874324 C7.93173302,42.7874324 10.0672454,40.6502331 10.0672454,37.989638 C10.0672454,36.9428465 9.71893073,35.9396713 9.10878432,35.1545777 L18.3043923,23.2469837 C18.8709568,23.4650652 19.4373509,23.5962548 20.0910792,23.5962548 C21.1806264,23.5962548 22.1392575,23.247665 22.9673133,22.6370366 L28.720633,27.0421141 C28.5027236,27.6091261 28.3716376,28.219584 28.3716376,28.8302123 C28.3716376,31.4908074 30.50715,33.6280067 33.1656451,33.6280067 C35.8241401,33.6280067 37.9596525,31.4908074 37.9596525,28.8302123 C37.9596525,27.6961882 37.5672451,26.6492262 36.9135168,25.8205162 L48.5938027,9.33406119 C49.0732034,9.50852644 49.639428,9.59558897 50.2059925,9.59558897 C52.8644876,9.59558897 55,7.45838964 55,4.79779457 C55,2.13719932 52.8644876,0 50.2059925,0 Z M50.1625806,2.6604247 C51.3828734,2.6604247 52.3416749,3.61998358 52.3416749,4.84124034 C52.3416749,6.0624971 51.3828734,7.02205598 50.1625806,7.02205598 C48.9422878,7.02205598 47.9834863,6.0624971 47.9834863,4.84124034 C47.9834863,3.61998358 48.9422878,2.6604247 50.1625806,2.6604247 Z M20.0910792,16.6176448 C21.311372,16.6176448 22.2701735,17.5772037 22.2701735,18.7984604 C22.2701735,20.0197172 21.311372,20.979276 20.0910792,20.979276 C18.8707864,20.979276 17.9119849,20.0197172 17.9119849,18.7984604 C17.9119849,17.5772037 18.8707864,16.6176448 20.0910792,16.6176448 Z M33.1656451,26.6493967 C34.3859379,26.6493967 35.3447394,27.6089556 35.3447394,28.8302123 C35.3447394,30.0514691 34.3859379,31.011028 33.1656451,31.011028 C31.9453522,31.011028 30.9865507,30.0514691 30.9865507,28.8302123 C30.9865507,27.6089556 31.9453522,26.6493967 33.1656451,26.6493967 Z M5.27323797,35.8088224 C6.49353078,35.8088224 7.45233228,36.7683813 7.45233228,37.989638 C7.45233228,39.2108948 6.49353078,40.1704537 5.27323797,40.1704537 C4.05294516,40.1704537 3.09414367,39.2108948 3.09414367,37.989638 C3.09414367,36.7683813 4.05294516,35.8088224 5.27323797,35.8088224 Z M1.28787881,52.3574664 C0.967143363,52.3717769 0.664623754,52.5033063 0.435818852,52.7322919 C0.392236966,52.7759082 0.304902963,52.8631409 0.261321077,52.9503735 C0.217739191,53.0376061 0.173816843,53.0812224 0.130234957,53.1684551 C0.0866530273,53.2556877 0.0869935326,53.3427502 0.0434116465,53.4299828 C0.0434116465,53.5172155 0,53.604278 0,53.6915106 C0,54.0404411 0.130915924,54.3892015 0.392407197,54.6072831 C0.653898513,54.8689809 0.958801485,55 1.30745657,55 C1.39462035,55 1.48161389,55.0001701 1.56877766,54.9565538 C1.65594143,54.9565538 1.74293497,54.9124271 1.83009874,54.8688108 C1.91726252,54.8251945 2.00442629,54.7820885 2.04800817,54.7384722 C2.13517195,54.6948559 2.17892406,54.6510695 2.22250595,54.5638369 L2.39700372,54.3892015 C2.44058561,54.3019689 2.48365676,54.2583526 2.52723869,54.1711199 C2.57082053,54.0838873 2.57133127,53.9968248 2.61491315,53.9095922 C2.61491315,53.8223595 2.65832481,53.735297 2.65832481,53.6480644 C2.65832481,53.2991339 2.52740892,52.9503735 2.2659176,52.7322919 C2.22233572,52.6886756 2.13500167,52.6447191 2.09141983,52.6011028 C2.00425601,52.5574865 1.96067413,52.5135299 1.8735104,52.4699136 C1.78634658,52.4262973 1.69935309,52.4266375 1.61218931,52.3830212 C1.5032346,52.3612131 1.39479058,52.3526948 1.28787881,52.3574664 Z M10.0672454,52.3830212 C9.32635338,52.3830212 8.75978886,52.9500333 8.75978886,53.6915106 C8.75978886,54.4329879 9.32635338,55 10.0672454,55 L53.6491315,55 C54.3900236,55 54.9565881,54.4329879 54.9565881,53.6915106 C54.9565881,52.9500333 54.3900236,52.3830212 53.6491315,52.3830212 L10.0672454,52.3830212 Z" id="Shape"></path>
                </g>
            </g>
        </g>
    </g>
</svg>