<?xml version="1.0" encoding="UTF-8"?>
<svg width="36px" height="56px" viewBox="0 0 36 56" version="1.1" xmlns="http://www.w3.org/2000/svg" xmlns:xlink="http://www.w3.org/1999/xlink">
    <!-- Generator: Sketch 64 (93537) - https://sketch.com -->
    <title>icon-stealth</title>
    <desc>Created with Sketch.</desc>
    <g id="Page-1" stroke="none" stroke-width="1" fill="none" fill-rule="evenodd">
        <g id="Teamvue" transform="translate(-1688.000000, -1577.000000)" fill="#000000" fill-rule="nonzero">
            <g id="Group-8" transform="translate(103.000000, 1522.000000)">
                <g id="icon-stealth" transform="translate(1585.000000, 55.000000)">
                    <path d="M20.3988268,0 C17.0995974,0 14.3991719,2.73971278 14.3991719,6.08694152 C14.3991719,9.43417027 17.0995974,12.173883 20.3988268,12.173883 C23.6980563,12.173883 26.3984818,9.43417027 26.3984818,6.08694152 C26.3984818,2.73971278 23.6980563,0 20.3988268,0 Z M20.3988268,2.43477661 C22.4008925,2.43477661 23.9986198,4.05574874 23.9986198,6.08694152 C23.9986198,8.11813431 22.4008925,9.73910644 20.3988268,9.73910644 C18.3967612,9.73910644 16.7990339,8.11813431 16.7990339,6.08694152 C16.7990339,4.05574874 18.3967612,2.43477661 20.3988268,2.43477661 Z M15.8522139,13.3912714 C14.5335534,13.3912714 13.2498216,13.8319696 12.2032046,14.6443255 L5.06220887,20.1939045 C5.01831172,20.2282016 4.97680842,20.2655418 4.93799681,20.3056571 C4.52674326,20.6447777 4.18736558,21.0770942 3.95367902,21.5801093 C3.91645633,21.6390137 3.88430796,21.7010641 3.85759095,21.7655711 L0.454661052,29.9092329 C0.177980964,30.4202207 0,31.013846 0,31.6520959 C0,33.6546632 1.62594249,35.3042608 3.59979297,35.3042608 C5.1816884,35.3042608 6.52323404,34.2451744 6.99803474,32.795775 L9.93927198,26.1025169 L11.3055998,25.0872345 C10.6476536,27.8228534 9.82443499,31.2573955 9.82443499,31.2573955 C9.79834016,31.3606868 9.78573302,31.4670084 9.78693715,31.5736316 C9.69502363,31.9682699 9.60591916,32.3754023 9.60179139,32.8385735 C9.59929513,32.8496358 9.59695143,32.860733 9.594761,32.8718618 L7.88392099,41.5790417 L2.34127175,48.8310616 C2.33571034,48.8389208 2.33024147,48.846847 2.32486629,48.8548384 C1.92003598,49.4110765 1.19993099,50.3802722 1.19993099,51.739003 C1.19993099,54.0778348 3.09439644,55.9999314 5.39968946,55.9999314 C7.07461313,55.9999314 8.22182636,54.8942068 8.90339436,54.0477604 C8.91134884,54.0383712 8.9191617,54.0288595 8.92683021,54.0192285 L14.9007058,46.1418703 C14.9976694,46.0138638 15.0685718,45.8675708 15.1092875,45.7115041 L16.2248477,41.4672891 L18.2614498,43.3528142 L20.462104,52.3215427 L20.4339812,52.1432136 C20.4701951,52.5275431 20.5734276,52.923887 20.7245889,53.3130483 C20.739768,53.3722742 20.9023143,54.0353735 21.4651719,54.6778538 C22.0526425,55.3484302 23.1286759,55.9906245 24.5915549,55.9999314 C26.8915598,56.013375 28.6835068,54.0499505 28.6835068,51.7675361 C28.6835068,51.2362605 28.6325937,50.6563126 28.4186784,50.0127841 L28.4468012,50.1078925 L26.0375654,40.3069659 C25.9992652,40.1506092 25.930758,40.0035196 25.8360141,39.8742221 L20.5089769,32.6245798 L22.0042037,27.0417137 L23.8345665,29.1031892 C23.9853052,29.2733259 24.1802413,29.3969336 24.3970341,29.4598462 L31.1302405,31.4119466 L31.1325839,31.4119466 C31.1325839,31.4119466 31.1349286,31.4119466 31.1349286,31.4119466 C31.1399683,31.4134075 31.148729,31.4161588 31.1583645,31.4190805 C31.1794112,31.4252892 31.2083596,31.4348749 31.2450775,31.4452349 C31.3185024,31.465967 31.4183367,31.4930295 31.5333429,31.5213216 C31.7633853,31.5779679 31.996941,31.6520959 32.3981368,31.6520959 C34.3727108,31.6520959 36.0675233,30.0084269 35.9979297,27.9571325 C35.9312136,26.018035 34.623908,24.8716168 33.5347906,24.5356055 C33.5316687,24.5348002 33.5285437,24.5340077 33.5254155,24.5332279 L27.9382368,22.8688292 L23.3799054,16.3158568 C23.345232,16.2654287 23.3068432,16.2177379 23.2650684,16.1731935 C22.3727097,14.6020967 20.7464865,13.5223634 18.8614153,13.4269372 C18.8189377,13.4162242 18.7325535,13.4104282 18.6598641,13.4031604 C18.6543444,13.4026077 18.6482223,13.4012685 18.6434586,13.4007816 C18.6276963,13.4007 18.6147215,13.3912714 18.5989304,13.3912714 C18.3851927,13.3912714 18.4710717,13.3929185 18.5825249,13.3936489 C18.5814522,13.3934967 18.5685073,13.3912714 18.5684629,13.3912714 L15.8522139,13.3912714 Z M15.8522139,15.826048 L18.5590891,15.826048 L18.5684629,15.826048 C18.5689645,15.826048 18.577838,15.8284255 18.577838,15.8284255 C18.8516886,15.8284255 18.8583794,15.826048 18.5989304,15.826048 C20.2699087,15.826048 21.5987578,17.17423 21.5987578,18.8695187 C21.5987578,19.1323261 21.5495007,19.4087304 21.460485,19.7183622 C21.4374299,19.7982382 21.4225087,19.8803022 21.4159556,19.9632666 L18.0411496,32.5580045 C17.944304,32.9185424 18.016016,33.3042318 18.2356705,33.6041976 L23.7666024,41.1320314 L26.117248,50.697565 C26.1254041,50.7288421 26.1347858,50.759777 26.1453708,50.7902959 C26.2770428,51.186417 26.2836448,51.3346377 26.2836448,51.7675361 C26.2836448,52.847547 25.6198202,53.5710457 24.6056157,53.565122 C23.7550278,53.5597289 23.4619207,53.2937357 23.2580368,53.0610112 C23.0541541,52.8282831 23.0260194,52.6853325 23.0260194,52.6853325 C23.0090224,52.6127575 22.9854871,52.5419209 22.9557106,52.4737163 C22.8911303,52.3267593 22.843601,52.1405366 22.8221247,51.9125757 C22.8163442,51.8524486 22.8061606,51.7928413 22.7916584,51.7342478 L20.5019465,42.4088635 C20.444821,42.1755038 20.3208671,41.9645302 20.1457158,41.8025469 L14.1273131,36.2315686 C14.0561408,36.1659735 13.9774559,36.1092945 13.892951,36.062751 C13.4065038,35.7931713 13.0257633,35.4086348 12.7164559,34.9785145 L12.7633288,35.3518145 C12.7413818,35.1787783 12.6830366,35.0125484 12.592245,34.8643844 C12.5904451,34.8615844 12.5870133,34.8600517 12.5852134,34.8572505 C12.5416098,34.7889171 12.4913612,34.7251926 12.435222,34.6670335 L12.568808,34.8025642 C12.2146843,34.2333037 11.9993099,33.5834849 11.9993099,32.8694842 C11.9993099,32.5664446 12.0533068,32.2565609 12.1469578,31.9112669 C12.1609077,31.8565713 12.1710881,31.8009569 12.1774253,31.7448268 C12.2170818,31.5911863 13.632584,26.1122451 14.4226077,22.3909094 C14.5274867,21.8968013 14.3205548,21.388336 13.9026271,21.1132324 C13.4846994,20.8381288 12.9426999,20.8536052 12.5406852,21.1521218 L8.26593102,24.3287444 C8.09737883,24.4542694 7.96407774,24.6222954 7.87923406,24.8161757 L4.80675436,31.8042695 C4.7822613,31.8597121 4.76189317,31.9169371 4.74582066,31.9754647 C4.6042996,32.4939455 4.16023154,32.8694842 3.59979297,32.8694842 C2.92179597,32.8694842 2.39986198,32.3399568 2.39986198,31.6520959 C2.39986198,31.425288 2.46367431,31.2182553 2.58266427,31.0220025 C2.61404531,30.969492 2.64146559,30.9146479 2.66469035,30.85794 L6.00668535,22.859319 L5.9293462,22.9615601 C5.99591461,22.8735798 6.05032116,22.7767834 6.0910561,22.6738572 C6.17110349,22.471705 6.30992231,22.2936437 6.49415732,22.1555164 C6.58357027,22.0878083 6.66323942,22.0077803 6.7308629,21.9177446 L6.64649215,22.0294972 L13.6609335,16.579783 L13.663277,16.5774054 C14.2912585,16.0908421 15.0624097,15.826048 15.8522139,15.826048 Z M23.6470772,20.9214839 L26.218023,24.6188249 C26.3741359,24.8432051 26.6004404,25.0074423 26.8601744,25.084857 L32.8363924,26.8657622 C32.9784042,26.909576 33.5687846,27.191573 33.5980677,28.0427295 C33.6196689,28.6794285 33.0754102,29.2173193 32.3981368,29.2173193 C32.4945512,29.2173193 32.2613626,29.1950764 32.1004975,29.1554991 C32.0200661,29.1357044 31.9439077,29.113761 31.8895724,29.098434 C31.862406,29.0907645 31.8410412,29.0861238 31.8262952,29.0817899 C31.8198144,29.0798421 31.8141135,29.0782522 31.8098898,29.0770348 C31.8098898,29.0770348 31.8075451,29.0770348 31.8075451,29.0770348 C31.8052665,29.0763591 31.8039945,29.0757517 31.8005147,29.074656 L31.7934843,29.0722785 L25.3883835,27.2152865 L22.7541606,24.245525 L23.6470772,20.9214839 Z M11.2282607,37.0067029 C11.6294192,37.4364568 12.0867333,37.8024829 12.5852134,38.098072 L14.2257447,39.6174299 L12.8523864,44.8507728 L7.04256418,52.5093809 C6.58905386,53.0715148 5.92696194,53.5650854 5.39968946,53.5650854 C4.39077308,53.5650854 3.59979297,52.7625977 3.59979297,51.739003 C3.59979297,51.4066827 3.93236585,50.7448545 4.2513183,50.3052434 C4.25239104,50.3037825 4.25258183,50.3019479 4.25366177,50.300487 L9.95333398,42.8439837 C10.0674699,42.6954604 10.1460887,42.5220989 10.183008,42.3375319 L11.2282607,37.0067029 Z" id="Shape"></path>
                </g>
            </g>
        </g>
    </g>
</svg>