<?xml version="1.0" encoding="UTF-8"?>
<svg width="50px" height="58px" viewBox="0 0 50 58" version="1.1" xmlns="http://www.w3.org/2000/svg" xmlns:xlink="http://www.w3.org/1999/xlink">
    <!-- Generator: Sketch 64 (93537) - https://sketch.com -->
    <title>icon-screenshot</title>
    <desc>Created with Sketch.</desc>
    <g id="Page-1" stroke="none" stroke-width="1" fill="none" fill-rule="evenodd">
        <g id="Teamvue" transform="translate(-445.000000, -1570.000000)" fill="#000000" fill-rule="nonzero">
            <g id="Group-8" transform="translate(103.000000, 1522.000000)">
                <g id="Group-13" transform="translate(283.000000, 48.000000)">
                    <g id="icon-screenshot" transform="translate(59.000000, 0.000000)">
                        <path d="M49.1300294,0 L0.866002698,0 C0.387401869,0.00108176182 0,0.384251801 0,0.856542292 L0,57.1434599 C0,57.616514 0.388610868,58 0.867986668,58 L49.1320133,58 C49.6113891,58 50,57.616514 50,57.1434599 L50,0.856542292 C50,0.629034127 49.90828,0.410872589 49.7450716,0.250183772 C49.5818631,0.0894949555 49.3605773,0 49.1300294,0 L49.1300294,0 Z M48.2620427,56.2869199 L1.73597334,56.2869199 L1.73597334,1.71308234 L48.2600587,1.71308234 L48.2620427,56.2869199 Z" id="Shape"></path>
                        <path d="M42.1596639,39 C41.695559,39 41.3193277,39.3762313 41.3193277,39.8403361 L41.3193277,45.3193277 L35.8403361,45.3193277 C35.3762313,45.3193277 35,45.695559 35,46.1596639 C35,46.6237687 35.3762313,47 35.8403361,47 L42.1596639,47 C42.6237687,47 43,46.6237687 43,46.1596639 L43,39.8403361 C43,39.3762313 42.6237687,39 42.1596639,39 L42.1596639,39 Z" id="Path"></path>
                        <path d="M35.8403361,12.6806723 L41.3193277,12.6806723 L41.3193277,18.1596639 C41.3193277,18.6237687 41.695559,19 42.1596639,19 C42.6237687,19 43,18.6237687 43,18.1596639 L43,11.8403361 C43,11.3762313 42.6237687,11 42.1596639,11 L35.8403361,11 C35.3762313,11 35,11.3762313 35,11.8403361 C35,12.304441 35.3762313,12.6806723 35.8403361,12.6806723 L35.8403361,12.6806723 Z" id="Path"></path>
                        <path d="M7.84033613,47 L14.1596639,47 C14.6237687,47 15,46.6237687 15,46.1596639 C15,45.695559 14.6237687,45.3193277 14.1596639,45.3193277 L8.68067227,45.3193277 L8.68067227,39.8403361 C8.68067227,39.3762313 8.30444097,39 7.84033613,39 C7.3762313,39 7,39.3762313 7,39.8403361 L7,46.1596639 C7,46.6237687 7.3762313,47 7.84033613,47 L7.84033613,47 Z" id="Path"></path>
                        <path d="M7.84033613,19 C8.30444097,19 8.68067227,18.6237687 8.68067227,18.1596639 L8.68067227,12.6806723 L14.1596639,12.6806723 C14.6237687,12.6806723 15,12.304441 15,11.8403361 C15,11.3762313 14.6237687,11 14.1596639,11 L7.84033613,11 C7.3762313,11 7,11.3762313 7,11.8403361 L7,18.1596639 C7,18.6237687 7.3762313,19 7.84033613,19 Z" id="Path"></path>
                        <path d="M36,39.151266 L36,19.8487296 C36,19.3799892 35.6200458,19 35.1513486,19 L15.8486514,19 C15.3799542,19 15,19.3799892 15,19.8487296 L15,39.151266 C15,39.6200064 15.3799542,40 15.8486514,40 L35.1494088,40 C35.3748211,40.0005109 35.5911775,39.9113189 35.7507503,39.7520953 C35.9103231,39.5928718 36,39.3766996 36,39.151266 Z M34.3026972,20.6935793 L34.3026972,32.6063482 L29.906683,25.9595828 C29.767905,25.7497683 29.5432532,25.612287 29.2932842,25.584198 C29.0433152,25.556109 28.7937583,25.6403035 28.6118834,25.8140863 L23.0185433,31.1741776 L21.1956401,28.4179888 C21.0571954,28.2077403 20.8324789,28.0699017 20.5823325,28.0417927 C20.332186,28.0136838 20.0824867,28.0982123 19.9008406,28.2724923 L16.695363,31.3429535 L16.695363,20.6955193 L34.3026972,20.6935793 Z M16.695363,33.6912671 L20.3406845,30.199351 L22.1485544,32.9332303 L22.1592232,32.9497199 L25.6993118,38.3020514 L16.695363,38.3020514 L16.695363,33.6912671 Z M27.7331655,38.3020514 L23.9695178,32.613138 L29.0522123,27.7448249 L34.3026972,35.6831143 L34.3026972,38.3044763 L27.7331655,38.3020514 Z" id="Shape"></path>
                    </g>
                </g>
            </g>
        </g>
    </g>
</svg>