<?xml version="1.0" encoding="UTF-8"?>
<svg width="54px" height="26px" viewBox="0 0 54 26" version="1.1" xmlns="http://www.w3.org/2000/svg" xmlns:xlink="http://www.w3.org/1999/xlink">
    <!-- Generator: Sketch 64 (93537) - https://sketch.com -->
    <title>icon-right</title>
    <desc>Created with Sketch.</desc>
    <g id="Page-1" stroke="none" stroke-width="1" fill="none" fill-rule="evenodd">
        <g id="Teamvue" transform="translate(-542.000000, -6709.000000)" fill="#000000" fill-rule="nonzero">
            <g id="How-can-start" transform="translate(268.000000, 6374.000000)">
                <g id="Group-26" transform="translate(0.000000, 263.000000)">
                    <g id="icon-right" transform="translate(301.000000, 85.000000) rotate(45.000000) translate(-301.000000, -85.000000) translate(281.000000, 65.000000)">
                        <path d="M37.980469,0.992188 C37.941406,0.992188 37.90625,0.996094 37.871094,1 L22,1 C21.640625,0.996094 21.304688,1.183594 21.121094,1.496094 C20.941406,1.808594 20.941406,2.191406 21.121094,2.503906 C21.304688,2.816406 21.640625,3.003906 22,3 L35.585938,3 L1.292969,37.292969 C1.03125,37.542969 0.925781,37.917969 1.019531,38.265625 C1.109375,38.617188 1.382813,38.890625 1.734375,38.980469 C2.082031,39.074219 2.457031,38.96875 2.707031,38.707031 L37,4.414063 L37,18 C36.996094,18.359375 37.183594,18.695313 37.496094,18.878906 C37.808594,19.058594 38.191406,19.058594 38.503906,18.878906 C38.816406,18.695313 39.003906,18.359375 39,18 L39,2.125 C39.011719,2.035156 39.011719,1.941406 39,1.851563 L39,1 L38.144531,1 C38.089844,0.992188 38.035156,0.988281 37.980469,0.992188 Z" id="Path"></path>
                    </g>
                </g>
            </g>
        </g>
    </g>
</svg>